<?xml version="1.0" encoding="utf-8"?>
<COLLADA xmlns="http://www.collada.org/2005/11/COLLADASchema" version="1.4.1" xmlns:xsi="http://www.w3.org/2001/XMLSchema-instance">
  <asset>
    <contributor>
      <author>Blender User</author>
      <authoring_tool>Blender 3.0.1</authoring_tool>
    </contributor>
    <created>2025-06-05T15:58:05</created>
    <modified>2025-06-05T15:58:05</modified>
    <unit name="meter" meter="1"/>
    <up_axis>Z_UP</up_axis>
  </asset>
  <library_cameras>
    <camera id="Camera-camera" name="Camera">
      <optics>
        <technique_common>
          <perspective>
            <xfov sid="xfov">39.59775</xfov>
            <aspect_ratio>1.777778</aspect_ratio>
            <znear sid="znear">0.1</znear>
            <zfar sid="zfar">100</zfar>
          </perspective>
        </technique_common>
      </optics>
      <extra>
        <technique profile="blender">
          <shiftx sid="shiftx" type="float">0</shiftx>
          <shifty sid="shifty" type="float">0</shifty>
          <dof_distance sid="dof_distance" type="float">10</dof_distance>
        </technique>
      </extra>
    </camera>
  </library_cameras>
  <library_lights>
    <light id="Light-light" name="Light">
      <technique_common>
        <point>
          <color sid="color">1000 1000 1000</color>
          <constant_attenuation>1</constant_attenuation>
          <linear_attenuation>0</linear_attenuation>
          <quadratic_attenuation>0.00111109</quadratic_attenuation>
        </point>
      </technique_common>
      <extra>
        <technique profile="blender">
          <type sid="type" type="int">0</type>
          <flag sid="flag" type="int">0</flag>
          <mode sid="mode" type="int">1</mode>
          <gamma sid="blender_gamma" type="float">1</gamma>
          <red sid="red" type="float">1</red>
          <green sid="green" type="float">1</green>
          <blue sid="blue" type="float">1</blue>
          <shadow_r sid="blender_shadow_r" type="float">0</shadow_r>
          <shadow_g sid="blender_shadow_g" type="float">0</shadow_g>
          <shadow_b sid="blender_shadow_b" type="float">0</shadow_b>
          <energy sid="blender_energy" type="float">1000</energy>
          <dist sid="blender_dist" type="float">29.99998</dist>
          <spotsize sid="spotsize" type="float">75</spotsize>
          <spotblend sid="spotblend" type="float">0.15</spotblend>
          <att1 sid="att1" type="float">0</att1>
          <att2 sid="att2" type="float">1</att2>
          <falloff_type sid="falloff_type" type="int">2</falloff_type>
          <clipsta sid="clipsta" type="float">0.04999995</clipsta>
          <clipend sid="clipend" type="float">30.002</clipend>
          <bias sid="bias" type="float">1</bias>
          <soft sid="soft" type="float">3</soft>
          <bufsize sid="bufsize" type="int">2880</bufsize>
          <samp sid="samp" type="int">3</samp>
          <buffers sid="buffers" type="int">1</buffers>
          <area_shape sid="area_shape" type="int">1</area_shape>
          <area_size sid="area_size" type="float">0.1</area_size>
          <area_sizey sid="area_sizey" type="float">0.1</area_sizey>
          <area_sizez sid="area_sizez" type="float">1</area_sizez>
        </technique>
      </extra>
    </light>
  </library_lights>
  <library_images/>
  <library_geometries>
    <geometry id="finger-mesh" name="finger">
      <mesh>
        <source id="finger-mesh-positions">
          <float_array id="finger-mesh-positions-array" count="2244">-62.7 -17.45 -4 -57.91369 -17.45 4 -62.7 -17.45 4 -61.7 -16.45 4 -61.7 -16.45 -4 -57.91369 -17.45 -4 -55.7 -15.26299 4 -61.3 -16.45 4 -57.3 -12.45 4 -61.3 -16.45 -4 -57.3 -12.45 -4 -55.7 -15.26299 -4 -50.85374 -12.45 -4 -53.51299 -17.45 -4 -53.51299 -17.45 4 -50.85374 -17.45 -4 -49.11086 -7.55 -6.552471 -49.11243 -17.45 -6.550919 -50.85374 -17.45 4 -50.85374 -12.45 4 -50.85374 -7.55 -4 -50.85374 -7.55 4 -49.11086 -17.45 6.552471 -49.11243 -7.55 6.550919 -47.83047 -7.55 -3.349388 -46.53049 -7.55 -8.253787 -46.53253 -17.45 -8.252947 -48.5 -7.55 -0.85 -48.5 -7.55 0.85 -43.5 -7.55 -5.85 -43.5 -7.55 -8.850001 -44.79443 -7.55 -5.679538 -46.00121 -7.55 -5.179424 -23 -7.55 -5.85 -23 -7.55 -8.850001 -43.5 -17.45 -8.850001 -23 -17.45 -8.850001 -23 -14.5 -5.85 -43.5 -14.5 -5.85 -45.99939 -14.5 -5.180476 -47.82942 -14.5 -3.351209 -48.32954 -14.5 -2.144435 -48.5 -14.5 0.85 -48.5 -14.5 -0.85 -48.32954 -7.55 2.144435 -46.53253 -7.55 8.252947 -47.82942 -7.55 3.351209 -47.83047 -14.5 3.349388 -45.99939 -7.55 5.180476 -46.00121 -14.5 5.179424 -43.5 -7.55 8.850001 -43.5 -7.55 5.85 -44.79443 -14.5 5.679538 -23 -7.55 8.850001 -23 -7.55 5.85 -43.5 -14.5 5.85 -23 -14.5 5.85 -23 -17.45 8.850001 -43.5 -17.45 8.850001 -46.53049 -17.45 8.253787 -46.38249 -17.45 -2.822461 -47.3 -17.45 0 -47.06501 -17.45 -1.483502 -41.01708 -17.45 -4.565182 -43.98198 -17.45 -4.565486 -47.06474 -17.45 1.484315 -43.98292 -17.45 4.565182 -46.38207 -17.45 2.823039 -29.01802 -17.45 4.565486 -41.01802 -17.45 4.565486 -38.61751 -17.45 2.822461 -35.3 -17.45 0 -35.06474 -17.45 1.484315 -31.98292 -17.45 4.565182 -34.38207 -17.45 2.823039 -25.935 -17.45 1.483502 -26.61751 -17.45 2.822461 -38.61793 -17.45 -2.823039 -31.98199 -17.45 -4.565486 -29.01708 -17.45 -4.565182 -26.61793 -17.45 -2.823039 -25.93526 -17.45 -1.484315 -25.7 -17.45 0 -44.75 -14.9 0 -44.57873 -14.9 0.8610377 -44.57873 -14.9 -0.8610377 -44.09099 -14.9 -1.59099 -42.5 -14.9 -2.25 -43.36104 -14.9 -2.078729 -41.63896 -14.9 -2.078729 -37.93526 -17.45 -1.484315 -40.42127 -14.9 -0.8610377 -40.90901 -14.9 -1.59099 -34.38249 -17.45 -2.822461 -37.7 -17.45 0 -37.93499 -17.45 1.483502 -40.25 -14.9 0 -35.06501 -17.45 -1.483502 -40.42127 -14.9 0.8610377 -40.90901 -14.9 1.59099 -42.5 -14.9 2.25 -41.63896 -14.9 2.078729 -43.36104 -14.9 2.078729 -44.09099 -14.9 1.59099 -32.75 -14.9 0 -32.57873 -14.9 0.8610377 -32.57873 -14.9 -0.8610377 -32.09099 -14.9 -1.59099 -30.5 -14.9 -2.25 -31.36104 -14.9 -2.078729 -29.63896 -14.9 -2.078729 -28.42127 -14.9 -0.8610377 -28.90901 -14.9 -1.59099 -28.25 -14.9 0 -28.42127 -14.9 0.8610377 -28.90901 -14.9 1.59099 -30.5 -14.9 2.25 -29.63896 -14.9 2.078729 -31.36104 -14.9 2.078729 -32.09099 -14.9 1.59099 -28.90952 -14.5 -1.591504 -42.50032 -14.5 2.25 -30.50032 -14.5 2.25 -31.36072 -14.5 2.07886 -40.25 -14.5 0 -29.63993 -14.5 2.079125 -28.91003 -14.5 1.592011 -28.42153 -14.5 0.8616722 -28.25 -14.5 0 -28.42126 -14.5 -0.8610195 -41.63993 -14.5 2.079125 -40.91003 -14.5 1.592011 -40.42153 -14.5 0.8616722 -29.63928 -14.5 -2.07886 -44.57874 -14.5 0.8610195 -44.09048 -14.5 1.591504 -43.36072 -14.5 2.07886 -44.75 -14.5 0 -44.08996 -14.5 -1.592011 -44.57847 -14.5 -0.8616722 -32.57847 -14.5 -0.8616722 -32.75 -14.5 0 -40.42126 -14.5 -0.8610195 -30.49968 -14.5 -2.25 -31.36007 -14.5 -2.079125 -32.08996 -14.5 -1.592011 -40.90952 -14.5 -1.591504 -41.63928 -14.5 -2.07886 -42.49967 -14.5 -2.25 -43.36007 -14.5 -2.079125 -32.57874 -14.5 0.8610195 -32.09048 -14.5 1.591504 -23.36 -7.373498 -5.6 -22.27546 -7.000149 5.6 -22.27546 -7.000149 -5.6 -6.597074 0.4203059 5.6 -23.31615 -7.568633 -5.8 -6.597074 0.4203059 -5.6 -22.1899 -7.180924 -5.8 -23.36 -7.373498 5.6 -22.1899 -7.180924 5.8 -6.511514 0.2395309 5.8 -24.5 -7.5 -5.6 -24.5 -7.5 5.6 -23.31615 -7.568633 5.8 -28.50277 -7.5 -0.6489127 -24.5 -7.7 5.8 -42.7 -7.5 5.6 -42.5 -7.5 2.1 -41.26528 -7.5 1.698658 -40.50286 -7.5 0.6491745 -40.50277 -7.5 -0.6489127 -31.73504 -7.5 1.698427 -29.26528 -7.5 1.698658 -30.5 -7.5 2.1 -28.50286 -7.5 0.6491745 -24.5 -7.7 -5.8 -42.7 -7.5 -5.6 -42.7 -7.7 -5.8 -30.5 -7.5 -2.1 -29.26497 -7.5 -1.698427 -5.302028 1.292599 5.6 -5.166659 1.145374 5.8 -5.302028 1.292599 -5.6 -6.511514 0.2395309 -5.8 -4.324322 2.510027 5.6 -4.15135 2.409626 5.8 -4.324322 2.510027 -5.6 -2.494981 4.333021 5.6 -2.395026 4.159784 5.8 -5.166659 1.145374 -5.8 -2.494981 4.333021 -5.6 -4.15135 2.409626 -5.8 -0.06699526 -4.999551 -5.6 -0.1339785 -4.998205 -1.517301 -0.1339785 -4.998205 -5.6 -0.2037683 -4.996803 -1.508098 -0.06431543 -4.799569 -5.8 -0.2036411 -4.996804 -5.6 -0.1286193 -4.798276 -5.8 -0.06752192 -4.999544 -1.523053 -0.4783543 -4.725 -1.154849 0 -5 -5.6 0 -5 -1.524898 2.5 -4.330127 -5.6 0.7311726 -4.94625 -1.276706 0 -4.725 -1.25 1.256724 -4.839488 -0.5314924 0.8838835 -4.725 -0.8838835 1.279525 -4.833509 0.4561345 1.25 -4.725 0 0 -5 5.6 0.7524859 -4.943052 1.260522 0.8838835 -4.725 0.8838835 2.5 -4.330127 5.6 -1.84077e-5 -5 1.524966 -0.06699526 -4.999551 5.6 -0.06711 -4.999549 1.523071 0 -4.725 1.25 -0.1339785 -4.998205 5.6 -0.1339785 -4.998205 1.5173 -0.2036411 -4.996804 5.6 -0.2038006 -4.996802 1.508094 -0.1286193 -4.798276 5.8 -0.2009612 -4.796822 5.8 -0.06431543 -4.799569 5.8 0 -4.8 5.8 4.330127 -2.5 -5.6 4.330127 -2.5 5.6 4.15135 -2.409626 5.8 2.395026 -4.159784 5.8 5 0 -5.6 5 0 5.6 4.79999 -0.007374584 5.8 4.330127 2.5 -5.6 4.330127 2.5 5.6 4.159907 2.394822 5.8 2.5 4.330127 -5.6 2.5 4.330127 5.6 2.402695 4.155359 5.8 0 5 -5.6 0 5 5.6 0 4.8 5.8 -2.395333 4.159607 -5.8 0 4.8 -5.8 2.401266 4.15618 -5.8 4.157526 2.398954 -5.8 4.799995 -3.18895e-4 -5.8 2.400883 -4.156401 -5.8 4.157161 -2.399585 -5.8 0 -4.8 -5.8 -1.616173 -5.172719 -5.6 -2.867931 -5.689901 5.6 -2.867931 -5.689901 -5.6 -10.13932 -9.876457 -5.6 -1.66782 -4.979507 -5.8 -2.967724 -5.516576 -5.8 -1.657831 -5.184041 0.4151247 -1.616173 -5.172719 5.6 -2.967724 -5.516576 5.8 -1.686583 -5.192072 -0.3222832 -10.13932 -9.876457 5.6 -10.23911 -9.703132 5.8 -0.2733271 -4.996337 1.496586 -0.2733162 -4.996337 5.6 -1.66782 -4.979507 5.8 -0.7637588 -5.019517 1.342446 -1.175003 -5.075111 1.086171 -0.2733162 -4.796338 5.8 -0.4783543 -4.725 1.154849 -0.8838835 -4.725 0.8838835 -1.154849 -4.725 0.4783543 -1.25 -4.725 0 -1.203612 -5.080231 -1.062167 -1.154849 -4.725 -0.4783543 -0.2733162 -4.996337 -5.6 -0.7730948 -5.020411 -1.338142 -0.8838835 -4.725 -0.8838835 -0.2733161 -4.996337 -1.496589 -0.2009612 -4.796822 -5.8 -0.2733162 -4.796338 -5.8 -11.26409 -10.74886 5.6 -11.40713 -10.60909 5.8 -11.26409 -10.74886 -5.6 -10.23911 -9.703132 -5.8 -12.11015 -11.89357 5.6 -12.28574 -11.79783 5.8 -12.11015 -11.89357 -5.6 -13.94734 -13.7993 5.6 -14.0497 -13.62747 5.8 -11.40713 -10.60909 -5.8 -13.94734 -13.7993 -5.6 -12.28574 -11.79783 -5.8 -16.5 -14.5 -1.525 -16.5 -14.5 -5.6 -17.57858 -14.5 -1.078103 -14.0492 -13.62718 -5.8 -18.02499 -14.5 -0.001247227 -28.50277 -14.5 0.6489127 -42.5 -14.5 -2.1 -42.7 -14.5 -5.6 -16.5 -14.3 -5.8 -41.26528 -14.5 -1.698658 -40.50286 -14.5 -0.6491745 -30.5 -14.5 -2.1 -29.26528 -14.5 -1.698658 -28.50286 -14.5 -0.6491745 -15.77042 -14.44648 -1.277908 -16.5 -14.225 -1.25 -17.38388 -14.225 -0.8838835 -15.24633 -14.34028 -0.5406399 -15.61612 -14.225 -0.8838835 -15.21754 -14.33273 0.4455014 -15.25 -14.225 0 -16.5 -14.5 5.6 -15.74309 -14.44238 1.257047 -15.61612 -14.225 0.8838835 -16.5 -14.5 1.525 -42.7 -14.5 5.6 -17.57828 -14.5 1.078401 -16.5 -14.225 1.25 -16.5 -14.3 5.8 -42.7 -14.3 5.8 -47.55056 -14.5 -2.79857 -48.10924 -14.5 1.449177 -48.3 -14.5 0 -48.5 -14.3 0 -47.72294 -14.3 -2.9 -47.54893 -14.5 2.8014 -47.72294 -14.3 2.9 -45.5014 -14.5 -4.848928 -45.49857 -14.5 4.850563 -45.6 -14.3 5.022947 -43.73472 -14.5 1.698658 -44.14918 -14.5 -5.409243 -44.49723 -14.5 -0.6489127 -44.49714 -14.5 0.6491745 -17.90921 -14.5 0.5828837 -30.5 -14.5 2.1 -42.5 -14.5 2.1 -41.26496 -14.5 1.698427 -40.50277 -14.5 0.6489127 -32.49723 -14.5 -0.6489127 -31.73472 -14.5 1.698658 -32.49714 -14.5 0.6491745 -17.38388 -14.225 0.8838835 -17.75 -14.225 0 -29.26497 -14.5 1.698427 -43.73503 -14.5 -1.698427 -42.7 -14.3 -5.8 -45.6 -14.3 -5.022947 -42.5 -14.05 1.65 -41.86857 -14.05 1.524401 -43.66672 -14.05 1.166726 -43.13143 -14.05 1.524401 -44.15 -14.05 0 -44.0244 -14.05 0.6314277 -44.0244 -14.05 -0.6314277 -43.13143 -14.05 -1.524401 -43.66672 -14.05 -1.166726 -42.5 -14.05 -1.65 -41.33327 -14.05 -1.166726 -41.86857 -14.05 -1.524401 -40.85 -14.05 0 -40.9756 -14.05 -0.6314277 -40.9756 -14.05 0.6314277 -31.73504 -14.5 -1.698427 -41.33327 -14.05 1.166726 -30.5 -14.05 1.65 -29.86857 -14.05 1.524401 -31.66673 -14.05 1.166726 -31.13143 -14.05 1.524401 -32.15 -14.05 0 -32.0244 -14.05 0.6314277 -32.0244 -14.05 -0.6314277 -31.13143 -14.05 -1.524401 -31.66673 -14.05 -1.166726 -30.5 -14.05 -1.65 -29.33327 -14.05 -1.166726 -29.86857 -14.05 -1.524401 -28.85 -14.05 0 -28.9756 -14.05 -0.6314277 -28.9756 -14.05 0.6314277 -29.33327 -14.05 1.166726 -45.10832 -12.5 5.276357 -42.7 -12.5 5.8 -42.7 -12.5 -5.8 -16.5 -13.6 -5.8 -24.5 -12.5 -5.8 -18.91042 -12.81661 -5.8 -17.76692 -13.39935 -5.8 -47.08178 -12.5 -3.8 -45.10831 -12.5 -5.276359 -47.72294 -7.7 -2.9 -47.08178 -9.5 -3.8 -48.5 -7.7 0 -47.08178 -12.5 3.8 -47.72294 -7.7 2.9 -16.5 -13.6 5.8 -24.5 -12.5 5.8 -23.43938 -12.06071 5.8 -23.1139 -11.57334 5.8 -23.00001 -10.99881 5.8 -18.91091 -12.81625 5.8 -17.76754 -13.39915 5.8 -13.18291 -11.90975 5.8 -12.40001 -9.498757 5.8 -12.6004 -10.76614 5.8 -15.23308 -13.39935 5.8 -14.08958 -12.81661 5.8 -10.62745 -5.523096 5.8 -6.780075 -6.772195 5.8 -9.720268 -6.771947 5.8 -8.25 -7.25 5.8 -10.62755 -3.977212 5.8 -12.60085 -8.232489 5.8 -2.410908 -3.31625 5.8 -5.872446 -5.522788 5.8 -3.899153 -1.267511 5.8 -3.317409 -2.409314 5.8 -1.267544 -3.89915 5.8 -2.410417 3.31661 5.8 -4.099995 -0.001243829 5.8 -3.317092 2.40975 5.8 -3.899597 1.266143 5.8 0 -4.1 5.8 2.410417 -3.31661 5.8 1.266919 -3.899352 5.8 4.099995 0.001243829 5.8 3.317092 -2.40975 5.8 3.899597 -1.266143 5.8 3.317409 2.409314 5.8 3.899153 1.267511 5.8 1.267544 3.89915 5.8 2.410908 3.31625 5.8 0 4.1 5.8 -1.266919 3.899352 5.8 -5.872545 -3.976904 5.8 -17.76692 -5.600648 5.8 -9.719925 -2.727805 5.8 -8.25 -2.25 5.8 -6.779733 -2.728053 5.8 -20.39915 -10.76751 5.8 -18.91042 -6.18339 5.8 -19.81709 -7.09025 5.8 -20.3996 -8.233858 5.8 -20.6 -9.501244 5.8 -23.43908 -9.939597 5.8 -42.7 -7.7 5.8 -24.5 -9.5 5.8 -45.50037 -7.5 4.849517 -44.49723 -7.5 0.6489127 -43.73503 -7.5 1.698427 -45.6 -7.7 5.022947 -42.7 -9.5 5.8 -45.6 -7.7 -5.022947 -45.10832 -9.5 -5.276357 -42.7 -9.5 -5.8 -45.50083 -7.5 -4.849248 -43.73472 -7.5 -1.698658 -41.26496 -7.5 -1.698427 -32.49723 -7.5 0.6489127 -42.5 -7.5 -2.1 -31.73472 -7.5 -1.698658 -32.49714 -7.5 -0.6491745 -47.54961 -7.5 2.800223 -47.55013 -7.5 -2.799309 -44.49714 -7.5 -0.6491745 -48.3 -7.5 -1.97215e-4 -47.08178 -9.5 3.8 -45.10831 -9.5 5.276359 -24.5 -9.5 -5.8 -14.08909 -12.81625 -5.8 -15.23246 -13.39915 -5.8 -12.60085 -10.76751 -5.8 -13.18259 -11.90931 -5.8 -10.62745 -3.976904 -5.8 -12.40001 -9.501244 -5.8 -10.62755 -5.522788 -5.8 -6.779733 -6.771947 -5.8 -8.25 -7.25 -5.8 -9.719925 -6.772195 -5.8 -2.410417 -3.31661 -5.8 -3.317092 -2.40975 -5.8 -1.266919 -3.899352 -5.8 0 -4.1 -5.8 1.267544 -3.89915 -5.8 3.317409 -2.409314 -5.8 2.410908 -3.31625 -5.8 4.099995 -0.001243829 -5.8 3.899153 -1.267511 -5.8 2.410417 3.31661 -5.8 3.317092 2.40975 -5.8 3.899597 1.266143 -5.8 0 4.1 -5.8 1.266919 3.899352 -5.8 -1.267544 3.89915 -5.8 -3.317409 2.409314 -5.8 -2.410908 3.31625 -5.8 -5.872545 -5.523096 -5.8 -4.099995 0.001243829 -5.8 -3.899153 1.267511 -5.8 -5.872446 -3.977212 -5.8 -18.91091 -6.18375 -5.8 -6.780075 -2.727805 -5.8 -8.25 -2.25 -5.8 -9.720268 -2.728053 -5.8 -14.08958 -6.18339 -5.8 -15.23308 -5.600648 -5.8 -16.5 -5.4 -5.8 -17.76754 -5.600851 -5.8 -23.1139 -10.42666 -5.8 -23.00001 -11.00119 -5.8 -20.6 -9.498757 -5.8 -20.39915 -8.232489 -5.8 -19.81741 -7.090685 -5.8 -23.43938 -9.939294 -5.8 -24.5 -9.5 -3.8 -23.43908 -9.939597 -3.8 -23.00001 -10.99881 -3.8 -23.43908 -12.0604 -5.8 -23.1139 -11.57334 -3.8 -19.81709 -11.90975 -5.8 -23.43938 -12.06071 -3.8 -20.3996 -10.76614 -5.8 -24.5 -12.5 -3.8 -8.25 -2.25 -3.3 -9.719925 -2.727805 -3.3 -6.779733 -2.728053 -3.3 -5.872446 -5.522788 -3.3 -5.872545 -3.976904 -3.3 -3.899597 -1.266143 -5.8 -6.780075 -6.772195 -3.3 -8.25 -7.25 -3.3 -9.720268 -6.771947 -3.3 -10.62755 -3.977212 -3.3 -10.62745 -5.523096 -3.3 -13.18291 -7.09025 -5.8 -12.6004 -8.233858 -5.8 0 4.1 -5.3 -1.266919 3.899352 -5.3 1.267544 3.89915 -5.3 2.410908 3.31625 -5.3 3.317409 2.409314 -5.3 4.099995 0.001243829 -5.3 3.899153 1.267511 -5.3 3.899597 -1.266143 -5.3 3.317092 -2.40975 -5.3 2.410417 -3.31661 -5.3 1.266919 -3.899352 -5.3 0 -4.1 -5.3 -1.267544 -3.89915 -5.3 -2.410908 -3.31625 -5.3 -3.317409 -2.409314 -5.3 -4.099995 -0.001243829 -5.3 -3.899153 -1.267511 -5.3 -3.899597 1.266143 -5.3 -3.317092 2.40975 -5.3 -2.410417 3.31661 -5.3 -16.5 -5.4 -5.3 -17.76692 -5.600648 -5.3 -15.23246 -5.600851 -5.3 -14.08909 -6.18375 -5.3 -13.18259 -7.090685 -5.3 -12.40001 -9.498757 -5.3 -12.60085 -8.232489 -5.3 -12.6004 -10.76614 -5.3 -13.18291 -11.90975 -5.3 -14.08958 -12.81661 -5.3 -15.23308 -13.39935 -5.3 -16.5 -13.6 -5.3 -17.76754 -13.39915 -5.3 -18.91091 -12.81625 -5.3 -19.81741 -11.90931 -5.3 -20.6 -9.501244 -5.3 -20.39915 -10.76751 -5.3 -20.3996 -8.233858 -5.3 -19.81709 -7.09025 -5.3 -18.91042 -6.18339 -5.3 -24.5 -9.5 3.8 -24.5 -12.5 3.8 -23.43908 -12.0604 3.8 -23.00001 -11.00119 3.8 -23.1139 -10.42666 3.8 -19.81741 -11.90931 5.8 -23.43938 -9.939294 3.8 -8.25 -2.25 3.3 -6.780075 -2.727805 3.3 -9.720268 -2.728053 3.3 -10.62755 -5.522788 3.3 -16.5 -5.4 5.8 -15.23246 -5.600851 5.8 -13.18259 -7.090685 5.8 -14.08909 -6.18375 5.8 -10.62745 -3.976904 3.3 -9.719925 -6.772195 3.3 -8.25 -7.25 3.3 -6.779733 -6.771947 3.3 -5.872446 -3.977212 3.3 -5.872545 -5.523096 3.3 -16.5 -5.4 5.3 -15.23308 -5.600648 5.3 -17.76754 -5.600851 5.3 -18.91091 -6.18375 5.3 -19.81741 -7.090685 5.3 -20.6 -9.498757 5.3 -20.39915 -8.232489 5.3 -20.3996 -10.76614 5.3 -19.81709 -11.90975 5.3 -18.91042 -12.81661 5.3 -17.76692 -13.39935 5.3 -16.5 -13.6 5.3 -15.23246 -13.39915 5.3 -14.08909 -12.81625 5.3 -13.18259 -11.90931 5.3 -12.40001 -9.501244 5.3 -12.60085 -10.76751 5.3 -12.6004 -8.233858 5.3 -13.18291 -7.09025 5.3 -14.08958 -6.18339 5.3 0 4.1 5.3 1.266919 3.899352 5.3 -1.267544 3.89915 5.3 -2.410908 3.31625 5.3 -3.317409 2.409314 5.3 -4.099995 0.001243829 5.3 -3.899153 1.267511 5.3 -3.899597 -1.266143 5.3 -3.317092 -2.40975 5.3 -2.410417 -3.31661 5.3 -1.266919 -3.899352 5.3 0 -4.1 5.3 1.267544 -3.89915 5.3 2.410908 -3.31625 5.3 3.317409 -2.409314 5.3 4.099995 -0.001243829 5.3 3.899153 -1.267511 5.3 3.899597 1.266143 5.3 3.317092 2.40975 5.3 2.410417 3.31661 5.3 -8.25 -3.5 3.3 -7.365518 -3.866716 3.3 -9.5 -4.750687 3.3 -9.134169 -3.866402 3.3 -9.134483 -5.633284 3.3 -8.25 -6 3.3 -7 -4.749313 3.3 -7.365832 -5.633598 3.3 -8.25 -6 -3.3 -9.134169 -5.633598 -3.3 -7.365518 -5.633284 -3.3 -7 -4.750687 -3.3 -7.365832 -3.866402 -3.3 -8.25 -3.5 -3.3 -9.134483 -3.866716 -3.3 -9.5 -4.749313 -3.3 -16.5 -7.5 5.3 -15.32374 -7.88247 5.3 -18.40215 -8.882074 5.3 -17.67594 -7.882242 5.3 -18.40226 -10.11758 5.3 -17.67626 -11.11753 5.3 -16.5 -11.5 5.3 -14.59786 -10.11793 5.3 -15.32406 -11.11776 5.3 -14.59774 -8.882421 5.3 -16.5 -11.5 1.25 -17.20365 -11.3721 1.033137 -15.30353 -11.1026 0.3618912 -15.76489 -11.35994 1.010999 -14.59774 -10.11758 -5.3 -15.30423 -11.10315 -0.3641979 -15.32374 -11.11753 -5.3 -14.59786 -8.882074 -5.3 -15.32406 -7.882242 -5.3 -16.5 -7.5 -5.3 -17.67626 -7.88247 -5.3 -18.40226 -8.882421 -5.3 -18.40215 -10.11793 -5.3 -17.69577 -11.10314 0.3642092 -15.79592 -11.37195 -1.032848 -16.5 -11.5 -5.3 -16.5 -11.5 -1.25 -17.67594 -11.11776 -5.3 -17.23577 -11.35968 -1.010516 -17.69653 -11.10256 -0.3617005 0 2 5.3 1.176256 1.61753 5.3 -1.902145 0.6179266 5.3 -1.175944 1.617758 5.3 -1.902257 -0.6175798 5.3 -1.176256 -1.61753 5.3 0 -2 5.3 1.902145 -0.6179266 5.3 1.175944 -1.617758 5.3 1.902257 0.6175798 5.3 0 -2 1.25 -0.7036527 -1.872103 1.033137 1.196468 -1.602605 0.3618912 0.7351067 -1.859945 1.010999 1.902257 -0.6175798 -5.3 1.195767 -1.603145 -0.3641979 1.176256 -1.61753 -5.3 1.902145 0.6179266 -5.3 1.175944 1.617758 -5.3 0 2 -5.3 -1.176256 1.61753 -5.3 -1.902257 0.6175798 -5.3 -1.902145 -0.6179266 -5.3 -1.195764 -1.603137 0.3642092 0.7040774 -1.87195 -1.032848 0 -2 -5.3 0 -2 -1.25 -1.175944 -1.617758 -5.3 -0.7357704 -1.859682 -1.010516 -1.196525 -1.602561 -0.3617005 -42.5 -7.95 1.65 -43.13143 -7.95 1.524401 -41.33327 -7.95 1.166726 -41.86857 -7.95 1.524401 -40.85 -7.95 0 -40.9756 -7.95 0.6314277 -40.9756 -7.95 -0.6314277 -41.86857 -7.95 -1.524401 -41.33327 -7.95 -1.166726 -42.5 -7.95 -1.65 -43.66672 -7.95 -1.166726 -43.13143 -7.95 -1.524401 -44.15 -7.95 0 -44.0244 -7.95 -0.6314277 -44.0244 -7.95 0.6314277 -43.66672 -7.95 1.166726 -30.5 -7.95 1.65 -31.13143 -7.95 1.524401 -29.33327 -7.95 1.166726 -29.86857 -7.95 1.524401 -28.85 -7.95 0 -28.9756 -7.95 0.6314277 -28.9756 -7.95 -0.6314277 -29.86857 -7.95 -1.524401 -29.33327 -7.95 -1.166726 -30.5 -7.95 -1.65 -31.66673 -7.95 -1.166726 -31.13143 -7.95 -1.524401 -32.15 -7.95 0 -32.0244 -7.95 -0.6314277 -32.0244 -7.95 0.6314277 -31.66673 -7.95 1.166726</float_array>
          <technique_common>
            <accessor source="#finger-mesh-positions-array" count="748" stride="3">
              <param name="X" type="float"/>
              <param name="Y" type="float"/>
              <param name="Z" type="float"/>
            </accessor>
          </technique_common>
        </source>
        <source id="finger-mesh-normals">
          <float_array id="finger-mesh-normals-array" count="3300">0 -1 0 0 0 1 -0.7071068 0.7071068 0 0.7028062 -0.7113814 0 0 0 -1 0 1 0 -0.7071069 0.7071067 0 -0.707106 -0.7071076 0 -0.7071073 -0.7071064 0 -0.8258416 0 -0.5639023 -0.8259193 4.29165e-5 -0.5637883 -1 0 0 -0.8258414 0 0.5639025 -0.8258416 0 0.5639021 -0.8259195 -4.29165e-5 0.5637883 -0.5504522 4.28863e-5 -0.8348668 0 1 0 -0.5506833 -4.29267e-5 -0.8347143 -0.1930381 -4.32908e-5 -0.9811913 0 1 1.44661e-7 -0.1931741 0 -0.9811645 1 0 0 0.1305617 0 0.9914402 0.3828482 -3.94966e-5 0.9238113 0.2586741 0.02449333 0.9656541 0.7072557 -7.89106e-5 0.7069579 0.7069579 7.89105e-5 0.7072557 0.9656539 -0.02449315 0.2586751 0.9238123 3.86563e-5 0.3828457 0.9914402 0 0.1305623 0 1 -2.70228e-7 0.9914402 0 -0.1305622 0 1 -5.37931e-7 0.9238124 -3.86563e-5 -0.3828457 0 1 1.50176e-7 0.9656539 0.02449357 -0.2586752 0 1 2.8908e-7 0.7069581 -7.89105e-5 -0.7072556 0.7072554 7.92594e-5 -0.7069581 0.2586741 -0.02449333 -0.9656541 0.3828482 3.95655e-5 -0.9238114 0.1305617 0 -0.9914402 -0.1931741 0 0.9811645 -0.5506835 4.28863e-5 0.8347142 -0.5504521 -4.28863e-5 0.8348668 -0.193038 4.32737e-5 0.9811913 0 -1 -2.3815e-6 0 -1 -6.94854e-7 0 -1 1.50146e-7 0 -1 -4.60745e-7 0 -1 6.00873e-7 0 -1 -5.7417e-7 0 -1 1.22073e-7 0 -1 2.14106e-6 0 -1 -3.67247e-7 0 -1 4.7754e-6 0 -1 -2.40184e-6 0 -1 8.51702e-7 0 -1 -1.25284e-6 0 -1 3.96184e-6 0.7027114 -0.7027134 0.111313 0.6979866 -0.7075142 -0.1106278 0.7002155 -0.7002133 -0.1392825 0.6364662 -0.6997547 0.324429 0.6921716 -0.7084788 0.1376825 0.4326646 -0.6765658 0.5958692 0.5834032 -0.7125191 0.389817 -7.58303e-5 -0.6722199 0.7403516 0.4035663 -0.6872717 0.6039801 0.1376761 -0.7085051 0.6921459 -0.4297741 -0.6819131 0.591852 -0.1376794 -0.7084883 0.6921624 0 -1 -5.68045e-7 -0.6364073 -0.6997603 0.3245328 -0.4127689 -0.6693304 0.6177529 -0.5834092 -0.7125141 0.3898172 -0.6979866 -0.7075142 0.1106278 -0.7027121 -0.7027128 -0.1113131 -0.7002155 -0.7002133 0.1392825 0 -1 -7.58198e-7 -0.6364656 -0.6997555 -0.3244287 -0.6921704 -0.70848 -0.1376823 -0.4326646 -0.6765658 -0.5958692 -0.5834055 -0.712517 -0.3898174 7.58303e-5 -0.6722193 -0.740352 -0.1376761 -0.7085051 -0.6921459 -0.4035649 -0.6872743 -0.603978 0.4297741 -0.6819131 -0.591852 0.137679 -0.708491 -0.6921597 0.6364079 -0.6997595 -0.3245331 0.5834079 -0.7125149 -0.3898176 0.4127696 -0.669329 -0.6177539 0.7027121 -0.7027128 0.1113131 0.6364668 -0.6997539 0.3244293 0.4326646 -0.6765665 0.5958684 -7.58302e-5 -0.6722199 0.7403515 0.4035648 -0.6872741 0.6039783 0.1376762 -0.7085053 0.6921455 -0.4297735 -0.6819136 0.5918519 -0.6364077 -0.6997607 0.3245308 -0.41277 -0.6693283 0.6177545 -0.5834067 -0.7125158 0.389818 -0.6979879 -0.7075127 0.1106291 -0.702712 -0.7027127 -0.111314 -0.7002145 -0.7002148 0.1392799 -0.6364664 -0.699755 -0.3244281 -0.6921694 -0.7084814 -0.1376796 -0.4326644 -0.6765669 -0.5958681 -0.5834049 -0.7125164 -0.3898194 7.58303e-5 -0.6722195 -0.740352 -0.4035666 -0.6872722 -0.6039792 0.4297739 -0.6819135 -0.5918518 0.6364085 -0.6997588 -0.3245335 0 1 4.0803e-5 0 1 1.18145e-6 0.9807875 0 -0.1950793 0.9807571 -3.03933e-4 0.1952322 0.9807849 0 0.1950923 0 1 -2.20786e-6 0.8313823 0 -0.5557011 0.9807851 3.25892e-5 -0.195091 0 1 1.35505e-6 0.555369 -1.73883e-4 -0.8316041 0.8314712 -3.58482e-4 -0.5555678 0.5555682 3.57663e-4 -0.8314709 0.1950865 1.63068e-4 -0.980786 -0.194796 -1.60359e-4 -0.9808438 0.1950906 1.60231e-4 -0.9807853 -0.5551101 -5.1623e-4 -0.8317767 -0.1950895 4.96984e-4 -0.9807853 -0.8312019 -7.16352e-4 -0.5559704 -0.5555699 7.00667e-4 -0.8314695 -0.9807562 -3.14788e-4 -0.1952361 -0.83147 3.36755e-4 -0.5555697 -0.9807873 0 0.1950806 -0.9807855 0 -0.1950898 -0.831381 0 0.555703 -0.9807855 3.25892e-5 0.1950898 -0.555369 -1.68449e-4 0.8316041 -0.5555703 3.5305e-4 0.8314697 -0.8314695 -3.4748e-4 0.5555704 -0.1950865 1.65785e-4 0.980786 0.194796 -1.60359e-4 0.9808438 -0.1950906 1.56157e-4 0.9807853 0.5551101 -5.1623e-4 0.8317767 0.1950899 5.00411e-4 0.9807853 0.8312018 -6.94644e-4 0.5559704 0.5555679 6.94512e-4 0.8314709 0.8314715 3.41911e-4 0.5555675 0.9807571 -3.25643e-4 0.1952322 0.9807849 0 0.1950923 0.8313823 2.1708e-5 -0.5557011 0.9807851 2.17261e-5 -0.195091 0.8314712 -3.69345e-4 -0.5555678 0.5555682 3.76673e-4 -0.831471 -0.194796 -1.63077e-4 -0.9808438 0.1950906 1.57515e-4 -0.9807853 -0.5551101 -5.10796e-4 -0.8317767 -0.1950895 4.997e-4 -0.9807853 -0.8312018 -7.05498e-4 -0.5559704 -0.5555674 7.06096e-4 -0.8314712 -0.9807571 -3.25643e-4 -0.1952322 -0.8314712 3.47619e-4 -0.5555678 -0.9807875 0 0.1950793 -0.9807849 0 -0.1950923 -0.8313823 1.0854e-5 0.5557011 -0.9807851 2.17261e-5 0.195091 -0.555369 -1.73883e-4 0.8316041 -0.5555677 3.69342e-4 0.8314712 -0.8314707 -3.66491e-4 0.5555686 0.194796 -1.63077e-4 0.9808438 -0.1950906 1.53442e-4 0.9807853 0.5551101 -5.10796e-4 0.8317767 0.1950899 5.03127e-4 0.9807853 0.5555679 7.08091e-4 0.8314709 0.8314715 3.40553e-4 0.5555675 -0.3254989 0.9455425 0 -0.4277969 0.9038749 0 -0.2308657 0.670642 -0.70494 -0.3024986 0.6391375 -0.7071053 -0.2308682 0.6706419 -0.7049393 -0.325501 0.9455417 0 -0.2308671 0.6706432 0.7049384 -0.3025 0.6391372 0.707105 -0.3024983 0.6391368 0.7071061 -0.1102887 0.9938996 0 -0.07822418 0.7049401 0.7049401 -0.2308664 0.6706396 0.7049421 -0.07822352 0.7049416 0.7049387 0 0.7071058 0.7071079 0 1 -7.4182e-7 0 1 7.34533e-7 0 1 -8.85856e-7 -0.07822388 0.7049431 -0.7049372 0 0.7071059 -0.7071076 0 0.7071087 -0.7071049 0 1 4.78354e-7 -0.07822382 0.7049387 -0.7049415 -0.5586528 0.8294017 0 -0.3972722 0.5898096 0.7030644 -0.3972745 0.5898082 0.7030642 -0.5586529 0.8294015 0 -0.3972719 0.5898092 -0.7030648 -0.3024994 0.6391367 -0.7071056 -0.7796921 0.6261631 0 -0.5544589 0.4452816 0.7030645 -0.7796918 0.6261637 0 -0.7058769 0.7083346 0 -0.5076036 0.509371 0.6948956 -0.5076591 0.5094465 0.6947996 -0.5544588 0.4452818 0.7030645 -0.5544568 0.4452822 -0.7030657 -0.3972734 0.589809 -0.7030642 -0.5076678 0.5094354 -0.6948015 -0.5544607 0.4452812 -0.7030633 -0.02009928 -0.999798 0 -0.02008336 -0.9997984 0 -0.01420992 -0.7069706 -0.7071002 -0.02009958 -0.9997981 -4.18117e-7 -0.01421755 -0.7069736 -0.707097 -0.014207 -0.7069728 -0.7070981 -0.02015101 -0.999797 -8.798e-7 0.03832912 -0.7801259 0.6244473 0.06925743 -0.7639014 0.641606 -0.00675106 -0.9999773 0 0.01117932 -0.7956121 0.6057034 -0.006697356 -0.9999777 8.72873e-7 0.1059069 -0.9895654 -0.09769415 -0.1848545 -0.6947906 0.6950504 0.2588189 -0.9659259 0 0.1393063 -0.7000819 0.7003422 0.2482424 -0.9680142 -0.03638815 -0.6697722 -0.504731 0.5446577 -0.2249571 -0.8089768 0.5430937 0.3689881 -0.9294297 -0.002893805 -0.9854618 -0.1682257 0.02376979 -0.4428725 -0.8776177 0.1834424 0.2473562 -0.9684545 0.03018355 -0.7000831 -0.4843718 -0.5246595 0.2586772 -0.9653967 0.03309851 0.3812897 -0.9244557 0 -0.4374806 -0.8807802 -0.1812096 0.07546168 -0.9971488 -3.10112e-7 -0.1223028 -0.8398357 -0.5288841 -0.006716191 -0.9999775 -2.17906e-7 0.01521718 -0.7069814 -0.7070685 -0.006697356 -0.9999777 0 -0.281104 -0.6785411 -0.6786476 -0.02010524 -0.9997979 0 0.04635494 -0.7101106 -0.7025626 -0.02009928 -0.9997981 0 -0.02009952 -0.999798 0 -0.02008098 -0.9997984 4.17164e-7 0.07705575 -0.7163114 -0.6935131 -0.01420998 -0.7069722 0.7070986 -0.01421755 -0.7069735 0.7070971 -0.01421284 -0.7069715 0.7070993 -0.00473833 -0.7070991 0.7070986 -0.014207 -0.7069706 0.7071003 0.1861562 -0.6947459 0.6947475 -0.00474441 -0.7070991 0.7070986 0.7071067 -0.7071068 0 0.512242 -0.5122447 0.6893573 0.7071068 -0.7071067 0 0.1864456 -0.6974853 0.6919194 0.5057036 -0.5074825 0.6976571 0.9659259 -0.2588189 0 0.6980497 -0.1870419 0.6911888 0.9659258 -0.2588191 0 0.6892529 -0.1861075 0.7002103 0.9659258 0.2588191 0 0.6974296 0.1868758 0.6918594 0.9659259 0.2588189 0 0.6915743 0.1842751 0.6984037 0.7071068 0.7071067 0 0.5096076 0.5096078 0.6932533 0.7071067 0.7071068 0 0.5070472 0.5060889 0.6976943 0.258819 0.9659259 0 0.1857783 0.6933376 0.696254 -0.2582594 0.9660757 0 -0.1857395 0.6948013 0.6948036 0.1863922 0.6947139 0.6947162 -0.1857488 0.6948788 0.6947236 -0.1857162 0.6947141 -0.694897 -0.50773 0.5094794 -0.6947238 0.1861562 0.6947459 -0.6947475 -0.185756 0.6948006 -0.6947999 0.5090599 0.5090627 -0.6940557 0.1860811 0.6940301 -0.6954827 0.695287 0.1863026 -0.6941667 0.5083166 0.5080336 -0.6953533 0.69488 -0.1861937 -0.6946033 0.6946133 0.1860001 -0.6949219 0.5089132 -0.5089161 -0.6942707 0.5085008 -0.5083444 -0.6949914 0.6949677 -0.1862016 -0.6945134 0.1860278 -0.694269 -0.6952586 -0.00473833 -0.7070991 -0.7070987 0.1862381 -0.6947388 -0.6947327 -0.00474441 -0.7070991 -0.7070986 0.3818552 -0.9242222 0 0.4989645 -0.8666226 0 0.2711681 -0.6563203 -0.7040679 0.3528214 -0.6127961 -0.7071055 0.2711626 -0.656314 -0.7040759 0.381855 -0.9242218 -0.001049876 0.2711635 -0.6563125 0.7040769 0.3699257 -0.9290514 -0.004304885 0.3965079 -0.9180293 0.001923501 0.4989644 -0.8666226 0 0.3528199 -0.6127965 0.7071058 0.3528241 -0.6127955 0.7071046 0.1302298 -0.9914839 -3.43195e-7 0.0924803 -0.7040852 0.7040678 0.05500572 -0.9981755 -0.02490544 0.1387646 -0.9902944 -0.007851779 0.2195926 -0.9755917 3.6589e-4 0.2711662 -0.6563212 0.7040678 -0.0066998 -0.9999777 -2.09058e-7 -0.004735112 -0.7071021 0.7070956 -0.006686747 -0.9999777 0 0.09248101 -0.7040754 0.7040776 -0.004729807 -0.7070976 0.7071002 0.107601 -0.7258275 -0.6794089 0.2488346 -0.6802747 -0.6894257 0.1320295 -0.736204 -0.6637559 0.4452459 -0.6958284 -0.5635415 0.3797256 -0.7299621 -0.5682992 0.6528631 -0.6655346 -0.3617091 0.5843128 -0.7114398 -0.3904254 0.7377097 -0.6747784 -0.02141523 0.6771486 -0.723414 -0.1346927 0.2247641 -0.9744131 -5.74262e-4 0.6748461 -0.6541138 0.3416402 0.6759386 -0.7245893 0.1344525 0.1447773 -0.9893988 0.01138973 0.455525 -0.6914243 0.5607402 0.1302252 -0.9914492 0.008367657 0.5799965 -0.7165303 0.3875417 0.04811179 -0.9988421 0 0.2514117 -0.6788805 0.6898648 0.3793061 -0.730667 0.567673 -0.006691515 -0.9999777 0 0.1035247 -0.7477713 0.6558358 -0.0066998 -0.9999776 0 -0.004735112 -0.7071006 -0.7070972 -0.01421284 -0.7069718 -0.7070989 0.09247916 -0.7040764 -0.7040768 -0.004729807 -0.7070991 -0.7070987 0.09248208 -0.7040835 -0.7040694 0.6128829 -0.7901738 0 0.4354246 -0.5613811 0.7037448 0.43542 -0.5613701 0.7037563 0.6128833 -0.7901735 0 0.4354175 -0.5613709 -0.7037573 0.3528228 -0.6127951 -0.7071055 0.8041865 -0.5943771 0 0.5713245 -0.4222705 0.7037585 0.8041856 -0.5943783 0 0.7199322 -0.6940445 0 0.5181278 -0.4995013 0.6942925 0.518217 -0.4996092 0.6941483 0.5713322 -0.4222764 0.7037486 0.5713322 -0.4222762 -0.7037489 0.435427 -0.5613795 -0.7037446 0.7199327 -0.6940439 0 0.5182269 -0.4995937 -0.6941521 0.5713255 -0.4222713 -0.7037572 0.2647083 -0.9643286 0 0.1905055 -0.6940143 -0.6942995 0 -0.7071039 -0.7071098 0.1905694 -0.6941553 -0.6941411 0.1073508 -0.9888927 -0.1027958 -0.1843973 -0.6949869 0.6949754 0.2812147 -0.6784383 0.6787045 0.2810845 -0.6785957 0.678601 0.250882 -0.9672315 -0.03900939 -0.6656404 -0.5083087 0.5463929 -0.2248702 -0.8091406 0.5428857 0.3719633 -0.9282398 -0.003754198 -0.9845764 -0.1723532 0.03006517 -0.4441208 -0.8768784 0.1839593 0.249174 -0.9679757 0.03058242 -0.7035901 -0.4833036 -0.5209403 0.2645502 -0.9637529 0.03454661 0.3872031 -0.9219946 0 -0.4373288 -0.8808684 -0.1811476 0.07591092 -0.9971146 0 -0.1240141 -0.8384819 -0.5306304 0 -1 -3.79221e-6 0.2810621 -0.6786041 -0.6786019 -0.281085 -0.6785996 -0.6785969 0.1905445 -0.6941542 0.694149 0 -0.7071039 0.7071098 0 -0.707108 0.7071056 0.1905615 -0.6942914 0.694007 0.5183437 -0.4996749 -0.6940065 -0.7040567 -0.7040705 0.09267562 -0.695523 -0.6939421 -0.1862582 -0.6947543 -0.6947389 -0.186157 -0.6556891 -0.7044533 0.2716938 -0.9658581 -0.01184105 0.2588015 -0.5078828 -0.6955629 0.5081803 -0.5091154 -0.6939765 0.5091152 -0.1862547 -0.6939462 0.6955199 0 -1 6.22223e-7 -0.1861565 -0.6947444 0.6947489 0.5937289 -0.7001848 -0.396519 0.2810655 -0.6786496 -0.6785551 0.7005817 -0.6999294 -0.1388674 0.5509674 -0.8027148 -0.2282189 0.6779749 -0.6792328 0.2810567 0.67843 -0.678795 0.2810159 -0.09267628 -0.7040613 -0.7040659 0 -0.707108 -0.7071056 -0.2716919 -0.7044554 -0.6556876 -0.2588018 -0.01183474 -0.9658581 -0.5081729 -0.6955732 -0.5078762 -0.5091167 -0.6939746 -0.5091165 0.2240021 -0.6891359 -0.6891407 -0.2435173 -0.6162706 -0.7489392 -0.1392819 -0.7002145 -0.7002145 0.6265271 -0.6326906 -0.4551556 0.3799536 -0.7295774 -0.5686406 0.1642193 -0.5398621 -0.8255792 0.7917516 -0.6108433 -5.1705e-5 0.6804633 -0.7201731 -0.1353527 0.6194427 -0.6670646 -0.4139028 0.6095395 -0.6576519 0.4426687 0.6804329 -0.7202031 0.1353467 0.2435165 -0.6162738 0.7489368 0.3799592 -0.7295702 0.5686461 0.6547675 -0.6163356 0.4375044 -0.2240021 -0.6891359 0.6891407 0.1392819 -0.7002145 0.7002145 -0.6265311 -0.6326845 0.4551585 -0.1642187 -0.5398586 0.8255816 -0.3799511 -0.7295816 0.5686368 0 -1 5.87568e-7 -0.7917466 -0.6108497 5.17047e-5 -0.6804589 -0.7201775 0.1353518 -0.6194421 -0.6670655 0.4139024 -0.6095395 -0.6576519 -0.4426687 0 -1 -2.05845e-6 -0.6804286 -0.7202072 -0.1353458 -0.3799598 -0.7295691 -0.5686471 -0.6547717 -0.6163292 -0.4375072 0.2240017 -0.6891372 -0.6891396 -0.2435161 -0.6162754 -0.7489356 0.6265264 -0.6326898 -0.4551576 0.3799531 -0.7295764 -0.5686423 0.1642198 -0.5398582 -0.8255817 0.6804589 -0.7201775 -0.1353518 0.6194425 -0.6670681 -0.4138978 0.6804317 -0.7202042 0.1353465 0.2435169 -0.6162722 0.748938 0.3799595 -0.7295662 0.568651 0.6547767 -0.6163235 0.4375076 -0.2240017 -0.6891372 0.6891396 0.1392815 -0.7002169 0.7002122 -0.6265283 -0.6326867 0.455159 -0.1642188 -0.5398581 0.8255819 -0.3799518 -0.7295785 0.5686405 -0.7917416 -0.6108562 5.2997e-5 -0.6804544 -0.720182 0.135351 -0.6194441 -0.6670689 0.4138939 -0.6095376 -0.6576547 -0.4426673 -0.6804298 -0.7202061 -0.1353461 -0.3799589 -0.7295672 -0.5686501 -0.6547754 -0.6163275 -0.4375041 -0.2582692 -0.06514847 0.9638738 -0.212467 0 0.9771683 -0.2588194 0 -0.9659258 0 0 -1 -0.7034795 -0.1011567 -0.7034799 -0.2117974 -0.0792827 -0.9740926 -0.598254 0.05083364 -0.7996926 -0.9659258 0 -0.2588194 -0.8144565 0 -0.5802248 -0.8144564 0 -0.5802249 -0.9659258 0 0.2588194 -0.7034795 -0.1011567 0.7034799 -0.8144564 0 0.5802249 -0.5982541 0.05083286 0.7996925 3.51685e-7 0 1 -1.32082e-6 0 1 4.96285e-7 0 1 -1.69827e-7 0 1 1.23636e-6 0 1 -7.18261e-7 0 1 3.72359e-7 0 1 2.70861e-6 0 1 -3.37196e-6 0 1 6.65395e-7 0 1 -2.95585e-6 0 1 3.32663e-6 0 1 -1.07483e-6 0 1 0 0 1 -2.49601e-7 0 1 6.16108e-7 0 1 -1.42679e-5 0 1 1.07483e-6 0 1 0 0 1 2.49601e-7 0 1 -3.0521e-7 0 1 -6.74269e-7 0 1 -4.2467e-7 0 1 8.37436e-7 0 1 -2.24015e-7 0 1 2.99014e-7 0 1 0 0.7071089 0.7071047 -3.25698e-6 0 1 -0.1861868 0.6947426 0.6947426 -0.1860992 0.6949735 0.694535 -0.2588192 0 0.9659259 -0.1861565 0.6947444 -0.6947489 -0.2582694 0.06514853 -0.9638738 -0.212467 0 -0.9771683 -0.1860957 0.6952416 -0.6942676 0 1 -1.65534e-6 0 1 1.05361e-6 -0.508382 0.6951693 -0.50822 -0.5088984 0.6942929 -0.5089007 -0.6948475 0.6946488 -0.1861454 -0.6951068 0.6943599 -0.1862549 -0.6946147 0.6948865 0.1861274 -0.6946659 0.6948331 0.1861355 -0.508728 0.6945545 0.508714 -0.5086663 0.6946346 0.5086664 -0.7034795 0.1011567 0.7034799 -0.2117976 0.07928276 0.9740924 -0.5982542 -0.0508337 0.7996924 -0.8144565 0 0.5802247 -0.7034795 0.1011567 -0.7034799 -0.5982543 -0.05083292 -0.7996923 3.91596e-7 0 -1 -7.1019e-7 0 -1 7.96933e-7 0 -1 9.73086e-7 0 -1 -3.14777e-6 0 -1 -5.58447e-7 0 -1 4.18616e-7 0 -1 3.72466e-7 0 -1 1.55298e-7 0 -1 -7.62923e-7 0 -1 6.6558e-7 0 -1 -3.77021e-6 0 -1 -1.01775e-6 0 -1 -4.21562e-6 0 -1 4.24072e-6 0 -1 -3.53987e-7 0 -1 1.07483e-6 0 -1 2.53467e-6 0 -1 6.18508e-7 0 -1 3.44241e-6 0 -1 1.26757e-6 0 -1 2.96514e-7 0 -1 -1.72172e-6 0 -1 2.83682e-7 0 -1 4.3115e-7 0 -1 3.54234e-7 0 -1 -1.07483e-6 0 -1 -3.24482e-7 0 -1 3.47592e-6 0 -1 3.05185e-7 0 -1 -3.49795e-6 0 -1 4.24792e-7 0 -1 6.74169e-7 0 -1 -1.44616e-7 0 -1 -7.42592e-7 0 -1 0 -1 8.38395e-7 -0.3826607 -0.9238891 0 -0.8315991 -0.5553765 4.19024e-5 -0.3827939 -0.9238339 -8.22141e-5 -0.9809115 -0.1944547 2.31817e-4 -0.9222832 -0.3823115 -0.05684846 5.06618e-7 0 -1 -0.9222832 0.3823115 0.05684846 -0.9809115 0.1944547 -2.31817e-4 -0.3827937 0.9238339 8.22141e-5 0 0 -1 -0.8315989 0.5553767 -4.19024e-5 0 0 -1 -0.3826608 0.9238889 0 0 1 7.9767e-7 -0.3091325 -0.951019 0 0.3092125 -0.950993 5.19389e-5 0.3091326 -0.951019 0 -0.8090534 -0.5877352 5.23684e-5 -0.3092126 -0.950993 -5.19389e-5 -1 6.46524e-5 3.98557e-5 -1 -6.46524e-5 -3.98556e-5 -0.8090653 -0.5877189 4.01086e-5 -0.8090652 0.5877189 -3.97886e-5 -8.05473e-7 0 -1 1.1375e-6 0 -1 -0.3092124 0.950993 5.2309e-5 -0.8090536 0.5877349 -5.2454e-5 0.3091324 0.9510191 0 -0.3091323 0.951019 0 0.809054 0.5877345 5.23684e-5 0.3092124 0.950993 -5.23946e-5 1 -6.41589e-5 3.96649e-5 1 6.41589e-5 -3.96649e-5 0.8090649 0.5877193 3.99793e-5 7.79587e-6 0 -1 0.8090647 -0.5877197 -4.02829e-5 -5.37643e-7 0 -1 0.809054 -0.5877344 -5.23306e-5 -0.156425 -0.9876899 0 0.1565038 -0.9876773 2.06584e-4 0.1564247 -0.9876899 0 -0.4540526 -0.8909749 2.06574e-4 -0.1565034 -0.9876775 -2.06584e-4 -0.7071797 -0.7070339 1.85177e-4 -0.4541919 -0.8909038 -1.95048e-4 -0.8910669 -0.4538722 1.69422e-4 -0.7072759 -0.7069376 -1.66794e-4 -0.9877287 -0.1561785 7.77011e-4 -0.987654 -0.1566507 -4.48303e-4 -0.8910175 -0.453969 4.51237e-4 -0.987654 0.156651 4.48304e-4 -0.9877287 0.156178 -7.77009e-4 -0.8910174 0.4539692 -4.51363e-4 -0.7072767 0.7069368 1.66594e-4 -0.8910671 0.4538717 -1.69249e-4 -0.4541919 0.8909038 1.94692e-4 -0.7071785 0.7070351 -1.85534e-4 -0.1565038 0.9876773 2.06584e-4 -0.4540529 0.8909748 -2.06526e-4 0.156425 0.9876899 0 -0.1564247 0.9876899 0 0.4540526 0.8909749 2.06574e-4 0.1565034 0.9876775 -2.06537e-4 0.7071797 0.7070339 1.85177e-4 0.4541919 0.8909038 -1.95048e-4 0.8910669 0.4538722 1.69422e-4 0.7072759 0.7069376 -1.66794e-4 0.9877287 0.1561785 7.77011e-4 0.987654 0.1566507 -4.48303e-4 0.8910175 0.453969 4.51237e-4 0.987654 -0.156651 4.48304e-4 0.9877287 -0.156178 -7.77009e-4 0.8910174 -0.4539692 -4.51363e-4 0.7072767 -0.7069368 1.66594e-4 0.8910671 -0.4538717 -1.69249e-4 0.4541919 -0.8909038 1.94692e-4 0.7071785 -0.7070351 -1.85534e-4 0.4540529 -0.8909748 -2.06526e-4 -0.1564251 -0.9876899 0 0.1565038 -0.9876773 2.03612e-4 0.1564251 -0.9876899 0 -0.4540528 -0.8909748 2.06574e-4 -0.1565038 -0.9876773 -2.03612e-4 -0.7071797 -0.7070339 1.85921e-4 -0.4541919 -0.890904 -1.94031e-4 -0.8910675 -0.453871 1.70908e-4 -0.7072758 -0.7069379 -1.64733e-4 -0.9877287 -0.1561785 7.77057e-4 -0.9876543 -0.1566494 -4.47791e-4 -0.8910168 -0.4539704 4.52701e-4 -0.9876542 0.1566499 4.47048e-4 -0.9877286 0.1561782 -7.76684e-4 -0.8910169 0.4539701 -4.52479e-4 -0.7072764 0.7069372 1.69569e-4 -0.8910674 0.4538713 -1.7202e-4 -0.4541916 0.8909041 1.93205e-4 -0.7071787 0.7070349 -1.88237e-4 -0.1565038 0.9876773 2.02126e-4 -0.454053 0.8909747 -2.06603e-4 0.1564255 0.9876899 0 -0.1564255 0.9876899 0 0.4540516 0.8909754 2.08059e-4 0.1565037 0.9876773 -2.07798e-4 0.7071797 0.7070339 1.87409e-4 0.4541924 0.8909037 -1.95124e-4 0.8910671 0.4538716 1.69422e-4 0.7072761 0.7069374 -1.69465e-4 0.9877287 0.1561785 7.76686e-4 0.9876543 0.1566494 -4.48535e-4 0.8910168 0.4539704 4.52007e-4 0.9876542 -0.1566499 4.49652e-4 0.9877286 -0.1561782 -7.77056e-4 0.8910169 -0.4539701 -4.52479e-4 0.7072764 -0.7069372 1.66594e-4 0.8910672 -0.4538716 -1.69317e-4 0.4541916 -0.890904 1.94692e-4 0.7071791 -0.7070345 -1.83378e-4 0.4540519 -0.8909752 -2.06302e-4 0 1 -4.57688e-7 0 -1 2.6589e-7 0 -1 -4.57688e-7 0 1 1.51248e-6 -0.3826607 0.9238891 0 -0.8315991 0.5553765 -4.19024e-5 -0.3827939 0.9238339 8.22141e-5 -0.9809115 0.1944547 -2.31817e-4 0 0 1 -0.3827937 -0.9238339 -8.22141e-5 -0.8315989 -0.5553768 4.17157e-5 -0.3826608 -0.9238889 0 0.3091325 -0.951019 0 -0.3092125 -0.950993 -5.19389e-5 -0.3091326 -0.951019 0 2.56141e-7 0 1 0.8090538 -0.5877346 -5.23684e-5 0.3092126 -0.950993 5.19389e-5 1 6.41589e-5 -3.96649e-5 0.8090648 -0.5877195 -4.02828e-5 1 -6.41589e-5 3.96649e-5 0.8090648 0.5877196 4.00357e-5 0.3092124 0.950993 -5.2309e-5 0.8090541 0.5877342 5.23684e-5 -0.3091324 0.9510191 0 0.3091323 0.951019 0 -0.8090535 0.5877351 -5.23684e-5 -1 -6.46524e-5 -3.98557e-5 -0.8090654 0.5877187 -3.97886e-5 -1 6.46524e-5 3.98556e-5 -0.8090652 -0.587719 4.01593e-5 -0.8090536 -0.587735 5.23684e-5 0.4540516 -0.8909754 -2.06573e-4 0.7071805 -0.7070332 -1.82947e-4 0.4541928 -0.8909034 1.94692e-4 0.8910675 -0.453871 -1.69421e-4 0.7072756 -0.706938 1.66595e-4 0.9877287 -0.1561785 -7.77057e-4 0.8910166 -0.4539707 -4.52479e-4 0.9876542 -0.1566495 4.49551e-4 0.9876542 0.1566499 -4.48536e-4 0.9877286 0.1561782 7.76685e-4 0.8910169 0.4539701 4.52479e-4 0.7072764 0.7069372 -1.69569e-4 0.8910675 0.453871 1.69421e-4 0.4541922 0.8909038 -1.96178e-4 0.1565038 0.9876773 -2.0807e-4 -0.4540528 0.8909748 -2.0806e-4 -0.707179 0.7070347 -1.87409e-4 -0.8910671 0.4538716 -1.72394e-4 -0.9877287 0.1561785 -7.76686e-4 -0.8910166 0.4539707 -4.52479e-4 -0.9876542 0.1566495 4.47268e-4 -0.9876542 -0.1566499 -4.47792e-4 -0.9877286 -0.1561782 7.77056e-4 -0.8910169 -0.4539701 4.52479e-4 -0.7072764 -0.7069372 -1.65107e-4 -0.8910671 -0.4538716 1.70908e-4 -0.454191 -0.8909044 -1.94692e-4 -0.7071782 -0.7070354 1.85921e-4 0.156425 -0.9876899 0 -0.1565038 -0.9876773 -2.06584e-4 -0.1564247 -0.9876899 0 0.4540526 -0.8909749 -2.06574e-4 0.1565034 -0.9876775 2.06584e-4 0.7071797 -0.7070339 -1.85177e-4 0.8910669 -0.4538722 -1.69422e-4 0.707276 -0.7069376 1.66595e-4 0.9877287 -0.1561785 -7.77011e-4 0.987654 -0.1566509 4.48318e-4 0.987654 0.156651 -4.48304e-4 0.9877287 0.156178 7.77009e-4 0.8910174 0.4539692 4.51363e-4 0.7072767 0.7069368 -1.66594e-4 0.8910671 0.4538716 1.69421e-4 0.4541919 0.8909038 -1.94692e-4 0.7071782 0.7070354 1.85178e-4 0.1565038 0.9876773 -2.06584e-4 0.4540532 0.8909746 2.06574e-4 -0.156425 0.9876899 0 0.1564247 0.9876899 0 -0.4540526 0.8909749 -2.06574e-4 -0.1565034 0.9876775 2.06584e-4 -0.7071797 0.7070339 -1.85177e-4 -0.8910669 0.4538722 -1.69422e-4 -0.707276 0.7069376 1.66595e-4 -0.9877287 0.1561785 -7.77011e-4 -0.987654 0.1566509 4.48318e-4 -0.987654 -0.156651 -4.48304e-4 -0.9877287 -0.156178 7.77009e-4 -0.8910174 -0.4539692 4.51363e-4 -0.7072767 -0.7069368 -1.66594e-4 -0.8910671 -0.4538716 1.69421e-4 -0.4541919 -0.8909038 -1.94692e-4 -0.7071782 -0.7070354 1.85178e-4 -0.4540532 -0.8909746 2.06574e-4 -3.17954e-7 0 1 -3.45419e-7 0 1 -1.22026e-7 0 1 2.59912e-7 0 1 -2.14285e-6 0 1 -3.90453e-7 0 1 -1.22026e-7 0 1 -5.19824e-7 0 1 2.14284e-6 0 1 6.79636e-7 0 1 1.02216e-6 0 1 -0.3828321 0.9238179 0 0.3829969 0.9237497 -2.58058e-5 0.3828326 0.9238178 0 -0.9240466 0.3822799 -2.57821e-5 -0.3829969 0.9237497 2.58058e-5 -0.9239037 -0.3826254 7.96377e-5 -0.9239037 0.3826252 -7.96377e-5 -0.3829972 -0.9237496 -2.58058e-5 -0.9240466 -0.3822799 2.57821e-5 0.3828326 -0.9238178 0 -0.3828321 -0.9238179 0 0.9240458 -0.382282 -2.56688e-5 0.3829972 -0.9237496 2.58813e-5 0.9239041 0.3826243 7.96756e-5 0.9239041 -0.3826243 -7.96756e-5 0.9240458 0.382282 2.56688e-5 -2.15646e-7 0 -1 1.07142e-6 0 -1 3.90453e-7 0 -1 -2.15646e-7 0 -1 -5.11079e-7 0 -1 -1.07142e-6 0 -1 -6.79637e-7 0 -1 5.19824e-7 0 -1 -5.19824e-7 0 -1 0 0 1 0 0 1 -4.23013e-7 0 1 2.18293e-7 0 1 -1.29192e-6 0 1 -7.04866e-7 0 1 -3.27828e-7 0 1 2.18324e-6 0 1 0 0 1 7.72163e-7 0 1 -1.41004e-7 0 1 6.34365e-7 0 1 -2.26265e-6 0 1 3.0329e-6 0 1 -1.0204e-6 0 1 1.29191e-6 0 1 7.04867e-7 0 1 -2.18324e-6 0 1 -0.3091294 0.95102 0 0.3091432 0.9507497 -0.02248346 0.1788328 0.9838795 0 -0.8091003 0.5876686 -0.001559555 -0.1980007 0.9795781 -0.03496313 -0.4864221 0.8737238 6.59631e-4 -1 9.08791e-5 -1.06134e-5 -0.813655 0.581348 3.50782e-4 -0.8168925 0.5767881 0.001548171 -0.8092114 0.5875174 1.07027e-5 -0.8092114 -0.5875177 -1.06299e-5 -1 -9.08791e-5 1.06134e-5 -0.3092229 -0.9509896 -1.12018e-5 -0.8091017 -0.5876688 1.10666e-5 0.3091309 -0.9510195 0 -0.3091295 -0.95102 0 0.8091017 -0.5876688 -1.12122e-5 0.3092215 -0.95099 1.13473e-5 1 -8.85488e-5 -1.06134e-5 0.8092103 -0.5875192 1.07027e-5 0.8092104 0.587519 -1.06299e-5 1 8.85488e-5 1.06134e-5 0.8168817 0.5768032 -0.001546382 0.4788973 0.8778708 6.67431e-4 -0.3091932 0 -0.9509993 0.2995195 0.03096652 -0.9535876 0.3826841 0 -0.9238794 -0.811924 -0.01627224 -0.5835364 -0.3825984 0.02111333 -0.9236735 -0.9998507 -0.01725482 9.76735e-4 -0.9235042 0.02850198 -0.382528 -0.4789923 0.8778189 -6.64839e-4 -0.8017537 -0.01934009 0.5973418 -0.9235021 0.02858221 0.3825271 -0.1789335 0.9838612 0 -0.2997074 0.03089773 0.9535307 -0.3091443 0.9507495 0.02247822 0.3091312 0.9510195 0 0.1981708 0.9795457 0.03491044 0.3095054 0 0.9508978 -0.3826835 0 0.9238796 -3.86081e-7 0 -1 -1.63743e-6 0 -1 1.12779e-6 0 -1 -5.65663e-7 0 -1 -5.45477e-7 0 -1 5.64016e-7 0 -1 3.50899e-7 0 -1 -1.93041e-7 0 -1 1.09162e-6 0 -1 -3.03292e-6 0 -1 -1.12779e-6 0 -1 1.69699e-6 0 -1 0.8090993 0.5876701 0.001563847 0.8137628 0.5811971 -3.92441e-4 0.4865948 0.8736276 -6.60417e-4 0.8121758 -0.01620739 0.5831878 0.3825991 0.02104467 0.9236748 0.9998508 -0.01724553 -0.001061856 0.923504 0.0284965 0.382529 0.8016191 -0.01938074 -0.597521 0.9235017 0.02858334 -0.382528 -6.34365e-7 0 -1 -1.29192e-6 0 -1 1.36054e-6 0 -1 1.29191e-6 0 -1 0 0 1 9.01525e-7 0 1 4.23012e-7 0 1 -7.01798e-7 0 1 -1.09095e-6 0 1 -8.73173e-7 0 1 6.34365e-7 0 1 -2.26265e-6 0 1 3.03291e-6 0 1 3.40134e-7 0 1 -1.8762e-6 0 1 2.58383e-6 0 1 -2.81947e-7 0 1 -9.01525e-7 0 1 2.18324e-6 0 1 0 0 1 7.72163e-7 0 1 -4.23012e-7 0 1 7.01798e-7 0 1 1.09095e-6 0 1 8.73173e-7 0 1 -6.34365e-7 0 1 2.26265e-6 0 1 -3.03291e-6 0 1 -3.40134e-7 0 1 1.8762e-6 0 1 -2.58383e-6 0 1 2.81947e-7 0 1 -2.18324e-6 0 1 -0.30913 0.9510198 0 0.3091442 0.9507495 -0.02248305 0.1788316 0.9838797 0 -0.8091005 0.5876682 -0.001559376 -0.1980001 0.9795783 -0.03496253 -0.4864215 0.873724 6.59492e-4 -1 9.11703e-5 -1.06134e-5 -0.8136553 0.5813477 3.52007e-4 -0.8168911 0.57679 0.001548111 -0.8092116 0.5875173 1.06208e-5 -0.8092116 -0.5875173 -1.06208e-5 -1 -9.11703e-5 1.06134e-5 -0.3092224 -0.9509899 -1.13473e-5 -0.8091014 -0.5876691 1.1194e-5 0.3091299 -0.9510199 0 -0.3091299 -0.9510199 0 0.8091014 -0.5876691 -1.1194e-5 0.3092224 -0.9509899 1.13473e-5 1 -9.11703e-5 -1.06134e-5 0.8092116 -0.5875173 1.06208e-5 0.8092116 0.5875173 -1.06208e-5 1 9.11703e-5 1.06134e-5 0.8168832 0.576801 -0.001546561 0.4788972 0.8778707 6.67211e-4 -0.3091935 0 -0.9509992 0.2915256 -0.01778006 -0.9563978 0.1950904 0 -0.9807854 -0.8119243 -0.01627165 -0.583536 -0.3825982 0.02111339 -0.9236736 -0.9998507 -0.01725524 9.76934e-4 -0.9235042 0.02850252 -0.382528 -0.4789947 0.8778177 -6.64929e-4 -0.8017534 -0.01933974 0.597342 -0.9235021 0.02858287 0.3825271 -0.1789342 0.9838611 0 -0.2997078 0.03089779 0.9535306 -0.3091441 0.9507495 0.02247822 0.30913 0.9510198 0 0.1981712 0.9795457 0.03490984 0.3095056 0 0.9508977 -0.3826836 0 0.9238795 -3.86081e-7 0 -1 -3.50899e-7 0 -1 -2.18324e-6 0 -1 6.55655e-7 0 -1 -3.03291e-6 0 -1 1.69699e-6 0 -1 5.45477e-7 0 -1 -5.64016e-7 0 -1 3.50899e-7 0 -1 3.86081e-7 0 -1 2.18324e-6 0 -1 -6.55655e-7 0 -1 3.03291e-6 0 -1 -1.69699e-6 0 -1 0.8091006 0.5876682 0.001563608 -5.45477e-7 0 -1 0.8137617 0.5811988 -3.92577e-4 5.64016e-7 0 -1 0.4865914 0.8736295 -6.60506e-4 0.8121754 -0.01620876 0.5831883 0.1949911 -0.03186196 0.9802874 0.5555526 0.00802797 0.8314428 0.9998508 -0.01724642 -0.001062214 0.8314309 -0.00965774 0.5555442 0.9807688 0.005802094 0.195087 0.8032915 -0.01124477 -0.5954799 0.9807692 0.005720734 -0.1950871 0.831241 -0.02345579 -0.5554173 0.5555506 0.008401393 -0.8314404 7.92957e-7 0 -1 1.93787e-6 0 -1 -8.73173e-7 0 -1 -1.8762e-6 0 -1 -7.92957e-7 0 -1 -1.93787e-6 0 -1 8.73173e-7 0 -1 1.8762e-6 0 -1 -0.2240028 0.6891382 -0.6891382 0.243517 0.616275 -0.7489357 0.1392816 0.7002133 -0.7002156 -0.6265307 0.6326841 -0.4551596 -0.164218 0.5398561 -0.8255833 -0.3799518 0.7295808 -0.5686374 -0.7917466 0.6108497 -5.17047e-5 -0.6194432 0.6670655 -0.4139007 -0.6804594 0.720177 -0.135352 -0.6095398 0.6576523 0.4426677 0 1 1.02922e-6 -0.6804276 0.7202084 0.1353456 -0.2435178 0.6162718 0.7489381 -0.6547757 0.6163226 0.4375102 -0.3799585 0.7295687 0.5686486 0.2240028 0.6891382 0.6891382 -0.1392816 0.7002133 0.7002156 0.6265267 0.6326901 0.4551566 0.1642178 0.5398572 0.8255827 0.3799543 0.7295765 0.5686411 0.7917516 0.6108433 5.1705e-5 0.6194432 0.6670655 0.4139007 0.6804632 0.7201732 0.1353527 0.6095398 0.6576523 -0.4426677 0.680432 0.7202039 -0.1353465 0.6547673 0.6163355 -0.4375046 0.3799585 0.7295687 -0.5686486 -0.2240025 0.6891394 -0.6891371 0.2435174 0.6162734 -0.7489369 0.1392812 0.7002157 -0.7002133 -0.6265291 0.6326875 -0.4551571 -0.164218 0.5398557 -0.8255837 -0.3799526 0.7295777 -0.5686408 -0.7917416 0.6108562 -5.23507e-5 -0.6194438 0.6670662 -0.4138987 -0.6804533 0.720183 -0.1353508 -0.6095379 0.6576551 0.4426663 -0.680432 0.7202039 0.1353465 -0.2435166 0.6162766 0.7489345 -0.6547772 0.6163241 0.437506 -0.3799579 0.7295677 0.5686502 0.2240025 0.6891394 0.6891371 0.1642182 0.5398542 0.8255845 0.379952 0.7295788 0.5686399 0.6804604 0.720176 0.1353521 0.6547761 0.616323 -0.4375092 0.3799579 0.7295677 -0.5686502 -0.19509 0 -0.9807854 0.1950905 0 -0.9807853 0.19509 0 -0.9807854 -0.5555711 0 -0.831469 -0.1950905 0 -0.9807853 -0.831468 0 -0.5555728 -0.5555709 0 -0.8314691 -0.9807853 0 -0.1950905 -0.8314681 0 -0.5555728 -0.9807853 0 0.1950905 -0.831468 0 0.5555728 -0.5555709 0 0.8314691 -0.8314681 0 0.5555728 -0.1950905 0 0.9807853 -0.5555711 0 0.831469 0.19509 0 0.9807854 -0.19509 0 0.9807854 0.5555711 0 0.831469 0.1950905 0 0.9807853 0.831468 0 0.5555728 0.5555709 0 0.8314691 0.9807853 0 0.1950905 0.8314681 0 0.5555728 0.9807853 0 -0.1950905 0.831468 0 -0.5555728 0.5555709 0 -0.8314691 0.8314681 0 -0.5555728 0.5555711 0 -0.831469 -0.5555698 0 -0.83147 -0.8314707 0 -0.5555687 -0.5555696 0 -0.8314701 -0.8314707 0 0.5555687 -0.5555696 0 0.8314701 -0.5555698 0 0.83147 0.5555698 0 0.83147 0.8314693 0 0.5555707 0.5555696 0 0.8314701 0.8314693 0 -0.5555707 0.5555696 0 -0.8314701 0.5555698 0 -0.83147</float_array>
          <technique_common>
            <accessor source="#finger-mesh-normals-array" count="1100" stride="3">
              <param name="X" type="float"/>
              <param name="Y" type="float"/>
              <param name="Z" type="float"/>
            </accessor>
          </technique_common>
        </source>
        <vertices id="finger-mesh-vertices">
          <input semantic="POSITION" source="#finger-mesh-positions"/>
        </vertices>
        <triangles count="1524">
          <input semantic="VERTEX" source="#finger-mesh-vertices" offset="0"/>
          <input semantic="NORMAL" source="#finger-mesh-normals" offset="1"/>
          <p>0 0 1 0 2 0 3 1 2 1 1 1 4 2 0 2 2 2 3 2 4 2 2 2 0 0 5 0 1 0 6 3 1 3 5 3 7 1 3 1 1 1 6 1 8 1 1 1 7 1 1 1 8 1 9 4 5 4 0 4 9 4 10 4 5 4 11 4 5 4 10 4 6 3 5 3 11 3 9 4 0 4 4 4 9 5 4 5 3 5 7 5 9 5 3 5 7 6 10 6 9 6 12 4 11 4 10 4 8 5 12 5 10 5 7 6 8 6 10 6 12 4 13 4 11 4 14 7 11 7 13 7 6 8 11 8 14 8 12 4 15 4 13 4 14 0 13 0 15 0 16 9 15 9 12 9 17 10 15 10 16 10 18 0 15 0 17 0 18 0 14 0 15 0 8 5 19 5 12 5 20 11 12 11 19 11 16 9 12 9 20 9 18 1 19 1 8 1 20 11 19 11 21 11 22 12 21 12 19 12 22 13 19 13 18 13 18 1 8 1 14 1 6 1 14 1 8 1 23 5 20 5 21 5 22 14 23 14 21 14 23 5 16 5 20 5 24 5 25 5 16 5 26 15 16 15 25 15 27 5 24 5 16 5 28 5 27 5 16 5 23 16 28 16 16 16 26 17 17 17 16 17 29 5 30 5 25 5 26 18 25 18 30 18 31 5 29 5 25 5 32 5 31 5 25 5 24 19 32 19 25 19 33 5 34 5 30 5 35 4 30 4 34 4 29 5 33 5 30 5 35 20 26 20 30 20 36 21 34 21 33 21 36 4 35 4 34 4 37 1 33 1 29 1 37 21 36 21 33 21 38 22 29 22 31 22 38 1 37 1 29 1 39 23 31 23 32 23 38 24 31 24 39 24 40 25 32 25 24 25 39 26 32 26 40 26 41 27 24 27 27 27 40 28 24 28 41 28 42 21 27 21 28 21 43 21 27 21 42 21 41 29 27 29 43 29 23 30 44 30 28 30 42 31 28 31 44 31 45 32 46 32 44 32 47 33 44 33 46 33 23 34 45 34 44 34 47 35 42 35 44 35 45 36 48 36 46 36 49 37 46 37 48 37 49 38 47 38 46 38 50 5 51 5 48 5 52 39 48 39 51 39 45 5 50 5 48 5 52 40 49 40 48 40 53 5 54 5 51 5 55 4 51 4 54 4 50 5 53 5 51 5 52 41 51 41 55 41 56 21 54 21 53 21 55 4 54 4 56 4 57 1 53 1 50 1 56 21 53 21 57 21 58 42 50 42 45 42 57 1 50 1 58 1 22 43 45 43 23 43 59 44 45 44 22 44 58 45 45 45 59 45 22 0 17 0 26 0 22 0 18 0 17 0 60 0 26 0 35 0 61 0 22 0 26 0 62 46 61 46 26 46 60 0 62 0 26 0 63 47 35 47 36 47 64 0 60 0 35 0 63 48 64 48 35 48 65 49 59 49 22 49 65 0 22 0 61 0 66 50 58 50 59 50 67 51 66 51 59 51 65 52 67 52 59 52 68 0 57 0 58 0 69 0 70 0 58 0 71 0 58 0 70 0 66 0 69 0 58 0 72 53 58 53 71 53 73 0 68 0 58 0 74 0 73 0 58 0 72 0 74 0 58 0 75 0 36 0 57 0 56 21 57 21 36 21 76 0 75 0 57 0 68 54 76 54 57 54 77 0 63 0 36 0 78 55 77 55 36 55 79 56 78 56 36 56 80 0 79 0 36 0 81 57 80 57 36 57 82 58 81 58 36 58 75 59 82 59 36 59 37 21 56 21 36 21 83 60 61 60 62 60 84 61 65 61 61 61 84 62 61 62 83 62 85 63 62 63 60 63 85 64 83 64 62 64 86 65 60 65 64 65 86 66 85 66 60 66 87 67 64 67 63 67 88 68 86 68 64 68 87 69 88 69 64 69 89 70 63 70 77 70 89 71 87 71 63 71 78 72 90 72 77 72 91 73 77 73 90 73 92 74 89 74 77 74 91 75 92 75 77 75 93 0 94 0 90 0 91 76 90 76 94 76 78 0 93 0 90 0 71 0 95 0 94 0 96 77 94 77 95 77 97 0 71 0 94 0 93 0 97 0 94 0 91 78 94 78 96 78 71 79 70 79 95 79 98 80 95 80 70 80 98 81 96 81 95 81 99 82 70 82 69 82 98 83 70 83 99 83 100 84 69 84 66 84 101 85 69 85 100 85 99 86 69 86 101 86 102 87 66 87 67 87 100 88 66 88 102 88 84 89 67 89 65 89 103 90 67 90 84 90 102 91 67 91 103 91 104 92 71 92 97 92 105 61 72 61 71 61 105 62 71 62 104 62 106 93 97 93 93 93 106 64 104 64 97 64 107 94 93 94 78 94 107 66 106 66 93 66 108 95 78 95 79 95 109 96 107 96 78 96 108 97 109 97 78 97 110 98 79 98 80 98 110 71 108 71 79 71 111 99 80 99 81 99 112 100 110 100 80 100 111 101 112 101 80 101 111 102 81 102 82 102 113 103 82 103 75 103 111 104 82 104 113 104 114 105 75 105 76 105 114 106 113 106 75 106 115 107 76 107 68 107 114 108 76 108 115 108 116 109 68 109 73 109 117 85 68 85 116 85 115 110 68 110 117 110 118 111 73 111 74 111 116 88 73 88 118 88 105 112 74 112 72 112 119 90 74 90 105 90 118 91 74 91 119 91 120 5 56 5 37 5 121 5 55 5 56 5 122 5 123 5 56 5 124 5 56 5 123 5 125 5 122 5 56 5 126 5 125 5 56 5 127 5 126 5 56 5 128 5 127 5 56 5 129 5 128 5 56 5 120 5 129 5 56 5 130 5 121 5 56 5 131 5 130 5 56 5 132 5 131 5 56 5 124 5 132 5 56 5 133 5 37 5 38 5 133 5 120 5 37 5 134 5 52 5 55 5 135 5 134 5 55 5 136 5 135 5 55 5 121 5 136 5 55 5 43 5 42 5 47 5 40 5 47 5 49 5 41 5 43 5 47 5 40 5 41 5 47 5 39 5 49 5 52 5 39 5 40 5 49 5 137 5 39 5 52 5 134 5 137 5 52 5 138 5 38 5 39 5 139 5 39 5 137 5 139 5 138 5 39 5 140 5 38 5 141 5 142 5 141 5 38 5 143 5 133 5 38 5 144 5 143 5 38 5 145 5 144 5 38 5 140 5 145 5 38 5 146 113 142 113 38 113 147 5 146 5 38 5 148 5 147 5 38 5 149 5 148 5 38 5 138 5 149 5 38 5 124 114 150 114 141 114 104 115 141 115 150 115 106 116 140 116 141 116 142 5 124 5 141 5 106 117 141 117 104 117 124 118 151 118 150 118 105 119 150 119 151 119 105 120 104 120 150 120 124 121 123 121 151 121 118 122 151 122 123 122 119 123 105 123 151 123 118 124 119 124 151 124 118 125 123 125 122 125 116 126 122 126 125 126 116 127 118 127 122 127 117 128 125 128 126 128 117 129 116 129 125 129 115 130 126 130 127 130 115 131 117 131 126 131 114 132 127 132 128 132 114 133 115 133 127 133 113 134 128 134 129 134 114 135 128 135 113 135 111 136 129 136 120 136 111 137 113 137 129 137 110 138 120 138 133 138 112 139 120 139 110 139 111 140 120 140 112 140 110 141 133 141 143 141 108 142 143 142 144 142 110 143 143 143 108 143 109 144 144 144 145 144 108 145 144 145 109 145 107 146 145 146 140 146 109 147 145 147 107 147 107 148 140 148 106 148 83 115 137 115 134 115 85 149 139 149 137 149 85 150 137 150 83 150 84 151 134 151 135 151 84 152 83 152 134 152 102 122 135 122 136 122 103 153 84 153 135 153 102 154 103 154 135 154 102 125 136 125 121 125 100 155 121 155 130 155 100 156 102 156 121 156 101 157 130 157 131 157 101 158 100 158 130 158 99 159 131 159 132 159 99 160 101 160 131 160 98 161 132 161 124 161 98 162 99 162 132 162 96 163 124 163 142 163 98 164 124 164 96 164 91 165 142 165 146 165 91 166 96 166 142 166 89 167 146 167 147 167 92 168 146 168 89 168 91 169 146 169 92 169 89 141 147 141 148 141 87 170 148 170 149 170 89 171 148 171 87 171 88 172 149 172 138 172 87 173 149 173 88 173 86 146 138 146 139 146 88 174 138 174 86 174 86 175 139 175 85 175 152 176 153 176 154 176 155 177 154 177 153 177 156 178 152 178 154 178 157 177 154 177 155 177 158 179 154 179 157 179 156 180 154 180 158 180 152 181 159 181 153 181 160 182 153 182 159 182 161 183 155 183 153 183 160 184 161 184 153 184 162 185 163 185 159 185 164 186 159 186 163 186 152 185 162 185 159 185 164 187 160 187 159 187 165 5 163 5 162 5 164 188 163 188 166 188 167 189 166 189 163 189 168 5 167 5 163 5 169 5 168 5 163 5 170 190 169 190 163 190 171 191 170 191 163 191 172 192 171 192 163 192 173 5 174 5 163 5 172 5 163 5 174 5 175 5 173 5 163 5 165 5 175 5 163 5 176 193 162 193 152 193 177 194 162 194 178 194 176 195 178 195 162 195 179 5 162 5 177 5 180 196 165 196 162 196 179 5 180 5 162 5 156 197 176 197 152 197 181 198 157 198 155 198 182 199 181 199 155 199 182 200 155 200 161 200 183 201 157 201 181 201 184 202 157 202 183 202 158 203 157 203 184 203 183 204 181 204 185 204 186 205 185 205 181 205 187 206 183 206 185 206 188 207 187 207 185 207 189 208 188 208 185 208 189 209 185 209 186 209 182 210 186 210 181 210 190 211 183 211 187 211 184 212 183 212 190 212 191 207 187 207 188 207 192 213 187 213 191 213 190 214 187 214 192 214 193 215 194 215 195 215 196 216 195 216 194 216 197 217 193 217 195 217 198 218 195 218 196 218 199 219 195 219 198 219 197 220 195 220 199 220 193 221 200 221 194 221 201 222 194 222 200 222 201 223 196 223 194 223 202 224 203 224 200 224 201 225 200 225 203 225 193 226 202 226 200 226 204 227 205 227 203 227 206 228 203 228 205 228 202 229 204 229 203 229 201 230 203 230 206 230 204 231 207 231 205 231 208 232 205 232 207 232 208 233 206 233 205 233 204 234 209 234 207 234 210 235 207 235 209 235 208 236 207 236 210 236 211 237 212 237 209 237 213 238 209 238 212 238 214 239 211 239 209 239 204 240 214 240 209 240 210 241 209 241 213 241 211 242 215 242 212 242 213 243 212 243 215 243 216 244 217 244 215 244 218 245 215 245 217 245 211 246 216 246 215 246 213 247 215 247 218 247 219 248 220 248 217 248 218 249 217 249 220 249 216 250 219 250 217 250 221 251 220 251 219 251 222 252 220 252 221 252 218 253 220 253 222 253 223 254 219 254 216 254 224 255 221 255 219 255 224 256 219 256 223 256 225 257 216 257 211 257 225 258 223 258 216 258 226 259 211 259 214 259 226 260 225 260 211 260 227 261 228 261 214 261 229 262 214 262 228 262 204 263 227 263 214 263 230 264 226 264 214 264 229 265 230 265 214 265 231 266 232 266 228 266 233 267 228 267 232 267 227 268 231 268 228 268 233 269 229 269 228 269 234 270 235 270 232 270 236 271 232 271 235 271 231 272 234 272 232 272 236 273 233 273 232 273 237 274 238 274 235 274 239 275 235 275 238 275 234 276 237 276 235 276 239 277 236 277 235 277 240 278 241 278 238 278 239 279 238 279 241 279 237 278 240 278 238 278 191 280 188 280 241 280 242 281 241 281 188 281 240 280 191 280 241 280 242 282 239 282 241 282 189 283 242 283 188 283 243 284 191 284 240 284 192 285 191 285 243 285 244 286 240 286 237 286 243 287 240 287 244 287 245 288 237 288 234 288 244 289 237 289 245 289 246 290 234 290 231 290 245 291 234 291 246 291 247 292 231 292 227 292 246 293 231 293 247 293 248 294 227 294 204 294 249 295 227 295 248 295 247 296 227 296 249 296 248 297 204 297 202 297 250 298 202 298 193 298 248 299 202 299 250 299 250 300 193 300 197 300 251 301 252 301 253 301 254 302 253 302 252 302 255 303 251 303 253 303 256 304 253 304 254 304 255 305 253 305 256 305 257 306 258 306 252 306 259 307 252 307 258 307 260 308 257 308 252 308 251 309 260 309 252 309 254 310 252 310 261 310 262 311 261 311 252 311 259 312 262 312 252 312 263 313 264 313 258 313 265 314 258 314 264 314 266 315 263 315 258 315 267 316 266 316 258 316 257 317 267 317 258 317 265 318 259 318 258 318 222 319 221 319 264 319 268 320 264 320 221 320 263 321 222 321 264 321 268 322 265 322 264 322 224 323 268 323 221 323 218 324 222 324 263 324 269 325 263 325 266 325 218 326 263 326 269 326 270 327 266 327 267 327 269 328 266 328 270 328 271 329 267 329 257 329 270 330 267 330 271 330 272 331 257 331 260 331 271 332 257 332 272 332 251 333 273 333 260 333 274 334 260 334 273 334 272 335 260 335 274 335 275 336 276 336 273 336 277 337 273 337 276 337 251 338 275 338 273 338 274 339 273 339 277 339 275 340 278 340 276 340 201 341 276 341 278 341 277 342 276 342 201 342 198 343 196 343 278 343 201 344 278 344 196 344 275 345 198 345 278 345 279 346 198 346 275 346 199 347 198 347 279 347 280 348 275 348 251 348 279 349 275 349 280 349 280 350 251 350 255 350 281 351 254 351 261 351 282 352 281 352 261 352 282 353 261 353 262 353 283 354 254 354 281 354 284 355 254 355 283 355 256 356 254 356 284 356 283 357 281 357 285 357 286 358 285 358 281 358 287 359 283 359 285 359 288 360 287 360 285 360 289 361 288 361 285 361 289 362 285 362 286 362 282 363 286 363 281 363 290 364 283 364 287 364 284 365 283 365 290 365 291 366 287 366 288 366 292 367 287 367 291 367 290 368 287 368 292 368 291 369 293 369 294 369 295 0 294 0 293 0 296 370 291 370 294 370 295 0 297 0 294 0 298 0 294 0 297 0 299 0 300 0 294 0 301 371 294 371 300 371 302 0 299 0 294 0 303 0 302 0 294 0 304 0 303 0 294 0 305 0 304 0 294 0 306 0 305 0 294 0 298 0 306 0 294 0 296 372 294 372 301 372 291 373 307 373 293 373 308 374 293 374 307 374 309 375 295 375 293 375 309 376 293 376 308 376 291 377 310 377 307 377 311 378 307 378 310 378 311 379 308 379 307 379 291 380 312 380 310 380 313 381 310 381 312 381 311 382 310 382 313 382 314 383 315 383 312 383 316 384 312 384 315 384 288 385 314 385 312 385 291 386 288 386 312 386 313 387 312 387 316 387 314 388 317 388 315 388 316 389 315 389 317 389 318 0 317 0 314 0 319 390 317 390 318 390 320 391 317 391 319 391 316 392 317 392 320 392 321 393 314 393 288 393 322 394 318 394 314 394 321 395 322 395 314 395 289 396 321 396 288 396 292 397 291 397 296 397 323 0 324 0 325 0 326 398 325 398 324 398 327 399 323 399 325 399 326 400 327 400 325 400 323 0 328 0 324 0 329 401 324 401 328 401 329 402 326 402 324 402 330 0 331 0 328 0 332 403 328 403 331 403 323 0 330 0 328 0 332 404 329 404 328 404 333 0 318 0 331 0 332 405 331 405 318 405 330 0 334 0 331 0 335 0 331 0 334 0 336 0 333 0 331 0 335 0 336 0 331 0 337 0 319 0 318 0 297 0 337 0 318 0 338 0 297 0 318 0 333 0 339 0 318 0 340 0 318 0 339 0 340 0 341 0 318 0 342 406 318 406 341 406 343 0 338 0 318 0 344 0 343 0 318 0 342 0 344 0 318 0 332 407 318 407 322 407 345 408 319 408 337 408 320 409 319 409 345 409 346 410 337 410 297 410 345 411 337 411 346 411 346 412 297 412 295 412 347 0 297 0 338 0 347 0 298 0 297 0 346 413 295 413 309 413 348 0 334 0 300 0 349 414 300 414 334 414 299 0 348 0 300 0 301 415 300 415 349 415 350 416 334 416 330 416 348 0 335 0 334 0 350 417 349 417 334 417 327 418 330 418 323 418 327 419 350 419 330 419 351 420 339 420 333 420 352 421 340 421 339 421 352 422 339 422 351 422 353 423 333 423 336 423 354 424 333 424 353 424 351 425 333 425 354 425 355 426 336 426 335 426 356 427 336 427 355 427 353 428 336 428 356 428 357 429 335 429 348 429 355 430 335 430 357 430 358 431 348 431 299 431 359 432 348 432 358 432 357 433 348 433 359 433 360 434 299 434 302 434 358 435 299 435 360 435 361 436 302 436 303 436 362 437 360 437 302 437 362 438 302 438 361 438 304 439 341 439 303 439 363 440 303 440 341 440 364 441 303 441 363 441 361 442 303 442 364 442 365 443 341 443 340 443 366 444 342 444 341 444 304 0 366 0 341 0 363 445 341 445 365 445 367 446 340 446 352 446 365 447 340 447 367 447 368 448 338 448 343 448 369 449 347 449 338 449 369 422 338 422 368 422 370 450 343 450 344 450 371 451 343 451 370 451 368 452 343 452 371 452 372 426 344 426 342 426 373 453 344 453 372 453 370 454 344 454 373 454 374 429 342 429 366 429 372 455 342 455 374 455 375 456 366 456 304 456 376 457 366 457 375 457 374 458 366 458 376 458 377 459 304 459 305 459 375 460 304 460 377 460 378 461 305 461 306 461 379 462 377 462 305 462 379 463 305 463 378 463 380 464 306 464 298 464 381 465 306 465 380 465 378 466 306 466 381 466 382 467 298 467 347 467 380 468 298 468 382 468 383 469 347 469 369 469 382 470 347 470 383 470 384 471 332 471 322 471 385 1 322 1 321 1 385 472 384 472 322 472 386 473 349 473 350 473 387 4 301 4 349 4 386 4 388 4 349 4 389 4 349 4 388 4 390 4 387 4 349 4 389 474 390 474 349 474 391 475 350 475 327 475 392 476 386 476 350 476 391 477 392 477 350 477 393 478 327 478 326 478 394 479 327 479 393 479 394 480 391 480 327 480 395 481 326 481 329 481 393 478 326 478 395 478 396 482 329 482 332 482 395 481 329 481 397 481 396 483 397 483 329 483 384 484 396 484 332 484 398 1 321 1 289 1 399 1 385 1 321 1 400 485 399 485 321 485 401 1 400 1 321 1 402 1 401 1 321 1 403 1 402 1 321 1 404 1 403 1 321 1 398 1 404 1 321 1 405 486 289 486 286 486 406 1 286 1 282 1 407 487 405 487 286 487 406 1 407 1 286 1 408 488 398 488 289 488 409 1 408 1 289 1 405 489 409 489 289 489 410 1 282 1 262 1 411 1 262 1 259 1 412 1 410 1 262 1 413 1 412 1 262 1 411 490 413 490 262 490 410 1 414 1 282 1 415 1 282 1 414 1 415 1 406 1 282 1 416 491 259 491 265 491 417 1 259 1 182 1 418 1 182 1 259 1 417 1 411 1 259 1 419 492 418 492 259 492 416 1 419 1 259 1 420 1 224 1 223 1 420 493 223 493 225 493 420 494 265 494 268 494 420 1 416 1 265 1 420 495 268 495 224 495 421 1 189 1 186 1 422 1 186 1 182 1 423 1 421 1 186 1 424 1 423 1 186 1 422 1 424 1 186 1 420 496 225 496 226 496 425 1 226 1 230 1 425 497 420 497 226 497 426 1 230 1 229 1 427 498 425 498 230 498 426 499 427 499 230 499 236 500 229 500 233 500 428 501 229 501 236 501 429 1 426 1 229 1 430 1 429 1 229 1 428 1 430 1 229 1 431 1 236 1 239 1 432 1 428 1 236 1 431 1 432 1 236 1 433 1 239 1 242 1 434 1 431 1 239 1 433 1 434 1 239 1 435 1 242 1 189 1 433 502 242 502 435 502 436 503 435 503 189 503 421 504 436 504 189 504 437 505 182 505 161 505 438 1 161 1 160 1 439 506 440 506 161 506 441 507 161 507 440 507 438 1 439 1 161 1 441 1 437 1 161 1 437 1 417 1 182 1 418 1 422 1 182 1 402 508 160 508 164 508 442 1 160 1 402 1 443 1 438 1 160 1 444 1 443 1 160 1 445 509 444 509 160 509 446 1 445 1 160 1 442 1 446 1 160 1 447 510 164 510 166 510 448 511 166 511 167 511 449 1 166 1 448 1 449 1 447 1 166 1 447 512 402 512 164 512 450 513 448 513 167 513 451 5 450 5 167 5 452 5 167 5 168 5 452 5 451 5 167 5 453 514 448 514 450 514 454 515 448 515 453 515 449 1 448 1 454 1 455 516 177 516 178 516 456 517 455 517 178 517 457 4 178 4 176 4 456 518 178 518 457 518 455 519 458 519 177 519 459 5 177 5 458 5 460 5 171 5 177 5 461 5 177 5 171 5 462 5 460 5 177 5 459 5 462 5 177 5 463 520 179 520 177 520 464 521 463 521 177 521 461 5 464 5 177 5 465 5 458 5 466 5 393 522 466 522 458 522 450 5 458 5 465 5 451 5 458 5 450 5 455 523 393 523 458 523 467 5 459 5 458 5 451 5 467 5 458 5 465 5 466 5 468 5 395 524 468 524 466 524 393 525 395 525 466 525 397 526 465 526 468 526 395 527 397 527 468 527 453 528 450 528 465 528 397 529 453 529 465 529 469 530 453 530 397 530 470 531 454 531 453 531 469 532 470 532 453 532 396 533 469 533 397 533 394 534 393 534 455 534 456 535 394 535 455 535 471 536 176 536 156 536 471 4 457 4 176 4 472 537 296 537 301 537 473 4 472 4 301 4 387 4 473 4 301 4 474 538 292 538 296 538 475 4 474 4 296 4 472 4 475 4 296 4 476 539 290 539 292 539 477 4 476 4 292 4 474 540 477 540 292 540 478 4 284 4 290 4 476 4 478 4 290 4 479 541 256 541 284 541 480 4 479 4 284 4 481 542 480 542 284 542 478 4 481 4 284 4 482 543 255 543 256 543 483 544 256 544 479 544 483 545 482 545 256 545 484 546 280 546 255 546 482 4 484 4 255 4 485 547 279 547 280 547 484 548 485 548 280 548 485 4 199 4 279 4 485 549 197 549 199 549 485 550 250 550 197 550 486 551 248 551 250 551 485 552 486 552 250 552 487 4 249 4 248 4 488 553 487 553 248 553 486 4 488 4 248 4 246 554 247 554 249 554 489 4 246 4 249 4 490 555 489 555 249 555 487 4 490 4 249 4 491 4 245 4 246 4 492 556 491 556 246 556 493 557 492 557 246 557 489 558 493 558 246 558 494 559 244 559 245 559 495 560 494 560 245 560 491 4 495 4 245 4 496 561 243 561 244 561 496 562 244 562 494 562 497 4 192 4 243 4 498 4 497 4 243 4 496 4 498 4 243 4 499 563 190 563 192 563 500 4 499 4 192 4 501 564 500 564 192 564 497 4 501 4 192 4 502 565 184 565 190 565 499 566 502 566 190 566 503 4 158 4 184 4 504 567 505 567 184 567 506 568 184 568 505 568 502 4 504 4 184 4 507 4 184 4 506 4 508 4 509 4 184 4 510 4 184 4 509 4 507 4 508 4 184 4 510 4 503 4 184 4 511 569 156 569 158 569 512 4 511 4 158 4 513 4 512 4 158 4 514 4 513 4 158 4 515 4 514 4 158 4 503 4 515 4 158 4 516 570 471 570 156 570 511 4 516 4 156 4 394 571 457 571 471 571 456 0 457 0 394 0 517 572 471 572 516 572 517 0 394 0 471 0 518 573 516 573 511 573 518 574 517 574 516 574 519 575 511 575 512 575 519 576 518 576 511 576 513 577 520 577 512 577 521 578 512 578 520 578 521 579 519 579 512 579 522 4 388 4 520 4 523 580 520 580 388 580 524 581 522 581 520 581 513 4 524 4 520 4 523 582 521 582 520 582 525 5 388 5 386 5 522 583 389 583 388 583 523 584 388 584 525 584 525 585 386 585 392 585 526 586 505 586 504 586 527 587 506 587 505 587 527 588 505 588 526 588 528 589 504 589 502 589 528 590 526 590 504 590 529 591 502 591 499 591 530 592 502 592 529 592 528 593 502 593 530 593 483 4 479 4 499 4 529 594 499 594 479 594 531 595 483 595 499 595 500 596 531 596 499 596 532 597 479 597 480 597 529 598 479 598 532 598 533 599 480 599 481 599 532 600 480 600 533 600 534 601 481 601 478 601 533 602 481 602 534 602 535 603 478 603 476 603 536 604 478 604 535 604 534 605 478 605 536 605 537 606 506 606 476 606 535 607 476 607 506 607 538 4 537 4 476 4 477 4 538 4 476 4 537 608 507 608 506 608 535 609 506 609 527 609 539 610 494 610 495 610 540 611 496 611 494 611 540 612 494 612 539 612 541 613 495 613 491 613 541 614 539 614 495 614 542 615 491 615 492 615 541 616 491 616 542 616 543 617 492 617 493 617 542 618 492 618 543 618 544 619 493 619 489 619 545 620 493 620 544 620 543 621 493 621 545 621 546 622 489 622 490 622 544 623 489 623 546 623 546 624 490 624 487 624 547 625 487 625 488 625 546 626 487 626 547 626 548 627 488 627 486 627 547 628 488 628 548 628 549 629 486 629 485 629 548 630 486 630 549 630 550 631 485 631 484 631 549 632 485 632 550 632 551 633 484 633 482 633 550 634 484 634 551 634 552 635 482 635 483 635 551 636 482 636 552 636 553 637 483 637 531 637 552 638 483 638 553 638 554 639 531 639 500 639 555 640 531 640 554 640 553 641 531 641 555 641 556 642 500 642 501 642 554 643 500 643 556 643 556 644 501 644 497 644 557 645 497 645 498 645 556 646 497 646 557 646 558 647 498 647 496 647 557 648 498 648 558 648 558 649 496 649 540 649 559 650 509 650 508 650 560 651 510 651 509 651 560 652 509 652 559 652 561 653 508 653 507 653 561 654 559 654 508 654 562 655 507 655 537 655 561 656 507 656 562 656 563 657 537 657 538 657 562 658 537 658 563 658 564 659 538 659 477 659 565 660 538 660 564 660 563 661 538 661 565 661 566 662 477 662 474 662 564 663 477 663 566 663 566 664 474 664 475 664 567 665 475 665 472 665 566 666 475 666 567 666 568 667 472 667 473 667 567 668 472 668 568 668 569 669 473 669 387 669 568 670 473 670 569 670 570 671 387 671 390 671 569 672 387 672 570 672 571 673 390 673 389 673 570 674 390 674 571 674 572 675 389 675 522 675 571 676 389 676 572 676 573 677 522 677 524 677 572 678 522 678 573 678 574 679 524 679 513 679 575 680 524 680 574 680 573 681 524 681 575 681 576 682 513 682 514 682 574 683 513 683 576 683 576 684 514 684 515 684 577 685 515 685 503 685 576 686 515 686 577 686 578 687 503 687 510 687 577 688 503 688 578 688 578 689 510 689 560 689 525 690 392 690 391 690 517 4 391 4 394 4 517 4 525 4 391 4 579 691 454 691 470 691 579 0 449 0 454 0 579 692 470 692 469 692 580 1 469 1 396 1 579 1 469 1 580 1 385 693 396 693 384 693 399 5 396 5 385 5 580 5 396 5 399 5 518 4 525 4 517 4 523 4 525 4 518 4 521 4 518 4 519 4 523 4 518 4 521 4 580 694 399 694 400 694 581 695 400 695 401 695 581 696 580 696 400 696 582 697 401 697 402 697 581 578 401 578 582 578 583 576 402 576 447 576 584 698 442 698 402 698 403 1 584 1 402 1 582 575 402 575 583 575 585 699 447 699 449 699 583 700 447 700 585 700 585 701 449 701 579 701 586 702 440 702 439 702 587 703 441 703 440 703 587 704 440 704 586 704 438 705 414 705 439 705 588 706 439 706 414 706 588 707 586 707 439 707 589 708 414 708 410 708 438 1 590 1 414 1 591 1 414 1 590 1 592 1 415 1 414 1 593 1 592 1 414 1 591 1 593 1 414 1 594 709 588 709 414 709 589 710 594 710 414 710 589 711 410 711 412 711 595 712 412 712 413 712 595 713 589 713 412 713 596 714 413 714 411 714 596 715 595 715 413 715 597 716 411 716 417 716 597 597 596 597 411 597 598 717 417 717 437 717 599 718 597 718 417 718 598 719 599 719 417 719 598 720 437 720 441 720 587 721 598 721 441 721 600 652 590 652 438 652 601 654 591 654 590 654 601 650 590 650 600 650 602 722 438 722 443 722 602 651 600 651 438 651 603 723 443 723 444 723 603 724 602 724 443 724 604 725 444 725 445 725 604 726 603 726 444 726 605 727 445 727 446 727 606 728 604 728 445 728 605 729 606 729 445 729 607 730 446 730 442 730 607 731 605 731 446 731 607 732 442 732 584 732 608 733 584 733 403 733 608 734 607 734 584 734 609 735 403 735 404 735 609 675 608 675 403 675 610 736 404 736 398 736 610 673 609 673 404 673 611 672 398 672 408 672 611 671 610 671 398 671 612 737 408 737 409 737 612 669 611 669 408 669 613 738 409 738 405 738 613 667 612 667 409 667 614 739 405 739 407 739 614 665 613 665 405 665 615 740 407 740 406 740 616 741 614 741 407 741 615 742 616 742 407 742 617 743 406 743 415 743 617 744 615 744 406 744 617 745 415 745 592 745 618 746 592 746 593 746 618 747 617 747 592 747 619 748 593 748 591 748 619 749 618 749 593 749 601 653 619 653 591 653 620 750 435 750 436 750 621 751 433 751 435 751 621 752 435 752 620 752 622 753 436 753 421 753 622 754 620 754 436 754 623 755 421 755 423 755 623 647 622 647 421 647 624 756 423 756 424 756 624 757 623 757 423 757 625 758 424 758 422 758 626 644 624 644 424 644 625 759 626 759 424 759 627 760 422 760 418 760 627 761 625 761 422 761 627 762 418 762 419 762 628 763 419 763 416 763 628 764 627 764 419 764 629 765 416 765 420 765 629 766 628 766 416 766 630 767 420 767 425 767 630 768 629 768 420 768 631 769 425 769 427 769 631 770 630 770 425 770 632 771 427 771 426 771 632 772 631 772 427 772 633 773 426 773 429 773 633 627 632 627 426 627 634 774 429 774 430 774 634 775 633 775 429 775 635 776 430 776 428 776 636 624 634 624 430 624 635 777 636 777 430 777 637 778 428 778 432 778 637 779 635 779 428 779 637 780 432 780 431 780 638 781 431 781 434 781 638 782 637 782 431 782 639 783 434 783 433 783 639 784 638 784 434 784 621 785 639 785 433 785 581 1 579 1 580 1 581 786 585 786 579 786 581 787 583 787 585 787 581 1 582 1 583 1 640 1 586 1 588 1 641 788 587 788 586 788 640 1 641 1 586 1 595 789 588 789 594 789 642 790 588 790 595 790 643 791 640 791 588 791 642 1 643 1 588 1 595 1 594 1 589 1 644 792 595 792 596 792 644 1 642 1 595 1 645 1 596 1 597 1 644 1 596 1 645 1 587 793 597 793 599 793 646 794 597 794 587 794 647 1 645 1 597 1 646 1 647 1 597 1 587 795 599 795 598 795 641 796 646 796 587 796 648 797 645 797 647 797 649 798 644 798 645 798 649 799 645 799 648 799 650 800 647 800 646 800 650 801 648 801 647 801 651 802 646 802 641 802 651 803 650 803 646 803 652 804 641 804 640 804 652 805 651 805 641 805 653 806 640 806 643 806 653 807 652 807 640 807 654 808 643 808 642 808 654 809 653 809 643 809 655 810 642 810 644 810 655 811 654 811 642 811 649 812 655 812 644 812 533 813 648 813 650 813 534 4 649 4 648 4 533 4 534 4 648 4 532 4 650 4 651 4 532 4 533 4 650 4 528 4 651 4 652 4 528 814 532 814 651 814 528 815 652 815 653 815 526 816 653 816 654 816 528 4 653 4 526 4 527 817 654 817 655 817 527 4 526 4 654 4 534 4 655 4 649 4 534 818 527 818 655 818 536 819 535 819 527 819 534 820 536 820 527 820 530 4 529 4 532 4 528 821 530 821 532 821 656 822 600 822 602 822 657 823 601 823 600 823 656 1 657 1 600 1 658 824 602 824 603 824 659 1 656 1 602 1 658 1 659 1 602 1 608 825 603 825 604 825 609 1 603 1 608 1 660 1 603 1 609 1 660 1 658 1 603 1 608 1 604 1 606 1 607 1 606 1 605 1 608 826 606 826 607 826 660 827 609 827 610 827 661 828 610 828 611 828 661 829 660 829 610 829 662 830 611 830 612 830 661 831 611 831 662 831 663 832 612 832 613 832 664 1 662 1 612 1 663 1 664 1 612 1 618 1 613 1 614 1 619 833 613 833 618 833 665 834 613 834 619 834 665 835 663 835 613 835 618 836 614 836 616 836 617 1 616 1 615 1 618 837 616 837 617 837 665 838 619 838 601 838 657 839 665 839 601 839 666 840 662 840 664 840 667 841 661 841 662 841 667 842 662 842 666 842 668 843 664 843 663 843 669 844 666 844 664 844 668 845 669 845 664 845 670 846 663 846 665 846 671 847 668 847 663 847 672 848 671 848 663 848 670 849 672 849 663 849 673 850 665 850 657 850 673 851 670 851 665 851 674 852 657 852 656 852 674 853 673 853 657 853 675 854 656 854 659 854 675 855 674 855 656 855 676 856 659 856 658 856 676 857 675 857 659 857 677 858 658 858 660 858 677 859 676 859 658 859 678 860 660 860 661 860 678 861 677 861 660 861 679 862 678 862 661 862 667 863 679 863 661 863 320 864 666 864 669 864 345 865 667 865 666 865 320 866 345 866 666 866 316 867 669 867 668 867 316 868 320 868 669 868 313 869 668 869 671 869 313 870 316 870 668 870 672 871 680 871 671 871 311 872 671 872 680 872 311 873 313 873 671 873 681 874 682 874 680 874 311 875 680 875 682 875 672 876 681 876 680 876 683 877 682 877 681 877 684 878 682 878 683 878 308 879 682 879 684 879 311 880 682 880 308 880 570 881 681 881 672 881 571 4 683 4 681 4 570 4 571 4 681 4 569 882 672 882 670 882 569 4 570 4 672 4 562 4 670 4 673 4 568 883 569 883 670 883 562 884 568 884 670 884 561 885 673 885 674 885 561 886 562 886 673 886 561 887 674 887 675 887 559 888 675 888 676 888 561 4 675 4 559 4 560 889 676 889 677 889 560 4 559 4 676 4 572 890 677 890 678 890 578 891 560 891 677 891 572 892 578 892 677 892 685 893 683 893 678 893 571 4 678 4 683 4 679 894 685 894 678 894 571 4 572 4 678 4 685 895 684 895 683 895 309 896 684 896 685 896 309 897 308 897 684 897 346 898 685 898 679 898 346 899 309 899 685 899 345 900 679 900 667 900 345 901 346 901 679 901 572 902 577 902 578 902 575 903 576 903 577 903 573 904 575 904 577 904 572 4 573 4 577 4 575 4 574 4 576 4 562 4 567 4 568 4 565 905 566 905 567 905 563 4 565 4 567 4 562 4 563 4 567 4 565 4 564 4 566 4 686 906 620 906 622 906 687 907 621 907 620 907 686 1 687 1 620 1 688 908 622 908 623 908 689 909 686 909 622 909 688 910 689 910 622 910 628 911 623 911 624 911 629 912 623 912 628 912 690 913 623 913 629 913 690 914 688 914 623 914 628 915 624 915 626 915 627 916 626 916 625 916 628 917 626 917 627 917 690 918 629 918 630 918 691 919 630 919 631 919 691 920 690 920 630 920 692 921 631 921 632 921 691 922 631 922 692 922 693 923 632 923 633 923 694 924 692 924 632 924 693 925 694 925 632 925 638 926 633 926 634 926 639 927 633 927 638 927 695 928 633 928 639 928 695 929 693 929 633 929 638 930 634 930 636 930 637 931 636 931 635 931 638 932 636 932 637 932 695 933 639 933 621 933 687 934 695 934 621 934 696 935 692 935 694 935 697 936 691 936 692 936 697 937 692 937 696 937 698 938 694 938 693 938 699 939 696 939 694 939 698 940 699 940 694 940 700 941 693 941 695 941 701 942 698 942 693 942 702 943 701 943 693 943 700 944 702 944 693 944 703 945 695 945 687 945 703 946 700 946 695 946 704 947 687 947 686 947 704 948 703 948 687 948 705 949 686 949 689 949 705 950 704 950 686 950 706 951 689 951 688 951 706 952 705 952 689 952 707 953 688 953 690 953 707 954 706 954 688 954 708 955 690 955 691 955 708 956 707 956 690 956 709 957 708 957 691 957 697 958 709 958 691 958 218 959 696 959 699 959 269 960 697 960 696 960 218 961 269 961 696 961 213 962 699 962 698 962 213 963 218 963 699 963 210 964 698 964 701 964 210 965 213 965 698 965 702 966 710 966 701 966 208 967 701 967 710 967 208 968 210 968 701 968 711 969 712 969 710 969 208 970 710 970 712 970 702 971 711 971 710 971 713 972 712 972 711 972 714 973 712 973 713 973 206 974 712 974 714 974 208 975 712 975 206 975 550 976 711 976 702 976 551 977 713 977 711 977 550 4 551 4 711 4 549 978 702 978 700 978 549 979 550 979 702 979 542 980 700 980 703 980 548 4 549 4 700 4 542 981 548 981 700 981 541 982 703 982 704 982 541 983 542 983 703 983 541 984 704 984 705 984 539 985 705 985 706 985 541 4 705 4 539 4 540 986 706 986 707 986 540 987 539 987 706 987 552 988 707 988 708 988 558 4 540 4 707 4 552 989 558 989 707 989 715 990 713 990 708 990 551 991 708 991 713 991 709 992 715 992 708 992 551 993 552 993 708 993 715 994 714 994 713 994 277 995 714 995 715 995 201 996 206 996 714 996 277 997 201 997 714 997 272 998 715 998 709 998 274 999 277 999 715 999 272 1000 274 1000 715 1000 271 1001 709 1001 697 1001 271 1002 272 1002 709 1002 270 1003 271 1003 697 1003 269 1004 270 1004 697 1004 552 1005 557 1005 558 1005 555 1006 556 1006 557 1006 553 4 555 4 557 4 552 1007 553 1007 557 1007 555 1008 554 1008 556 1008 542 1009 547 1009 548 1009 545 1010 546 1010 547 1010 543 4 545 4 547 4 542 1011 543 1011 547 1011 545 1012 544 1012 546 1012 716 1013 168 1013 169 1013 717 1014 452 1014 168 1014 717 1015 168 1015 716 1015 718 1016 169 1016 170 1016 719 1017 716 1017 169 1017 718 1018 719 1018 169 1018 720 1019 170 1019 171 1019 721 1020 718 1020 170 1020 720 1021 721 1021 170 1021 722 1022 171 1022 460 1022 172 1023 461 1023 171 1023 722 1024 720 1024 171 1024 723 1025 460 1025 462 1025 724 1026 722 1026 460 1026 723 1027 724 1027 460 1027 725 1028 462 1028 459 1028 725 1029 723 1029 462 1029 726 1030 459 1030 467 1030 727 1031 725 1031 459 1031 726 1032 727 1032 459 1032 728 1033 467 1033 451 1033 729 1034 726 1034 467 1034 728 1035 729 1035 467 1035 730 1036 451 1036 452 1036 730 1037 728 1037 451 1037 731 1038 730 1038 452 1038 717 1039 731 1039 452 1039 732 1040 174 1040 173 1040 733 1041 172 1041 174 1041 733 1042 174 1042 732 1042 734 1043 173 1043 175 1043 735 1044 732 1044 173 1044 734 1045 735 1045 173 1045 736 1046 175 1046 165 1046 737 1047 734 1047 175 1047 736 1048 737 1048 175 1048 738 1049 165 1049 180 1049 738 1050 736 1050 165 1050 739 1051 180 1051 179 1051 740 1052 738 1052 180 1052 739 1053 740 1053 180 1053 741 1054 179 1054 463 1054 741 1029 739 1029 179 1029 742 1030 463 1030 464 1030 743 1055 741 1055 463 1055 742 1056 743 1056 463 1056 744 1033 464 1033 461 1033 745 1034 742 1034 464 1034 744 1057 745 1057 464 1057 746 1036 461 1036 172 1036 746 1037 744 1037 461 1037 747 1058 746 1058 172 1058 733 1059 747 1059 172 1059 351 1060 716 1060 719 1060 354 1061 717 1061 716 1061 351 1062 354 1062 716 1062 352 1063 719 1063 718 1063 352 1064 351 1064 719 1064 367 1065 718 1065 721 1065 367 1066 352 1066 718 1066 365 1067 721 1067 720 1067 365 1068 367 1068 721 1068 363 1069 720 1069 722 1069 363 1067 365 1067 720 1067 364 1070 722 1070 724 1070 364 1069 363 1069 722 1069 361 1071 724 1071 723 1071 361 1072 364 1072 724 1072 362 1073 723 1073 725 1073 362 1074 361 1074 723 1074 360 1075 725 1075 727 1075 362 1076 725 1076 360 1076 358 1077 727 1077 726 1077 358 1078 360 1078 727 1078 359 1079 726 1079 729 1079 359 1080 358 1080 726 1080 357 1081 729 1081 728 1081 357 1082 359 1082 729 1082 355 1083 728 1083 730 1083 355 1081 357 1081 728 1081 356 1084 730 1084 731 1084 356 1083 355 1083 730 1083 353 1085 731 1085 717 1085 353 1086 356 1086 731 1086 354 1087 353 1087 717 1087 368 1060 732 1060 735 1060 371 1061 733 1061 732 1061 368 1062 371 1062 732 1062 369 1088 735 1088 734 1088 369 1064 368 1064 735 1064 383 1089 734 1089 737 1089 383 1090 369 1090 734 1090 382 1067 737 1067 736 1067 382 1089 383 1089 737 1089 380 1069 736 1069 738 1069 380 1067 382 1067 736 1067 381 1091 738 1091 740 1091 381 1069 380 1069 738 1069 378 1092 740 1092 739 1092 378 1091 381 1091 740 1091 379 1073 739 1073 741 1073 379 1093 378 1093 739 1093 377 1075 741 1075 743 1075 379 1076 741 1076 377 1076 375 1094 743 1094 742 1094 375 1078 377 1078 743 1078 376 1095 742 1095 745 1095 376 1096 375 1096 742 1096 374 1081 745 1081 744 1081 374 1095 376 1095 745 1095 372 1083 744 1083 746 1083 372 1081 374 1081 744 1081 373 1097 746 1097 747 1097 373 1083 372 1083 746 1083 370 1098 747 1098 733 1098 370 1097 373 1097 747 1097 371 1099 370 1099 733 1099</p>
        </triangles>
      </mesh>
    </geometry>
  </library_geometries>
  <library_visual_scenes>
    <visual_scene id="Scene" name="Scene">
      <node id="finger" name="finger" type="NODE">
        <matrix sid="transform">4.37114e-11 8.74228e-11 -0.001 0 0 -0.001 -8.74228e-11 0 -0.001 0 -4.37114e-11 0 0 0 0 1</matrix>
        <instance_geometry url="#finger-mesh" name="finger"/>
      </node>
      <node id="Camera" name="Camera" type="NODE">
        <matrix sid="transform">0.6859207 -0.3240135 0.6515582 7.358891 0.7276763 0.3054208 -0.6141704 -6.925791 0 0.8953956 0.4452714 4.958309 0 0 0 1</matrix>
        <instance_camera url="#Camera-camera"/>
      </node>
      <node id="Light" name="Light" type="NODE">
        <matrix sid="transform">-0.2908646 -0.7711008 0.5663932 4.076245 0.9551712 -0.1998834 0.2183912 1.005454 -0.05518906 0.6045247 0.7946723 5.903862 0 0 0 1</matrix>
        <instance_light url="#Light-light"/>
      </node>
    </visual_scene>
  </library_visual_scenes>
  <scene>
    <instance_visual_scene url="#Scene"/>
  </scene>
</COLLADA>