<?xml version="1.0" encoding="utf-8"?>
<COLLADA xmlns="http://www.collada.org/2005/11/COLLADASchema" version="1.4.1" xmlns:xsi="http://www.w3.org/2001/XMLSchema-instance">
  <asset>
    <contributor>
      <author>Blender User</author>
      <authoring_tool>Blender 3.0.1</authoring_tool>
    </contributor>
    <created>2026-01-04T09:44:12</created>
    <modified>2026-01-04T09:44:12</modified>
    <unit name="meter" meter="1"/>
    <up_axis>Z_UP</up_axis>
  </asset>
  <library_cameras>
    <camera id="Camera-camera" name="Camera">
      <optics>
        <technique_common>
          <perspective>
            <xfov sid="xfov">39.59775</xfov>
            <aspect_ratio>1.777778</aspect_ratio>
            <znear sid="znear">0.1</znear>
            <zfar sid="zfar">100</zfar>
          </perspective>
        </technique_common>
      </optics>
      <extra>
        <technique profile="blender">
          <shiftx sid="shiftx" type="float">0</shiftx>
          <shifty sid="shifty" type="float">0</shifty>
          <dof_distance sid="dof_distance" type="float">10</dof_distance>
        </technique>
      </extra>
    </camera>
  </library_cameras>
  <library_lights>
    <light id="Light-light" name="Light">
      <technique_common>
        <point>
          <color sid="color">1000 1000 1000</color>
          <constant_attenuation>1</constant_attenuation>
          <linear_attenuation>0</linear_attenuation>
          <quadratic_attenuation>0.00111109</quadratic_attenuation>
        </point>
      </technique_common>
      <extra>
        <technique profile="blender">
          <type sid="type" type="int">0</type>
          <flag sid="flag" type="int">0</flag>
          <mode sid="mode" type="int">1</mode>
          <gamma sid="blender_gamma" type="float">1</gamma>
          <red sid="red" type="float">1</red>
          <green sid="green" type="float">1</green>
          <blue sid="blue" type="float">1</blue>
          <shadow_r sid="blender_shadow_r" type="float">0</shadow_r>
          <shadow_g sid="blender_shadow_g" type="float">0</shadow_g>
          <shadow_b sid="blender_shadow_b" type="float">0</shadow_b>
          <energy sid="blender_energy" type="float">1000</energy>
          <dist sid="blender_dist" type="float">29.99998</dist>
          <spotsize sid="spotsize" type="float">75</spotsize>
          <spotblend sid="spotblend" type="float">0.15</spotblend>
          <att1 sid="att1" type="float">0</att1>
          <att2 sid="att2" type="float">1</att2>
          <falloff_type sid="falloff_type" type="int">2</falloff_type>
          <clipsta sid="clipsta" type="float">0.04999995</clipsta>
          <clipend sid="clipend" type="float">30.002</clipend>
          <bias sid="bias" type="float">1</bias>
          <soft sid="soft" type="float">3</soft>
          <bufsize sid="bufsize" type="int">2880</bufsize>
          <samp sid="samp" type="int">3</samp>
          <buffers sid="buffers" type="int">1</buffers>
          <area_shape sid="area_shape" type="int">1</area_shape>
          <area_size sid="area_size" type="float">0.1</area_size>
          <area_sizey sid="area_sizey" type="float">0.1</area_sizey>
          <area_sizez sid="area_sizez" type="float">1</area_sizez>
        </technique>
      </extra>
    </light>
  </library_lights>
  <library_images/>
  <library_geometries>
    <geometry id="gripper_object3-mesh" name="gripper_object3">
      <mesh>
        <source id="gripper_object3-mesh-positions">
          <float_array id="gripper_object3-mesh-positions-array" count="1974">69.35 0.7018668 4.928363 69.35 1 5.236068 2.999999 1.071637 5.298133 99.65 1 5.236068 158 0.7018668 4.928363 158 1.071637 5.298133 2.999999 0.7018668 4.928363 2.999999 0.4019239 4.5 69.35 0.4019239 4.5 2.999999 0.1809222 4.026061 69.35 0.1809222 4.026061 2.999999 0.04557681 3.520945 69.35 0.04557681 3.520945 2.999999 0 3 69.35 0 3 2.999999 0.04557681 2.479055 69.35 0.04557681 2.479055 2.999999 0.1809222 1.97394 69.35 0.1809222 1.97394 2.999999 0.4019239 1.5 69.35 0.4019239 1.5 2.999999 0.7018668 1.071637 69.35 0.7018668 1.071637 99.65 0.7018668 1.071637 99.65 1 0.763932 158 1.071637 0.7018668 69.35 1 0.763932 99.65 0.7018668 4.928363 99.65 0.4019239 4.5 158 0.4019239 4.5 99.65 0.1809222 4.026061 158 0.1809222 4.026061 99.65 0.04557681 3.520945 158 0.04557681 3.520945 99.65 0 3 158 0 3 99.65 0.04557681 2.479055 158 0.04557681 2.479055 99.65 0.1809222 1.97394 158 0.1809222 1.97394 99.65 0.4019239 1.5 158 0.4019239 1.5 158 0.7018668 1.071637 69.35 5 0.763932 99.65 5 0.763932 2.999999 4.928363 0.7018668 69.35 5.298133 1.071637 2.999999 5.298133 1.071637 2.999999 5.598076 1.5 69.35 5.598076 1.5 2.999999 5.819078 1.97394 69.35 5.819078 1.97394 2.999999 5.954423 2.479055 69.35 5.954423 2.479055 2.999999 6 3 69.35 6 3 2.999999 5.954423 3.520945 69.35 5.954423 3.520945 2.999999 5.819078 4.026061 69.35 5.819078 4.026061 2.999999 5.598076 4.5 69.35 5.598076 4.5 2.999999 5.298133 4.928363 69.35 5.298133 4.928363 99.65 5.298133 4.928363 99.65 5 5.236068 158 4.928363 5.298133 69.35 5 5.236068 158 5.298133 1.071637 99.65 5.598076 1.5 158 5.598076 1.5 99.65 5.819078 1.97394 158 5.819078 1.97394 99.65 5.954423 2.479055 158 5.954423 2.479055 99.65 6 3 158 6 3 99.65 5.954423 3.520945 158 5.954423 3.520945 99.65 5.819078 4.026061 158 5.819078 4.026061 99.65 5.598076 4.5 158 5.598076 4.5 158 5.298133 4.928363 2.999999 4.928363 5.298133 2.999999 4.5 5.598076 158 4.5 5.598076 2.999999 4.026061 5.819078 158 4.026061 5.819078 2.999999 3.520945 5.954423 158 3.520945 5.954423 2.999999 3 6 158 3 6 2.999999 2.479055 5.954423 158 2.479055 5.954423 2.999999 1.97394 5.819078 158 1.97394 5.819078 2.999999 1.5 5.598076 158 1.5 5.598076 2.999999 1.071637 0.7018668 2.999999 1.5 0.4019239 158 1.5 0.4019239 2.999999 1.97394 0.1809222 158 1.97394 0.1809222 2.999999 2.479055 0.04557681 158 2.479055 0.04557681 2.999999 3 0 158 3 0 2.999999 3.520945 0.04557681 158 3.520945 0.04557681 2.999999 4.026061 0.1809222 158 4.026061 0.1809222 2.999999 4.5 0.4019239 158 4.5 0.4019239 158 4.928363 0.7018668 99.65 5.298133 1.071637 0 3 4.26 2.999999 3.218797 4.240858 0 3.218797 4.240858 2.999999 3.430945 4.184013 0 3.430945 4.184013 2.999999 3.63 4.091192 0 3.63 4.091192 2.999999 3.809912 3.965216 0 3.809912 3.965216 2.999999 3.965216 3.809912 0 3.965216 3.809912 2.999999 4.091192 3.63 0 4.091192 3.63 2.999999 4.184013 3.430945 0 4.184013 3.430945 2.999999 4.240858 3.218797 0 4.240858 3.218797 2.999999 4.26 3 0 4.26 3 2.999999 4.240858 2.781203 0 4.240858 2.781203 2.999999 4.184013 2.569055 0 4.184013 2.569055 2.999999 4.091192 2.37 0 4.091192 2.37 2.999999 3.965216 2.190088 0 3.965216 2.190088 2.999999 3.809912 2.034784 0 3.809912 2.034784 2.999999 3.63 1.908808 0 3.63 1.908808 2.999999 3.430945 1.815987 0 3.430945 1.815987 2.999999 3.218797 1.759142 0 3.218797 1.759142 2.999999 3 1.74 0 3 1.74 2.999999 2.781203 1.759142 0 2.781203 1.759142 2.999999 2.569055 1.815987 0 2.569055 1.815987 2.999999 2.37 1.908808 0 2.37 1.908808 2.999999 2.190088 2.034784 0 2.190088 2.034784 2.999999 2.034784 2.190088 0 2.034784 2.190088 2.999999 1.908808 2.37 0 1.908808 2.37 2.999999 1.815987 2.569055 0 1.815987 2.569055 2.999999 1.759142 2.781203 0 1.759142 2.781203 2.999999 1.74 3 0 1.74 3 2.999999 1.759142 3.218797 0 1.759142 3.218797 2.999999 1.815987 3.430945 0 1.815987 3.430945 2.999999 1.908808 3.63 0 1.908808 3.63 2.999999 2.034784 3.809912 0 2.034784 3.809912 2.999999 2.190088 3.965216 0 2.190088 3.965216 2.999999 2.37 4.091192 0 2.37 4.091192 2.999999 2.569055 4.184013 0 2.569055 4.184013 2.999999 2.781203 4.240858 0 2.781203 4.240858 2.999999 3 4.26 0 3 3 158 4.37888 4.157018 158 4.157018 4.37888 158 3.9 4.558846 158 3.615636 4.691447 158 3.312567 4.772654 158 3 4.8 158 2.687433 4.772654 158 2.384364 4.691447 158 2.1 4.558846 158 1.842982 4.37888 158 1.62112 4.157018 158 1.441154 3.9 158 1.308553 3.615636 158 1.227346 3.312567 158 1.2 3 158 1.227346 2.687433 158 1.308553 2.384364 158 1.441154 2.1 158 1.62112 1.842982 158 1.842982 1.62112 158 2.1 1.441154 158 2.384364 1.308553 158 2.687433 1.227346 158 3 1.2 158 3.312567 1.227346 158 3.615636 1.308553 158 3.9 1.441154 158 4.157018 1.62112 158 4.37888 1.842982 158 4.558846 2.1 158 4.691447 2.384364 158 4.772654 2.687433 158 4.8 3 158 4.772654 3.312567 158 4.691447 3.615636 158 4.558846 3.9 159.7 3.312567 4.772654 159.7 3.615636 4.691447 159.7 3.9 4.558846 159.7 4.157018 4.37888 159.7 4.37888 4.157018 159.7 4.558846 3.9 159.7 4.691447 3.615636 159.7 4.772654 3.312567 159.7 4.8 3 159.7 4.772654 2.687433 159.7 4.691447 2.384364 159.7 4.558846 2.1 159.7 4.37888 1.842982 159.7 4.157018 1.62112 159.7 3.9 1.441154 159.7 3.615636 1.308553 159.7 3.312567 1.227346 159.7 3 1.2 159.7 2.687433 1.227346 159.7 2.384364 1.308553 159.7 2.1 1.441154 159.7 1.842982 1.62112 159.7 1.62112 1.842982 159.7 1.441154 2.1 159.7 1.308553 2.384364 159.7 1.227346 2.687433 159.7 1.2 3 159.7 1.227346 3.312567 159.7 1.308553 3.615636 159.7 1.441154 3.9 159.7 1.62112 4.157018 159.7 1.842982 4.37888 159.7 2.1 4.558846 159.7 2.384364 4.691447 159.7 2.687433 4.772654 159.7 3 4.8 159.7 4.184013 3.430945 159.7 4.091192 3.63 159.7 3.965216 3.809912 159.7 3.809912 3.965216 159.7 3.63 4.091192 159.7 3.430945 4.184013 159.7 3.218797 4.240858 159.7 3 4.26 159.7 2.781203 4.240858 159.7 2.569055 4.184013 159.7 2.37 4.091192 159.7 2.190088 3.965216 159.7 2.034784 3.809912 159.7 1.908808 3.63 159.7 1.815987 3.430945 159.7 1.759142 3.218797 159.7 1.74 3 159.7 1.759142 2.781203 159.7 1.815987 2.569055 159.7 1.908808 2.37 159.7 2.034784 2.190088 159.7 2.190088 2.034784 159.7 2.37 1.908808 159.7 2.569055 1.815987 159.7 2.781203 1.759142 159.7 3 1.74 159.7 3.218797 1.759142 159.7 3.430945 1.815987 159.7 3.63 1.908808 159.7 3.809912 2.034784 159.7 3.965216 2.190088 159.7 4.091192 2.37 159.7 4.184013 2.569055 159.7 4.240858 2.781203 159.7 4.26 3 159.7 4.240858 3.218797 163 2.740065 2.285834 163 2.868027 2.251546 163 3 3 163 3 2.24 163 3.131973 2.251546 163 2.417806 2.511482 163 2.511482 2.417806 163 2.62 2.341821 163 2.251546 2.868027 163 2.285834 2.740065 163 2.341821 2.62 163 2.285834 3.259935 163 2.251546 3.131973 163 2.24 3 163 2.511482 3.582194 163 2.417806 3.488518 163 2.341821 3.38 163 2.868027 3.748454 163 2.740065 3.714166 163 2.62 3.658179 163 3.259935 3.714166 163 3.131973 3.748454 163 3 3.76 163 3.582194 3.488518 163 3.488518 3.582194 163 3.38 3.658179 163 3.748454 3.131973 163 3.714166 3.259935 163 3.658179 3.38 163 3.714166 2.740065 163 3.748454 2.868027 163 3.76 3 163 3.488518 2.417806 163 3.582194 2.511482 163 3.658179 2.62 163 3.259935 2.285834 163 3.38 2.341821 162.5 3.218797 4.240858 162.5 3.430945 4.184013 162.5 3.63 4.091192 162.5 3.809912 3.965216 162.5 3.965216 3.809912 162.5 4.091192 3.63 162.5 4.184013 3.430945 162.5 4.240858 3.218797 162.5 4.26 3 162.5 4.240858 2.781203 162.5 4.184013 2.569055 162.5 4.091192 2.37 162.5 3.965216 2.190088 162.5 3.809912 2.034784 162.5 3.63 1.908808 162.5 3.430945 1.815987 162.5 3.218797 1.759142 162.5 3 1.74 162.5 2.781203 1.759142 162.5 2.569055 1.815987 162.5 2.37 1.908808 162.5 2.190088 2.034784 162.5 2.034784 2.190088 162.5 1.908808 2.37 162.5 1.815987 2.569055 162.5 1.759142 2.781203 162.5 1.74 3 162.5 1.759142 3.218797 162.5 1.815987 3.430945 162.5 1.908808 3.63 162.5 2.034784 3.809912 162.5 2.190088 3.965216 162.5 2.37 4.091192 162.5 2.569055 4.184013 162.5 2.781203 4.240858 162.5 3 4.26 162.9924 3.147049 2.166041 162.9924 3.289631 2.204246 162.9924 3.423412 2.266629 162.9924 3.544328 2.351295 162.9924 3.648705 2.455672 162.9924 3.733371 2.576588 162.9924 3.795754 2.710369 162.9924 3.833959 2.852951 162.9924 3.846824 3 162.9924 3.833959 3.147049 162.9924 3.795754 3.289631 162.9924 3.733371 3.423412 162.9924 3.648705 3.544328 162.9924 3.544328 3.648705 162.9924 3.423412 3.733371 162.9924 3.289631 3.795754 162.9924 3.147049 3.833959 162.9924 3 3.846824 162.9924 2.852951 3.833959 162.9924 2.710369 3.795754 162.9924 2.576588 3.733371 162.9924 2.455672 3.648705 162.9924 2.351295 3.544328 162.9924 2.266629 3.423412 162.9924 2.204246 3.289631 162.9924 2.166041 3.147049 162.9924 2.153176 3 162.9924 2.166041 2.852951 162.9924 2.204246 2.710369 162.9924 2.266629 2.576588 162.9924 2.351295 2.455672 162.9924 2.455672 2.351295 162.9924 2.576588 2.266629 162.9924 2.710369 2.204246 162.9924 2.852951 2.166041 162.9924 3 2.153176 162.9698 3.161668 2.083134 162.9698 3.318424 2.125137 162.9698 3.465505 2.193722 162.9698 3.598442 2.286805 162.9698 3.713195 2.401558 162.9698 3.806278 2.534495 162.9698 3.874863 2.681576 162.9698 3.916866 2.838332 162.9698 3.93101 3 162.9698 3.916866 3.161668 162.9698 3.874863 3.318424 162.9698 3.806278 3.465505 162.9698 3.713195 3.598442 162.9698 3.598442 3.713195 162.9698 3.465505 3.806278 162.9698 3.318424 3.874863 162.9698 3.161668 3.916866 162.9698 3 3.93101 162.9698 2.838332 3.916866 162.9698 2.681576 3.874863 162.9698 2.534495 3.806278 162.9698 2.401558 3.713195 162.9698 2.286805 3.598442 162.9698 2.193722 3.465505 162.9698 2.125137 3.318424 162.9698 2.083134 3.161668 162.9698 2.06899 3 162.9698 2.083134 2.838332 162.9698 2.125137 2.681576 162.9698 2.193722 2.534495 162.9698 2.286805 2.401558 162.9698 2.401558 2.286805 162.9698 2.534495 2.193722 162.9698 2.681576 2.125137 162.9698 2.838332 2.083134 162.9698 3 2.06899 162.933 3.175385 2.005344 162.933 3.34544 2.05091 162.933 3.505 2.125314 162.933 3.649215 2.226295 162.933 3.773705 2.350785 162.933 3.874686 2.495 162.933 3.94909 2.65456 162.933 3.994656 2.824615 162.933 4.01 3 162.933 3.994656 3.175385 162.933 3.94909 3.34544 162.933 3.874686 3.505 162.933 3.773705 3.649215 162.933 3.649215 3.773705 162.933 3.505 3.874686 162.933 3.34544 3.94909 162.933 3.175385 3.994656 162.933 3 4.01 162.933 2.824615 3.994656 162.933 2.65456 3.94909 162.933 2.495 3.874686 162.933 2.350785 3.773705 162.933 2.226295 3.649215 162.933 2.125314 3.505 162.933 2.05091 3.34544 162.933 2.005344 3.175385 162.933 1.99 3 162.933 2.005344 2.824615 162.933 2.05091 2.65456 162.933 2.125314 2.495 162.933 2.226295 2.350785 162.933 2.350785 2.226295 162.933 2.495 2.125314 162.933 2.65456 2.05091 162.933 2.824615 2.005344 162.933 3 1.99 162.883 3.187782 1.935035 162.883 3.369858 1.983822 162.883 3.540697 2.063485 162.883 3.695106 2.171604 162.883 3.828396 2.304893 162.883 3.936515 2.459303 162.883 4.016178 2.630141 162.883 4.064965 2.812218 162.883 4.081394 3 162.883 4.064965 3.187782 162.883 4.016178 3.369858 162.883 3.936515 3.540697 162.883 3.828396 3.695106 162.883 3.695106 3.828396 162.883 3.540697 3.936515 162.883 3.369858 4.016178 162.883 3.187782 4.064965 162.883 3 4.081394 162.883 2.812218 4.064965 162.883 2.630141 4.016178 162.883 2.459303 3.936515 162.883 2.304893 3.828396 162.883 2.171604 3.695106 162.883 2.063485 3.540697 162.883 1.983822 3.369858 162.883 1.935035 3.187782 162.883 1.918606 3 162.883 1.935035 2.812218 162.883 1.983822 2.630141 162.883 2.063485 2.459303 162.883 2.171604 2.304893 162.883 2.304893 2.171604 162.883 2.459303 2.063485 162.883 2.630141 1.983822 162.883 2.812218 1.935035 162.883 3 1.918606 162.8214 3.198484 1.874343 162.8214 3.390937 1.92591 162.8214 3.571511 2.010114 162.8214 3.73472 2.124394 162.8214 3.875606 2.26528 162.8214 3.989886 2.428489 162.8214 4.07409 2.609063 162.8214 4.125657 2.801516 162.8214 4.143022 3 162.8214 4.125657 3.198484 162.8214 4.07409 3.390937 162.8214 3.989886 3.571511 162.8214 3.875606 3.73472 162.8214 3.73472 3.875606 162.8214 3.571511 3.989886 162.8214 3.390937 4.07409 162.8214 3.198484 4.125657 162.8214 3 4.143022 162.8214 2.801516 4.125657 162.8214 2.609063 4.07409 162.8214 2.428489 3.989886 162.8214 2.26528 3.875606 162.8214 2.124394 3.73472 162.8214 2.010114 3.571511 162.8214 1.92591 3.390937 162.8214 1.874343 3.198484 162.8214 1.856978 3 162.8214 1.874343 2.801516 162.8214 1.92591 2.609063 162.8214 2.010114 2.428489 162.8214 2.124394 2.26528 162.8214 2.26528 2.124394 162.8214 2.428489 2.010114 162.8214 2.609063 1.92591 162.8214 2.801516 1.874343 162.8214 3 1.856978 162.75 3.207165 1.825112 162.75 3.408034 1.878935 162.75 3.596506 1.966821 162.75 3.766854 2.086099 162.75 3.913901 2.233146 162.75 4.033179 2.403494 162.75 4.121065 2.591966 162.75 4.174888 2.792835 162.75 4.193013 3 162.75 4.174888 3.207165 162.75 4.121065 3.408034 162.75 4.033179 3.596506 162.75 3.913901 3.766854 162.75 3.766854 3.913901 162.75 3.596506 4.033179 162.75 3.408034 4.121065 162.75 3.207165 4.174888 162.75 3 4.193013 162.75 2.792835 4.174888 162.75 2.591966 4.121065 162.75 2.403494 4.033179 162.75 2.233146 3.913901 162.75 2.086099 3.766854 162.75 1.966821 3.596506 162.75 1.878935 3.408034 162.75 1.825112 3.207165 162.75 1.806987 3 162.75 1.825112 2.792835 162.75 1.878935 2.591966 162.75 1.966821 2.403494 162.75 2.086099 2.233146 162.75 2.233146 2.086099 162.75 2.403494 1.966821 162.75 2.591966 1.878935 162.75 2.792835 1.825112 162.75 3 1.806987 162.671 3.213561 1.788838 162.671 3.420632 1.844323 162.671 3.614923 1.934922 162.671 3.79053 2.057883 162.671 3.942117 2.20947 162.671 4.065078 2.385077 162.671 4.155677 2.579368 162.671 4.211162 2.786439 162.671 4.229846 3 162.671 4.211162 3.213561 162.671 4.155677 3.420632 162.671 4.065078 3.614923 162.671 3.942117 3.79053 162.671 3.79053 3.942117 162.671 3.614923 4.065078 162.671 3.420632 4.155677 162.671 3.213561 4.211162 162.671 3 4.229846 162.671 2.786439 4.211162 162.671 2.579368 4.155677 162.671 2.385077 4.065078 162.671 2.20947 3.942117 162.671 2.057883 3.79053 162.671 1.934922 3.614923 162.671 1.844323 3.420632 162.671 1.788838 3.213561 162.671 1.770154 3 162.671 1.788838 2.786439 162.671 1.844323 2.579368 162.671 1.934922 2.385077 162.671 2.057883 2.20947 162.671 2.20947 2.057883 162.671 2.385077 1.934922 162.671 2.579368 1.844323 162.671 2.786439 1.788838 162.671 3 1.770154 162.5868 3.217478 1.766623 162.5868 3.428347 1.823125 162.5868 3.626202 1.915386 162.5868 3.80503 2.040603 162.5868 3.959397 2.19497 162.5868 4.084614 2.373798 162.5868 4.176875 2.571653 162.5868 4.233377 2.782522 162.5868 4.252404 3 162.5868 4.233377 3.217478 162.5868 4.176875 3.428347 162.5868 4.084614 3.626202 162.5868 3.959397 3.80503 162.5868 3.80503 3.959397 162.5868 3.626202 4.084614 162.5868 3.428347 4.176875 162.5868 3.217478 4.233377 162.5868 3 4.252404 162.5868 2.782522 4.233377 162.5868 2.571653 4.176875 162.5868 2.373798 4.084614 162.5868 2.19497 3.959397 162.5868 2.040603 3.80503 162.5868 1.915386 3.626202 162.5868 1.823125 3.428347 162.5868 1.766623 3.217478 162.5868 1.747596 3 162.5868 1.766623 2.782522 162.5868 1.823125 2.571653 162.5868 1.915386 2.373798 162.5868 2.040603 2.19497 162.5868 2.19497 2.040603 162.5868 2.373798 1.915386 162.5868 2.571653 1.823125 162.5868 2.782522 1.766623 162.5868 3 1.747596</float_array>
          <technique_common>
            <accessor source="#gripper_object3-mesh-positions-array" count="658" stride="3">
              <param name="X" type="float"/>
              <param name="Y" type="float"/>
              <param name="Z" type="float"/>
            </accessor>
          </technique_common>
        </source>
        <source id="gripper_object3-mesh-normals">
          <float_array id="gripper_object3-mesh-normals-array" count="3198">-1.24514e-4 -0.7181894 0.6958477 1.16001e-4 -0.7071069 0.7071067 0 -0.707107 0.7071066 0 -0.8191521 0.5735763 0 -0.8191519 0.5735766 0 -0.9063078 0.4226185 0 -0.9063078 0.4226183 0 -0.9659259 0.258819 0 -0.9961947 0.08715587 0 -0.9961947 0.08715587 0 -0.9961947 -0.08715587 0 -0.9961947 -0.08715587 0 -0.9659259 -0.258819 0 -0.9063078 -0.4226183 0 -0.9063078 -0.4226184 0 -0.8191519 -0.5735766 0 -0.8191521 -0.5735764 1.41579e-4 -0.718189 -0.6958482 0 -0.654808 -0.7557954 0 -0.7181894 0.6958478 0 -0.8191521 0.5735765 0 -0.819152 0.5735765 0 -0.9063077 0.4226186 0 -0.9063078 0.4226183 0 -0.9659259 0.258819 0 -0.9659259 0.2588189 0 -0.9961947 0.08715587 0 -0.9961948 0.08715587 0 -0.9961947 -0.08715587 0 -0.9961948 -0.08715587 0 -0.9659259 -0.2588191 0 -0.9659259 -0.258819 0 -0.9063078 -0.4226184 0 -0.8191519 -0.5735766 0 -0.8191521 -0.5735763 0 -0.7071068 -0.7071068 0 0.6547996 -0.7558026 -1.24506e-4 0.7181904 -0.6958467 0 0.7071062 -0.7071074 0 0.8191517 -0.5735771 0 0.8191524 -0.5735759 0 0.9063073 -0.4226196 0 0.9063079 -0.4226182 0 0.9659259 -0.258819 0 0.9961947 -0.08715659 0 0.996195 -0.08715313 0 0.996195 0.08715313 0 0.9961947 0.08715659 0 0.9659259 0.2588189 0 0.9063078 0.4226182 0 0.9063072 0.4226197 0 0.8191525 0.5735759 0 0.8191516 0.5735772 1.41579e-4 0.7181897 0.6958474 0 0.6548045 0.7557983 0 0.8191524 -0.573576 0 0.9063078 -0.4226184 0 0.9063078 -0.4226183 0 0.9659259 -0.258819 0 0.9659253 -0.2588208 0 0.9961948 -0.08715438 0 0.9961949 -0.08715438 0 0.9961948 0.08715438 0 0.9961949 0.08715438 0 0.9659253 0.2588208 0 0.965926 0.2588188 0 0.9063077 0.4226185 0 0.9063078 0.4226183 0 0.8191523 0.5735762 0 0.8191524 0.573576 0 0.7071058 0.7071079 0 0.7181906 0.6958464 -1.02007e-4 0.7071065 0.7071072 0 0.6548076 0.7557957 0 0.5735766 0.819152 0 0.5735766 0.8191519 0 0.4226179 0.9063079 0 0.4226186 0.9063076 0 0.2588191 0.9659258 0 0.0871554 0.9961947 0 -0.0871554 0.9961947 0 -0.258819 0.9659259 0 -0.2588194 0.9659258 0 -0.4226183 0.9063079 0 -0.4226183 0.9063079 0 -0.5735766 0.819152 0 -0.5735766 0.8191519 0 -0.6548076 0.7557957 0 -0.6548078 0.7557955 0 -0.7181894 -0.6958478 -1.02011e-4 -0.7071067 -0.7071069 0 -0.6548079 -0.7557954 0 -0.5735765 -0.819152 0 -0.5735765 -0.8191521 0 -0.4226183 -0.9063078 0 -0.4226183 -0.9063078 0 -0.2588192 -0.9659258 0 -0.2588188 -0.9659259 0 -0.08715593 -0.9961948 0 -0.08715587 -0.9961948 0 0.08715593 -0.9961948 0 0.08715587 -0.9961948 0 0.258819 -0.9659259 0 0.2588191 -0.9659259 0 0.4226186 -0.9063076 0 0.422618 -0.9063079 0 0.5735765 -0.819152 0 0.5735765 -0.8191521 0 0.6548079 -0.7557954 1.15995e-4 0.7071056 -0.7071081 0 0.7181894 -0.6958478 0 0.8191523 -0.5735762 0 0.0871576 0.9961946 0 0.2588174 0.9659264 0 0.4226177 0.9063081 0 0.5735775 0.8191514 0 0.5735761 0.8191523 0 0.7071076 0.7071061 0 0.7071061 0.7071075 0 0.8191534 0.5735746 0 0.8191507 0.5735784 0 0.9063071 0.4226199 0 0.9063093 0.4226151 0 0.9659262 0.2588177 0 0.9961943 0.08716112 0 0.9961947 0.0871554 0 0.9961947 -0.0871554 0 0.9961943 -0.08716112 0 0.9659262 -0.2588177 0 0.9063093 -0.4226151 0 0.9063071 -0.4226199 0 0.8191507 -0.5735784 0 0.8191534 -0.5735746 0 0.7071055 -0.707108 0 0.707107 -0.7071066 0 0.5735761 -0.8191523 0 0.5735775 -0.8191514 0 0.4226182 -0.9063078 0 0.2588185 -0.9659261 0 0.08715599 -0.9961947 0 -0.08715569 -0.9961948 0 -0.08715599 -0.9961947 0 -0.2588185 -0.9659261 0 -0.4226188 -0.9063076 0 -0.4226182 -0.9063078 0 -0.5735761 -0.8191523 0 -0.5735775 -0.8191514 0 -0.707107 -0.7071066 0 -0.7071063 -0.7071073 0 -0.819152 -0.5735765 0 -0.9063077 -0.4226187 0 -0.9659262 -0.2588177 0 -0.9961947 -0.08715683 0 -0.9961947 -0.0871554 0 -0.9961947 0.0871554 0 -0.9961947 0.08715683 0 -0.9659259 0.258819 0 -0.9659262 0.2588177 0 -0.9063077 0.4226187 0 -0.819152 0.5735765 0 -0.7071068 0.7071068 0 -0.7071076 0.7071061 0 -0.5735775 0.8191514 0 -0.5735761 0.8191523 0 -0.4226177 0.9063081 0 -0.4226183 0.9063078 0 -0.2588174 0.9659264 0 -0.0871576 0.9961946 0 -0.08715736 0.9961946 -1 0 0 -1 2.63026e-7 0 -1 -2.63027e-7 0 -1 -2.63026e-7 0 -1 2.63027e-7 0 -1 2.63026e-7 0 -1 -2.50501e-6 0 -1 -2.63026e-7 0 -1 0 0 -1 5.26053e-7 0 -1 -5.26053e-7 0 -1 0 0 -1 2.63026e-7 0 -1 2.63027e-7 0 -1 2.63026e-7 0 -1 -6.26254e-7 0 -1 2.63026e-7 0 -1 -2.63027e-7 0 -1 -6.57567e-7 0 -1 2.50501e-6 0 -1 -3.9454e-7 0 -1 3.9454e-7 0 -1 1.31513e-7 0 -1 -1.31513e-7 0 -1 -6.57566e-7 0 -1 1.31513e-7 0 1 0 0 1 2.44089e-5 0 1 -4.06815e-5 0 1 3.96643e-5 0 1 -8.13629e-5 0 1 9.15332e-6 0 1 -2.44089e-5 0 1 2.44088e-5 0 1 1.01704e-5 0 1 -2.03407e-5 0 1 2.03407e-5 0 1 -2.44089e-5 0 1 -2.44089e-5 0 1 4.06814e-5 0 1 -1.22044e-5 0 1 2.44089e-5 0 1 6.10221e-6 0 1 8.13628e-5 0 1 -6.10221e-6 0 1 -8.13628e-5 0 1 6.10221e-6 0 1 4.27155e-5 0 1 -2.44089e-5 0 1 -8.13628e-5 0 1 4.88177e-5 0 1 -5.08516e-6 0 1 -2.03407e-5 0 0 0.08715677 0.9961946 0 0.2588154 0.9659268 0 0.2588225 0.965925 0 0.4226134 0.9063102 0 0.4226192 0.9063073 0 0.5735778 0.8191512 0 0.5735787 0.8191506 0 0.7071077 0.7071059 0 0.7071086 0.7071051 0 0.8191509 0.5735783 0 0.9063042 0.422626 0 0.9063094 0.4226151 0 0.965925 0.2588226 0 0.9659263 0.2588173 0 0.9961948 0.08715593 0 0.9961948 0.08715468 0 0.9961948 -0.08715593 0 0.9961948 -0.08715468 0 0.9659244 -0.2588245 0 0.9659269 -0.2588155 0 0.9063042 -0.422626 0 0.9063094 -0.4226151 0 0.8191509 -0.5735783 0 0.7071086 -0.7071051 0 0.7071077 -0.7071059 0 0.5735738 -0.819154 0 0.5735826 -0.8191478 0 0.4226134 -0.9063102 0 0.4226192 -0.9063073 0 0.2588158 -0.9659267 0 0.258822 -0.9659251 0 0.08715498 -0.9961948 0 0.08715677 -0.9961946 0 -0.08715498 -0.9961948 0 -0.08715677 -0.9961946 0 -0.2588158 -0.9659267 0 -0.2588225 -0.965925 0 -0.422613 -0.9063103 0 -0.4226192 -0.9063073 0 -0.5735738 -0.819154 0 -0.5735826 -0.8191478 0 -0.7071077 -0.7071059 0 -0.7071081 -0.7071055 0 -0.8191512 -0.5735777 0 -0.9063039 -0.4226267 0 -0.906309 -0.4226158 0 -0.9659244 -0.2588245 0 -0.9659276 -0.258813 0 -0.9961946 -0.08715683 0 -0.9961948 -0.08715558 0 -0.9961946 0.08715683 0 -0.9961948 0.08715558 0 -0.9659256 0.2588201 0 -0.9659263 0.2588173 0 -0.9063039 0.4226267 0 -0.906309 0.4226158 0 -0.8191512 0.5735777 0 -0.7071081 0.7071055 0 -0.7071077 0.7071059 0 -0.5735778 0.8191512 0 -0.5735787 0.8191506 0 -0.4226134 0.9063102 0 -0.4226189 0.9063076 0 -0.2588158 0.9659267 0 -0.2588225 0.965925 0 -0.08715498 0.9961948 0 -0.08715677 0.9961946 0 0.08715498 0.9961948 1 8.07171e-6 0 1 1.61434e-5 0 1 3.22868e-5 0 1 -6.45739e-5 0 1 2.26008e-5 0 1 2.26008e-5 0 1 -1.29148e-4 0 1 2.82509e-5 0 1 6.21521e-5 0 1 -1.29147e-4 0 1 6.78024e-5 0 1 -2.26008e-5 0 1 4.52016e-5 0 1 1.29147e-4 0 1 -4.52016e-5 0 1 -3.22868e-5 0 1 -8.07171e-6 0 1 -1.61434e-5 0 1 6.45737e-5 0 1 2.26008e-5 0 1 -6.78024e-5 0 1 1.69506e-5 0 1 -1.69506e-5 0 1 -2.26008e-5 0 1 2.26008e-5 0 1 -4.52016e-5 0 1 4.52016e-5 0 1 4.52016e-5 0 1 1.90166e-5 0 1 -1.90166e-5 0 1 -3.80332e-5 0 1 3.80331e-5 0 1 3.80332e-5 0 1 -3.80333e-5 0 1 3.80332e-5 0 1 7.60662e-5 0 1 -7.60662e-5 0 1 3.80333e-5 0 1 -3.80332e-5 0 1 -3.80331e-5 0 0 0.08715724 0.9961947 0 0.2588161 0.9659267 0 0.258819 0.9659259 0 0.4226179 0.906308 0 0.4226192 0.9063073 0 0.573571 0.8191559 0 0.5735822 0.819148 0 0.7071053 0.7071084 0 0.7071084 0.7071053 0 0.8191525 0.573576 0 0.8191515 0.5735772 0 0.9063063 0.4226216 0 0.9063086 0.4226167 0 0.9659267 0.2588161 0 0.9659259 0.258819 0 0.9961944 0.08715879 0 0.9961947 0.08715569 0 0.9961947 -0.08715569 0 0.9961944 -0.08715879 0 0.9659267 -0.2588161 0 0.9063075 -0.4226191 0 0.9063073 -0.4226192 0 0.8191494 -0.5735802 0 0.8191545 -0.5735731 0 0.7071021 -0.7071114 0 0.7071084 -0.7071053 0 0.573574 -0.8191539 0 0.5735794 -0.8191501 0 0.4226167 -0.9063086 0 0.4226204 -0.9063069 0 0.08715492 -0.9961948 0 0.08715671 -0.9961946 0 -0.08715522 -0.9961948 0 -0.08715659 -0.9961947 0 -0.258819 -0.9659259 0 -0.4226167 -0.9063086 0 -0.4226192 -0.9063073 0 -0.5735725 -0.8191548 0 -0.5735815 -0.8191485 0 -0.7071029 -0.7071107 0 -0.7071084 -0.7071053 0 -0.819151 -0.5735781 0 -0.8191537 -0.5735741 0 -0.9063069 -0.4226204 0 -0.9063073 -0.4226192 0 -0.9659259 -0.258819 0 -0.9659262 -0.2588175 0 -0.9961947 -0.08715724 0 -0.9961948 -0.08715415 0 -0.9961948 0.08715415 0 -0.9961947 0.08715724 0 -0.9659262 0.2588175 0 -0.9659259 0.258819 0 -0.9063063 0.4226216 0 -0.9063079 0.4226179 0 -0.8191516 0.5735771 0 -0.819153 0.5735752 0 -0.7071053 0.7071084 0 -0.7071091 0.7071045 0 -0.5735732 0.8191543 0 -0.5735808 0.819149 0 -0.4226167 0.9063086 0 -0.4226192 0.9063073 0 -0.2588161 0.9659267 0 -0.258819 0.9659259 0 -0.08715736 0.9961946 0 -0.08715748 0.9961946 0 0.08715748 0.9961946 -1 -4.57777e-5 0 -1 3.31765e-6 0 -1 -1.97858e-5 0 -1 -1.08207e-4 0 1 -2.32236e-5 0 1 4.57777e-5 0 1 5.49381e-5 0 1 2.30146e-5 0 1 -1.69574e-5 0 0 1 0 0.996163 0.007627665 -0.08718472 0.9961636 0.02262061 -0.08453613 0.9961616 0.02271711 -0.08453506 0.9961605 0.03705549 -0.07931733 0.9961633 0.03697794 -0.07931822 0.9961654 0.0501517 -0.0716896 0.9961524 0.05040895 -0.07168978 0.9961798 0.06161212 -0.06188565 0.9961651 0.06185042 -0.0618841 0.9961602 0.07173013 -0.05019778 0.9961671 0.07163447 -0.05019825 0.9961746 0.07917213 -0.03698694 0.9961609 0.07934463 -0.03698647 0.9961636 0.08452904 -0.02265095 0.9961568 0.08460885 -0.02265101 0.9961611 0.0872069 -0.007627427 0.9961599 0.08722144 -0.007627725 0.9961611 0.08720731 0.007627487 0.9961634 0.08717983 0.007627665 0.9961636 0.08452904 0.02265095 0.9961673 0.08448511 0.02265119 0.9961746 0.07917213 0.03698724 0.9961478 0.07950937 0.03698569 0.9961813 0.07143414 0.05019891 0.9961552 0.07179963 0.05019778 0.9961431 0.06220453 0.06188249 0.9961753 0.06168556 0.06188541 0.9961653 0.05015194 0.07169026 0.9961524 0.05040866 0.07168912 0.9961605 0.03705567 0.07931768 0.9961634 0.03697788 0.07931804 0.9961621 0.02269476 0.08453547 0.9961653 0.02255153 0.08453553 0.9961635 0.007552504 0.08718496 0.996163 0.007627665 0.0871843 0.9961636 -0.007552504 0.08718472 0.996163 -0.007627665 0.08718472 0.9961637 -0.02262037 0.0845353 0.9961616 -0.02271723 0.08453547 0.9961605 -0.03705549 0.07931733 0.9961634 -0.03697794 0.0793178 0.9961578 -0.05030035 0.07168972 0.9961608 -0.05024331 0.07169002 0.9961615 -0.06190836 0.06188422 0.9961651 -0.06185042 0.0618841 0.9961601 -0.07173025 0.05019789 0.9961611 -0.07171732 0.05019819 0.9961746 -0.07917213 0.03698694 0.9961478 -0.07950901 0.03698581 0.9961636 -0.08452922 0.02265101 0.9961568 -0.08460861 0.02265095 0.9961611 -0.08720713 0.007627487 0.9961599 -0.08722144 0.007627725 0.9961611 -0.08720731 -0.007627487 0.9961635 -0.0871796 -0.007627665 0.9961636 -0.08452922 -0.02265101 0.9961673 -0.08448511 -0.02265119 0.9961746 -0.07917213 -0.03698724 0.9961674 -0.07926225 -0.03698641 0.9961813 -0.07143402 -0.05019909 0.9961552 -0.07179945 -0.05019736 0.9961798 -0.06161189 -0.06188511 0.996165 -0.0618506 -0.06188458 0.9961653 -0.05015194 -0.07169026 0.9961525 -0.0504086 -0.07168936 0.9961606 -0.03705549 -0.07931703 0.9961634 -0.03697788 -0.07931804 0.9961621 -0.02269488 -0.08453589 0.9961653 -0.02255153 -0.08453553 0.9961636 -0.007552504 -0.0871846 0.996163 -0.007627665 -0.0871843 0.9961637 0.007552504 -0.0871843 0.9656929 0.02261573 -0.2587004 0.9656941 0.06719338 -0.2508388 0.9656906 0.0672515 -0.2508366 0.9656924 0.1097549 -0.2353553 0.9657025 0.1096577 -0.235359 0.9657049 0.1488686 -0.2127256 0.9656953 0.1489358 -0.2127224 0.9656655 0.1837767 -0.1836203 0.9656707 0.1837477 -0.1836222 0.9656888 0.2127428 -0.1489493 0.9656688 0.212835 -0.1489464 0.9656646 0.2354743 -0.1097453 0.965687 0.2353802 -0.1097486 0.9656763 0.2509028 -0.06721061 0.9657248 0.250715 -0.06721341 0.9656784 0.258753 -0.022632 0.9657193 0.2586001 -0.02263379 0.9657458 0.2585013 0.02263468 0.9656549 0.2588408 0.02263087 0.9657416 0.2506496 0.06721532 0.9656889 0.2508539 0.06721073 0.9656648 0.2354728 0.1097456 0.9656869 0.2353813 0.109748 0.9656888 0.2127423 0.148949 0.9656841 0.212764 0.1489487 0.965665 0.1837775 0.1836221 0.9656973 0.183604 0.1836261 0.9657049 0.1488686 0.2127256 0.9656951 0.1489361 0.2127229 0.9656783 0.1098886 0.2353508 0.9657025 0.1096572 0.2353593 0.9656903 0.0672602 0.2508355 0.9657003 0.06710332 0.2508389 0.9656931 0.02263438 0.2586983 0.9656936 0.02261561 0.2586978 0.9656904 -0.02276968 0.2586965 0.9656961 -0.02246701 0.2587013 0.9656901 -0.0672602 0.2508361 0.9656903 -0.0672518 0.2508377 0.9656921 -0.1097558 0.2353562 0.9657024 -0.1096576 0.2353595 0.9657049 -0.1488686 0.2127262 0.9657167 -0.1487907 0.2127271 0.9656655 -0.1837767 0.1836203 0.9656703 -0.183749 0.1836228 0.9656882 -0.2127441 0.1489502 0.965654 -0.2129046 0.1489436 0.9656647 -0.2354738 0.1097445 0.9656872 -0.2353796 0.1097484 0.9657416 -0.2506496 0.06721478 0.96568 -0.2508888 0.06721073 0.9656782 -0.2587537 0.02263259 0.9657193 -0.2586001 0.02263379 0.965678 -0.2587544 -0.02263265 0.9656826 -0.2587373 -0.02263271 0.9657413 -0.2506507 -0.06721556 0.9656889 -0.2508539 -0.06721073 0.9657261 -0.2352181 -0.1097531 0.9656365 -0.2355911 -0.1097411 0.9656888 -0.2127428 -0.1489493 0.9656842 -0.2127635 -0.148949 0.9656655 -0.1837767 -0.1836203 0.9656706 -0.1837481 -0.183622 0.9656858 -0.1490004 -0.2127205 0.9657163 -0.1487911 -0.2127283 0.965678 -0.109889 -0.2353518 0.9657025 -0.1096575 -0.2353593 0.9657025 -0.06705868 -0.2508425 0.9656909 -0.0672515 -0.2508354 0.9656919 -0.0226683 -0.2586991 0.965693 -0.02261584 -0.2587001 0.965692 0.02266842 -0.2586992 0.905685 0.03692924 -0.4223398 0.9056785 0.1097915 -0.4095028 0.9056866 0.1097061 -0.4095075 0.9057027 0.1790627 -0.3842386 0.9056732 0.1792347 -0.3842281 0.9056876 0.2431533 -0.3472844 0.9056729 0.243218 -0.3472777 0.9057564 0.2995377 -0.2998046 0.9056879 0.2997661 -0.299783 0.9057274 0.3471618 -0.2431805 0.9056955 0.34725 -0.2431731 0.9057446 0.3840833 -0.1791837 0.9056814 0.3842399 -0.1791676 0.9055968 0.409703 -0.1097176 0.9057359 0.4093912 -0.1097332 0.9056373 0.4224403 -0.03694832 0.9056913 0.4223245 -0.03695082 0.9057334 0.4222339 0.03695398 0.9056009 0.422519 0.03694504 0.9056888 0.4094965 0.1097291 0.9056724 0.4095336 0.1097261 0.9056585 0.3842946 0.1791658 0.9057515 0.3840676 0.1791819 0.9057274 0.3471618 0.2431805 0.9056537 0.3473677 0.2431607 0.9056892 0.2997636 0.2997812 0.9056875 0.2997667 0.2997836 0.905689 0.2431526 0.3472816 0.9057026 0.2430899 0.3472899 0.9056814 0.1791848 0.3842319 0.9056949 0.1791035 0.3842379 0.9056767 0.1097922 0.4095066 0.905686 0.1097068 0.4095087 0.9056824 0.03697168 0.4223418 0.9056848 0.03692942 0.4223405 0.9056842 -0.03697144 0.4223381 0.9056842 -0.0369296 0.4223414 0.9056777 -0.1097913 0.4095044 0.9056866 -0.1097061 0.4095075 0.9056825 -0.1791835 0.38423 0.9056941 -0.1791046 0.3842391 0.9056872 -0.2431542 0.3472848 0.9056736 -0.2432162 0.3472772 0.9056886 -0.2997647 0.2997822 0.9056878 -0.2997674 0.2997822 0.9057267 -0.3471631 0.2431813 0.9056537 -0.3473677 0.2431607 0.9057448 -0.3840826 0.1791843 0.905681 -0.3842406 0.1791679 0.9056895 -0.4094951 0.1097288 0.9056348 -0.409618 0.1097215 0.9056385 -0.4224383 0.03694617 0.9056913 -0.4223245 0.03695082 0.9056378 -0.4224398 -0.0369473 0.9057043 -0.4222968 -0.03695029 0.90569 -0.409494 -0.1097285 0.9056724 -0.4095336 -0.1097261 0.9057451 -0.3840827 -0.1791824 0.9056567 -0.3842988 -0.1791657 0.9056482 -0.3473824 -0.2431603 0.9057381 -0.3471311 -0.2431845 0.9056881 -0.2997658 -0.2997824 0.9057242 -0.2996439 -0.299795 0.9056876 -0.2431533 -0.3472844 0.9056729 -0.2432174 -0.3472779 0.9056817 -0.1791841 -0.3842313 0.9056953 -0.1791036 -0.384237 0.9056788 -0.1097911 -0.4095022 0.9056867 -0.1097059 -0.4095075 0.9056853 -0.03694033 -0.4223386 0.9056897 -0.03679436 -0.4223418 0.9056853 0.03694033 -0.4223386 0.8181319 0.05022352 -0.5728332 0.8181454 0.148757 -0.5554363 0.8181406 0.1488025 -0.5554312 0.8181121 0.2431439 -0.5211275 0.8181346 0.2430186 -0.5211504 0.8181877 0.3296555 -0.4710588 0.8181196 0.329875 -0.4710233 0.8181096 0.4066742 -0.4065869 0.8180993 0.4066964 -0.4065855 0.8181729 0.4709612 -0.3298314 0.8181177 0.4710698 -0.3298131 0.8181037 0.521205 -0.2430054 0.8181105 0.5211942 -0.2430061 0.8181302 0.5554398 -0.1488281 0.8181557 0.5554021 -0.1488285 0.8181051 0.572881 -0.05011397 0.8181642 0.5727963 -0.05012041 0.8181033 0.5728836 0.050116 0.8181217 0.5728573 0.05011564 0.8181306 0.5554401 0.1488246 0.8180832 0.5555113 0.1488199 0.8181037 0.521205 0.2430054 0.8181497 0.521127 0.2430183 0.8181724 0.4709609 0.329833 0.8181896 0.4709253 0.329841 0.818106 0.4066779 0.4065906 0.8181646 0.4065371 0.4066131 0.8181241 0.3298627 0.471024 0.8181204 0.3298753 0.4710218 0.8181315 0.2430366 0.5211468 0.8181349 0.2430185 0.52115 0.8181205 0.1489291 0.5554268 0.8181594 0.1486793 0.5554366 0.818136 0.05010908 0.5728374 0.8181328 0.05022341 0.572832 0.8181335 -0.05010938 0.5728408 0.8181343 -0.05022323 0.5728299 0.8181348 -0.1488152 0.5554365 0.8181422 -0.1488019 0.5554292 0.8181547 -0.242927 0.5211616 0.8181112 -0.2431355 0.5211327 0.8181245 -0.3298628 0.4710234 0.8181203 -0.3298745 0.4710226 0.8181864 -0.4064814 0.4066251 0.8181419 -0.4065911 0.4066047 0.8181734 -0.4709594 0.3298329 0.8181884 -0.4709269 0.329842 0.8181036 -0.5212049 0.2430062 0.8181111 -0.5211934 0.2430057 0.8181304 -0.55544 0.1488263 0.8181117 -0.5554684 0.1488232 0.8181043 -0.5728823 0.05011409 0.8181648 -0.5727954 0.05011838 0.8181042 -0.5728822 -0.05011498 0.818194 -0.5727536 -0.05011922 0.8181298 -0.5554409 -0.1488257 0.8181978 -0.5553372 -0.1488391 0.8181043 -0.5212042 -0.243005 0.8181242 -0.5211706 -0.2430106 0.8181737 -0.4709596 -0.3298321 0.8180946 -0.4711177 -0.329802 0.8181074 -0.4066768 -0.4065886 0.8180807 -0.4067466 -0.4065724 0.8181857 -0.3296562 -0.4710616 0.8180876 -0.3299852 -0.4710017 0.8181105 -0.2431445 -0.5211297 0.8181359 -0.2430186 -0.5211484 0.8181537 -0.1486997 -0.5554394 0.8181393 -0.1488029 -0.5554329 0.8181359 -0.05013793 -0.5728349 0.8181366 -0.05009925 -0.5728374 0.8181408 0.05002182 -0.5728382 0.7057458 0.06176429 -0.7057678 0.7057504 0.1833369 -0.6843274 0.7057379 0.1834301 -0.6843153 0.7057422 0.2994322 -0.6420812 0.7057209 0.299509 -0.6420689 0.7057653 0.4063012 -0.5803575 0.705699 0.4065002 -0.5802987 0.7058364 0.5007712 -0.5010223 0.7057177 0.5010185 -0.5009422 0.7057265 0.5803697 -0.4063513 0.705689 0.580433 -0.4063259 0.7057818 0.6420413 -0.2994247 0.7057288 0.6421106 -0.2994009 0.7057772 0.6842916 -0.1833676 0.7057031 0.684371 -0.1833562 0.7058216 0.705693 -0.06175291 0.705725 0.7057904 -0.06174427 0.7058233 0.7056913 0.06175279 0.7057231 0.7057921 0.06174445 0.7058809 0.684177 0.1833958 0.7056216 0.6844611 0.1833336 0.7058826 0.6419097 0.2994694 0.7056741 0.6421821 0.2993764 0.7058183 0.5802223 0.4064022 0.7056386 0.5805123 0.4063001 0.7058346 0.5007724 0.5010235 0.7056377 0.5011911 0.5008822 0.705766 0.4063016 0.5803564 0.7057631 0.4063066 0.5803562 0.7057672 0.2993314 0.6421008 0.7057237 0.2995079 0.6420664 0.7057564 0.1833359 0.6843216 0.7057511 0.1833177 0.6843318 0.7057445 0.0617907 0.7057668 0.7057459 0.06176429 0.7057677 0.7057503 -0.06173557 0.7057657 0.7057438 -0.06176447 0.7057697 0.7057486 -0.1833374 0.6843291 0.7057473 -0.1834277 0.6843063 0.7057707 -0.2993299 0.6420977 0.7057227 -0.2995083 0.6420672 0.7057688 -0.4062992 0.5803547 0.7057449 -0.4063569 0.5803432 0.7057603 -0.5009349 0.5009659 0.705677 -0.5011053 0.5009127 0.7057299 -0.5803668 0.4063493 0.7056871 -0.5804345 0.406327 0.7057818 -0.6420413 0.2994247 0.7057281 -0.6421116 0.2994005 0.7057759 -0.684292 0.1833711 0.7057042 -0.6843703 0.1833542 0.705823 -0.7056915 0.06175363 0.7057259 -0.7057895 0.06174331 0.7058239 -0.7056906 -0.06175273 0.705725 -0.7057904 -0.06174427 0.7058813 -0.6841757 -0.1833989 0.7056209 -0.6844623 -0.1833321 0.705883 -0.6419101 -0.2994671 0.7056738 -0.6421818 -0.299378 0.7058183 -0.5802223 -0.4064022 0.7056399 -0.5805112 -0.4062993 0.705838 -0.50077 -0.501021 0.705698 -0.5010614 -0.5009269 0.705766 -0.4063016 -0.5803564 0.7056982 -0.4064998 -0.5802999 0.7057638 -0.2993328 -0.6421039 0.7057238 -0.2995077 -0.6420662 0.7057529 -0.1833367 -0.6843249 0.7057361 -0.1834301 -0.6843173 0.7057456 -0.06176328 -0.705768 0.7057527 -0.06164824 -0.7057709 0.7057498 0.06170833 -0.7057687 0.5720992 0.07148289 -0.8170635 0.5720944 0.21231 -0.7922326 0.5720981 0.2122503 -0.792246 0.5720906 0.3466498 -0.7433346 0.5721179 0.346539 -0.7433652 0.5720673 0.470534 -0.6718161 0.5721468 0.4702892 -0.6719198 0.5720375 0.5800806 -0.5798963 0.5721774 0.5798026 -0.5800364 0.5721187 0.6718304 -0.4704511 0.5721521 0.6717801 -0.4704825 0.5719559 0.7434886 -0.3465418 0.5721933 0.7432415 -0.3466801 0.572048 0.7922787 -0.2122631 0.5721375 0.7922058 -0.2122939 0.5720281 0.8171137 -0.0714783 0.5721836 0.8170035 -0.07149326 0.5720297 0.8171125 0.07147824 0.5721374 0.8170363 0.07148772 0.5718597 0.7924346 0.2121887 0.5722532 0.7921094 0.2123416 0.5718698 0.7435831 0.346481 0.5722497 0.7431785 0.3467218 0.5721187 0.6718304 0.4704511 0.5721297 0.6718109 0.4704656 0.5720353 0.5800817 0.5798974 0.5721409 0.5798757 0.5799993 0.572066 0.470533 0.6718179 0.5721498 0.4702896 0.6719169 0.5720951 0.3466485 0.7433318 0.5720911 0.3466372 0.74334 0.5720831 0.2124099 0.7922141 0.5721119 0.2121456 0.792264 0.5720921 0.07146459 0.8170701 0.5721062 0.0714823 0.8170587 0.572098 -0.07151633 0.8170614 0.5720992 -0.07148289 0.8170635 0.5720966 -0.2123095 0.7922311 0.5720987 -0.2122502 0.7922456 0.5720653 -0.3467438 0.7433102 0.5721198 -0.3465378 0.7433644 0.5720679 -0.4705345 0.6718152 0.5721337 -0.4703313 0.6719014 0.5720397 -0.5800795 0.5798951 0.572175 -0.5798037 0.5800374 0.5721183 -0.6718298 0.4704524 0.5721521 -0.6717801 0.4704825 0.5719559 -0.7434886 0.3465418 0.5721935 -0.7432407 0.3466815 0.5720493 -0.7922783 0.2122613 0.5721375 -0.7922058 0.2122939 0.5720282 -0.8171139 0.07147502 0.5721836 -0.8170035 0.07149326 0.5720288 -0.8171135 -0.07147502 0.5721374 -0.8170363 -0.07148772 0.5718584 -0.7924351 -0.2121905 0.5722554 -0.792109 -0.212338 0.5718685 -0.7435815 -0.3464868 0.5722502 -0.7431802 -0.3467174 0.5721178 -0.6718293 -0.4704537 0.5721291 -0.6718121 -0.4704647 0.5720375 -0.5800806 -0.5798963 0.5721573 -0.57984 -0.5800187 0.5720644 -0.4705343 -0.6718182 0.5721501 -0.4702895 -0.6719167 0.5721108 -0.3465566 -0.7433624 0.5720964 -0.3466357 -0.7433367 0.5720809 -0.2124103 -0.7922155 0.5721143 -0.2121452 -0.7922625 0.5720987 -0.07146418 -0.8170655 0.5720947 -0.07159215 -0.817057 0.5720937 0.0715689 -0.8170598 0.4213424 0.07904154 -0.9034507 0.4213361 0.2347705 -0.8759902 0.421339 0.2347532 -0.8759934 0.421351 0.3832268 -0.8219493 0.4213292 0.3833466 -0.8219046 0.4213795 0.5200592 -0.7429522 0.4213454 0.5201719 -0.7428925 0.4213136 0.6413401 -0.6412315 0.421357 0.6412354 -0.6413077 0.4213268 0.7429129 -0.5201578 0.4213079 0.7429395 -0.5201353 0.4213121 0.8219597 -0.3832473 0.4213958 0.8218799 -0.3833265 0.4214318 0.8759433 -0.2347736 0.421355 0.8759918 -0.2347304 0.4211497 0.9035434 -0.07900768 0.4214354 0.9034059 -0.07905852 0.4213089 0.9034668 0.07903671 0.4213211 0.903461 0.07903802 0.4214331 0.8759427 0.2347735 0.4213355 0.876004 0.2347196 0.4213134 0.8219591 0.383247 0.4214258 0.821853 0.3833508 0.4213295 0.7429119 0.5201571 0.4213402 0.7428925 0.5201762 0.4213688 0.6412197 0.6413155 0.4213418 0.6412798 0.6412732 0.4213805 0.5200604 0.7429507 0.421307 0.5202866 0.742834 0.4213525 0.3832253 0.8219493 0.4213286 0.383348 0.8219043 0.4213436 0.2346743 0.8760124 0.4213379 0.2347533 0.875994 0.4213413 0.0789991 0.9034548 0.4213436 0.07909363 0.9034456 0.4213451 -0.07902413 0.9034509 0.4213398 -0.07904165 0.9034518 0.4213341 -0.2347711 0.875991 0.4213384 -0.2347037 0.876007 0.4213324 -0.383315 0.8219178 0.4213581 -0.3832105 0.8219532 0.4213399 -0.5202068 0.7428712 0.4213157 -0.5202497 0.7428549 0.4213688 -0.6412197 0.6413155 0.4213631 -0.6412358 0.6413033 0.4213265 -0.7429123 0.520159 0.4213333 -0.7429023 0.5201678 0.4213842 -0.8218929 0.3833113 0.4213416 -0.8219322 0.3832739 0.421433 -0.8759425 0.234775 0.4213563 -0.8759912 0.2347303 0.4211518 -0.9035426 0.07900601 0.4214327 -0.903407 0.07906025 0.4213066 -0.9034678 -0.07903683 0.4213225 -0.9034603 -0.07903796 0.421433 -0.8759425 -0.234775 0.421355 -0.8759918 -0.2347304 0.4213108 -0.8219602 -0.3832475 0.421451 -0.8218296 -0.3833734 0.4213238 -0.7429133 -0.5201597 0.4213415 -0.7428905 -0.520178 0.421367 -0.6412219 -0.6413145 0.4213131 -0.6413427 -0.6412292 0.4213346 -0.5202082 -0.7428731 0.4213676 -0.5200945 -0.7429341 0.4213339 -0.3833135 -0.8219176 0.4213446 -0.3832577 -0.8219381 0.4213463 -0.234674 -0.8760112 0.4213354 -0.2348028 -0.8759819 0.4213449 -0.07904964 -0.9034488 0.4213426 -0.07904142 -0.9034506 0.4213442 0.07904952 -0.9034491 0.2578623 0.0842294 -0.9625033 0.257861 0.250044 -0.9332662 0.2578668 0.2500827 -0.9332543 0.257874 0.4082621 -0.8756843 0.2578567 0.4083964 -0.8756268 0.2578871 0.5540696 -0.7915182 0.2578458 0.5542681 -0.7913928 0.2578718 0.6831715 -0.6832122 0.2578576 0.6832121 -0.683177 0.2578686 0.7914425 -0.5541865 0.2578601 0.7914617 -0.5541629 0.2579143 0.875609 -0.4083986 0.2578392 0.8756864 -0.40828 0.2578834 0.9332507 -0.2500786 0.2578319 0.9332774 -0.2500322 0.2578738 0.9625017 -0.0842126 0.2579485 0.9624794 -0.08423864 0.2578704 0.9625025 0.08421266 0.2579103 0.9624908 0.08422511 0.2577855 0.9333029 0.2499851 0.2579056 0.9332379 0.2501037 0.2579157 0.8756086 0.4083984 0.2578131 0.8757109 0.4082438 0.2578682 0.7914412 0.5541886 0.2578654 0.7914495 0.554178 0.2578394 0.6832779 0.6831181 0.2578793 0.6831442 0.6832367 0.257862 0.5542095 0.7914285 0.2578576 0.5541963 0.7914392 0.2578703 0.4082613 0.8756858 0.2578586 0.4083764 0.8756356 0.2578633 0.2501374 0.9332405 0.2578687 0.2500349 0.9332665 0.2578623 0.0841912 0.9625065 0.2578627 0.08425474 0.962501 0.2578618 -0.08421611 0.9625046 0.2578657 -0.08422946 0.9625024 0.2578629 -0.250137 0.9332407 0.2578697 -0.2500833 0.9332533 0.2578703 -0.4082613 0.8756858 0.2578654 -0.4083529 0.8756446 0.2578682 -0.5542094 0.7914267 0.2578682 -0.5541254 0.7914854 0.257875 -0.6831717 0.6832109 0.2578579 -0.683212 0.6831769 0.2578657 -0.7914432 0.5541869 0.2578462 -0.7914879 0.5541319 0.2578219 -0.8757017 0.4082579 0.2578685 -0.8756536 0.4083318 0.2578805 -0.9332515 0.2500788 0.257831 -0.9332772 0.2500337 0.2578723 -0.9625021 0.08421111 0.2579531 -0.9624783 0.08423691 0.2578745 -0.9625015 -0.08421105 0.2579096 -0.9624912 -0.08422356 0.2577825 -0.9333032 -0.2499868 0.257891 -0.933246 -0.2500887 0.2578248 -0.875701 -0.4082576 0.2578938 -0.8756292 -0.4083679 0.2578686 -0.7914425 -0.5541865 0.257866 -0.7914501 -0.5541768 0.2578367 -0.6832791 -0.6831178 0.2578795 -0.6831441 -0.6832367 0.2578585 -0.5542086 -0.7914304 0.2578699 -0.5541617 -0.7914595 0.257862 -0.4083434 -0.8756501 0.2578729 -0.4082903 -0.8756716 0.2578669 -0.2500436 -0.9332647 0.2578582 -0.2501075 -0.93325 0.257866 -0.08419144 -0.9625056 0.2578629 -0.08422929 -0.9625031 0.2578653 0.08419114 -0.9625058 0.08682966 0.08681637 -0.9924331 0.08683001 0.2577871 -0.9622923 0.08683013 0.2578654 -0.9622712 0.0868262 0.421006 -0.9028928 0.0868262 0.4210871 -0.9028549 0.08683061 0.5713809 -0.8160787 0.08682054 0.5715137 -0.8159867 0.08682519 0.704466 -0.7044069 0.08683669 0.7043825 -0.704489 0.08684289 0.8160026 -0.5714877 0.08683055 0.8160592 -0.5714087 0.08680641 0.9029399 -0.4209089 0.08683884 0.9028639 -0.4210653 0.0868386 0.9622709 -0.2578641 0.08683639 0.9622704 -0.2578666 0.08682382 0.9924326 -0.08682847 0.08682888 0.9924333 -0.08681595 0.08682924 0.9924327 0.08682227 0.08683902 0.9924305 0.086838 0.0868355 0.9622712 0.2578642 0.08684784 0.9622631 0.2578902 0.08680486 0.9029399 0.4209089 0.08683526 0.9028754 0.4210415 0.08683997 0.8160042 0.5714858 0.08683049 0.8160578 0.5714108 0.08682519 0.704466 0.7044069 0.08683311 0.7043576 0.7045143 0.08683085 0.5713824 0.8160777 0.08682274 0.5714533 0.8160289 0.08682566 0.4210878 0.9028546 0.08683782 0.420994 0.9028971 0.08682751 0.2578793 0.9622678 0.08682936 0.2577961 0.96229 0.0868225 0.08681631 0.9924339 0.08684116 0.08684116 0.99243 0.0868349 -0.08681619 0.9924328 0.08682954 -0.08682882 0.9924321 0.08683001 -0.2577871 0.9622923 0.08682852 -0.2578074 0.962287 0.0868417 -0.4210054 0.9028915 0.08682668 -0.4210048 0.9028933 0.08683681 -0.5713806 0.8160783 0.08681732 -0.5714711 0.816017 0.08682507 -0.7044653 0.7044077 0.0868318 -0.7043828 0.7044893 0.08684003 -0.8160049 0.5714847 0.08683043 -0.8160585 0.5714098 0.08680808 -0.902941 0.4209063 0.08683693 -0.9028621 0.4210692 0.08683544 -0.9622703 0.2578671 0.08683836 -0.962271 0.2578637 0.08682465 -0.992433 0.08682382 0.08682495 -0.992433 0.08682376 0.08682543 -0.9924328 -0.08682382 0.08684015 -0.9924303 -0.08683955 0.08683705 -0.962271 -0.2578642 0.08684492 -0.9622632 -0.2578903 0.08680343 -0.9029412 -0.4209064 0.08683502 -0.9028735 -0.4210453 0.08684301 -0.816004 -0.5714856 0.08682924 -0.8160592 -0.5714088 0.08682197 -0.7044655 -0.7044078 0.08683091 -0.7044267 -0.7044455 0.08682096 -0.5715165 -0.8159847 0.08682566 -0.5714524 -0.8160291 0.08682566 -0.4210878 -0.9028546 0.08682709 -0.4210253 -0.9028836 0.08683001 -0.2577871 -0.9622923 0.08683151 -0.2578307 -0.9622805 0.0868287 -0.08681625 -0.9924333 0.08682882 -0.08682882 -0.9924321 0.08682852 0.08684098 -0.9924312 -1 9.15556e-5 0 -1 -6.96707e-5 0 -1 5.41035e-5 0 1 4.97648e-5 0 1 -9.15556e-5 0 1 3.39149e-5 0 1 -2.30146e-5 0 1 1.68225e-5 0 1 -5.49381e-5 0 0 -1 0</float_array>
          <technique_common>
            <accessor source="#gripper_object3-mesh-normals-array" count="1066" stride="3">
              <param name="X" type="float"/>
              <param name="Y" type="float"/>
              <param name="Z" type="float"/>
            </accessor>
          </technique_common>
        </source>
        <vertices id="gripper_object3-mesh-vertices">
          <input semantic="POSITION" source="#gripper_object3-mesh-positions"/>
        </vertices>
        <triangles count="1312">
          <input semantic="VERTEX" source="#gripper_object3-mesh-vertices" offset="0"/>
          <input semantic="NORMAL" source="#gripper_object3-mesh-normals" offset="1"/>
          <p>0 0 1 0 2 0 3 1 4 1 5 1 2 2 6 2 0 2 0 3 6 3 7 3 0 4 7 4 8 4 8 5 7 5 9 5 8 6 9 6 10 6 10 7 9 7 11 7 10 7 11 7 12 7 12 8 11 8 13 8 12 9 13 9 14 9 14 10 13 10 15 10 14 11 15 11 16 11 16 12 15 12 17 12 16 12 17 12 18 12 18 13 17 13 19 13 18 14 19 14 20 14 20 15 19 15 21 15 20 16 21 16 22 16 23 17 24 17 25 17 25 18 24 18 26 18 3 19 27 19 4 19 4 20 27 20 28 20 4 21 28 21 29 21 29 22 28 22 30 22 29 23 30 23 31 23 31 24 30 24 32 24 31 25 32 25 33 25 33 26 32 26 34 26 33 27 34 27 35 27 35 28 34 28 36 28 35 29 36 29 37 29 37 30 36 30 38 30 37 31 38 31 39 31 39 32 38 32 40 32 39 14 40 14 41 14 41 33 40 33 23 33 41 34 23 34 42 34 42 35 23 35 25 35 43 36 44 36 45 36 43 37 45 37 46 37 45 38 47 38 46 38 46 39 47 39 48 39 46 40 48 40 49 40 49 41 48 41 50 41 49 42 50 42 51 42 51 43 50 43 52 43 51 43 52 43 53 43 53 44 52 44 54 44 53 45 54 45 55 45 55 46 54 46 56 46 55 47 56 47 57 47 57 48 56 48 58 48 57 48 58 48 59 48 59 49 58 49 60 49 59 50 60 50 61 50 61 51 60 51 62 51 61 52 62 52 63 52 64 53 65 53 66 53 66 54 65 54 67 54 68 55 69 55 70 55 70 56 69 56 71 56 70 57 71 57 72 57 72 58 71 58 73 58 72 59 73 59 74 59 74 60 73 60 75 60 74 61 75 61 76 61 76 62 75 62 77 62 76 63 77 63 78 63 78 64 77 64 79 64 78 65 79 65 80 65 80 66 79 66 81 66 80 67 81 67 82 67 82 68 81 68 64 68 82 69 64 69 83 69 83 70 64 70 66 70 63 71 62 71 67 71 67 72 62 72 84 72 67 73 84 73 66 73 66 74 84 74 85 74 66 75 85 75 86 75 86 76 85 76 87 76 86 77 87 77 88 77 88 78 87 78 89 78 88 78 89 78 90 78 90 79 89 79 91 79 90 79 91 79 92 79 92 80 91 80 93 80 92 80 93 80 94 80 94 81 93 81 95 81 94 82 95 82 96 82 96 83 95 83 97 83 96 84 97 84 98 84 98 85 97 85 2 85 98 86 2 86 5 86 5 87 2 87 1 87 5 88 1 88 3 88 22 89 21 89 26 89 26 90 21 90 99 90 26 91 99 91 25 91 25 92 99 92 100 92 25 93 100 93 101 93 101 94 100 94 102 94 101 95 102 95 103 95 103 96 102 96 104 96 103 97 104 97 105 97 105 98 104 98 106 98 105 99 106 99 107 99 107 100 106 100 108 100 107 101 108 101 109 101 109 102 108 102 110 102 109 103 110 103 111 103 111 104 110 104 112 104 111 105 112 105 113 105 113 106 112 106 45 106 113 107 45 107 114 107 114 108 45 108 44 108 114 109 44 109 68 109 68 110 44 110 115 110 68 111 115 111 69 111 116 112 117 112 118 112 118 113 117 113 119 113 118 113 119 113 120 113 120 114 119 114 121 114 120 114 121 114 122 114 122 115 121 115 123 115 122 116 123 116 124 116 124 117 123 117 125 117 124 118 125 118 126 118 126 119 125 119 127 119 126 120 127 120 128 120 128 121 127 121 129 121 128 122 129 122 130 122 130 123 129 123 131 123 130 123 131 123 132 123 132 124 131 124 133 124 132 125 133 125 134 125 134 126 133 126 135 126 134 127 135 127 136 127 136 128 135 128 137 128 136 128 137 128 138 128 138 129 137 129 139 129 138 130 139 130 140 130 140 131 139 131 141 131 140 132 141 132 142 132 142 133 141 133 143 133 142 134 143 134 144 134 144 135 143 135 145 135 144 136 145 136 146 136 146 137 145 137 147 137 146 137 147 137 148 137 148 138 147 138 149 138 148 138 149 138 150 138 150 139 149 139 151 139 150 139 151 139 152 139 152 140 151 140 153 140 152 141 153 141 154 141 154 142 153 142 155 142 154 142 155 142 156 142 156 143 155 143 157 143 156 144 157 144 158 144 158 145 157 145 159 145 158 146 159 146 160 146 160 147 159 147 161 147 160 148 161 148 162 148 162 149 161 149 163 149 162 149 163 149 164 149 164 150 163 150 165 150 164 150 165 150 166 150 166 151 165 151 167 151 166 12 167 12 168 12 168 152 167 152 169 152 168 153 169 153 170 153 170 154 169 154 171 154 170 155 171 155 172 155 172 156 171 156 173 156 172 157 173 157 174 157 174 158 173 158 175 158 174 158 175 158 176 158 176 159 175 159 177 159 176 159 177 159 178 159 178 160 177 160 179 160 178 161 179 161 180 161 180 162 179 162 181 162 180 163 181 163 182 163 182 164 181 164 183 164 182 165 183 165 184 165 184 166 183 166 185 166 184 166 185 166 186 166 186 167 185 167 187 167 186 168 187 168 116 168 116 112 187 112 117 112 148 169 150 169 188 169 188 169 150 169 152 169 188 169 152 169 154 169 142 169 144 169 188 169 188 169 144 169 146 169 188 169 146 169 148 169 136 169 138 169 188 169 188 169 138 169 140 169 188 169 140 169 142 169 130 169 132 169 188 169 188 169 132 169 134 169 188 169 134 169 136 169 124 169 126 169 188 169 188 169 126 169 128 169 188 169 128 169 130 169 118 169 120 169 188 169 188 169 120 169 122 169 188 169 122 169 124 169 184 169 186 169 188 169 188 169 186 169 116 169 188 169 116 169 118 169 178 169 180 169 188 169 188 169 180 169 182 169 188 169 182 169 184 169 172 169 174 169 188 169 188 169 174 169 176 169 188 169 176 169 178 169 166 169 168 169 188 169 188 169 168 169 170 169 188 169 170 169 172 169 160 169 162 169 188 169 188 169 162 169 164 169 188 169 164 169 166 169 154 169 156 169 188 169 188 169 156 169 158 169 188 169 158 169 160 169 123 169 84 169 125 169 125 169 84 169 62 169 125 169 62 169 127 169 127 170 62 170 60 170 127 169 60 169 129 169 129 171 60 171 58 171 129 169 58 169 131 169 131 169 58 169 56 169 131 169 56 169 133 169 133 169 56 169 54 169 133 169 54 169 135 169 135 169 54 169 52 169 135 169 52 169 137 169 137 169 52 169 50 169 137 169 50 169 139 169 139 172 50 172 48 172 139 169 48 169 141 169 141 170 48 170 47 170 141 169 47 169 143 169 143 173 47 173 45 173 143 169 45 169 145 169 145 174 45 174 112 174 145 175 112 175 147 175 147 176 112 176 110 176 147 169 110 169 149 169 149 177 110 177 108 177 149 169 108 169 151 169 151 178 108 178 106 178 151 169 106 169 153 169 153 179 106 179 104 179 153 169 104 169 155 169 155 180 104 180 102 180 155 169 102 169 157 169 157 173 102 173 100 173 157 169 100 169 159 169 159 181 100 181 99 181 159 169 99 169 161 169 161 182 99 182 21 182 161 169 21 169 163 169 163 176 21 176 19 176 163 169 19 169 165 169 165 181 19 181 17 181 165 169 17 169 167 169 167 183 17 183 15 183 167 169 15 169 169 169 169 169 15 169 13 169 169 169 13 169 171 169 171 169 13 169 11 169 171 169 11 169 173 169 173 169 11 169 9 169 173 184 9 184 175 184 175 185 9 185 7 185 175 169 7 169 177 169 177 186 7 186 6 186 177 169 6 169 179 169 179 169 6 169 2 169 179 169 2 169 181 169 181 187 2 187 97 187 181 188 97 188 183 188 183 189 97 189 95 189 183 169 95 169 185 169 185 190 95 190 93 190 185 169 93 169 187 169 187 191 93 191 91 191 187 169 91 169 117 169 117 192 91 192 89 192 117 169 89 169 119 169 119 189 89 189 87 189 119 169 87 169 121 169 121 193 87 193 85 193 121 169 85 169 123 169 123 194 85 194 84 194 189 195 83 195 190 195 190 196 83 196 66 196 190 197 66 197 191 197 191 195 66 195 86 195 191 195 86 195 192 195 192 195 86 195 88 195 192 195 88 195 193 195 193 195 88 195 90 195 193 195 90 195 194 195 194 198 90 198 92 198 194 199 92 199 195 199 195 200 92 200 94 200 195 195 94 195 196 195 196 195 94 195 96 195 196 195 96 195 197 195 197 195 96 195 98 195 197 195 98 195 198 195 198 195 98 195 5 195 198 195 5 195 199 195 199 201 5 201 4 201 199 195 4 195 200 195 200 202 4 202 29 202 200 195 29 195 201 195 201 195 29 195 31 195 201 195 31 195 202 195 202 195 31 195 33 195 202 195 33 195 203 195 203 195 33 195 35 195 203 195 35 195 204 195 204 195 35 195 37 195 204 203 37 203 205 203 205 195 37 195 39 195 205 204 39 204 206 204 206 195 39 195 41 195 206 205 41 205 207 205 207 206 41 206 42 206 207 195 42 195 208 195 208 207 42 207 25 207 208 208 25 208 209 208 209 209 25 209 101 209 209 195 101 195 210 195 210 210 101 210 103 210 210 199 103 199 211 199 211 211 103 211 105 211 211 212 105 212 212 212 212 213 105 213 107 213 212 214 107 214 213 214 213 215 107 215 109 215 213 195 109 195 214 195 214 216 109 216 111 216 214 195 111 195 215 195 215 217 111 217 113 217 215 195 113 195 216 195 216 209 113 209 114 209 216 218 114 218 217 218 217 219 114 219 68 219 217 195 68 195 218 195 218 195 68 195 70 195 218 195 70 195 219 195 219 195 70 195 72 195 219 195 72 195 220 195 220 195 72 195 74 195 220 195 74 195 221 195 221 195 74 195 76 195 221 195 76 195 222 195 222 195 76 195 78 195 222 220 78 220 223 220 223 195 78 195 80 195 223 195 80 195 224 195 224 195 80 195 82 195 224 221 82 221 189 221 189 195 82 195 83 195 194 222 225 222 193 222 193 223 225 223 226 223 193 224 226 224 192 224 192 225 226 225 227 225 192 226 227 226 191 226 191 227 227 227 228 227 191 228 228 228 190 228 190 229 228 229 229 229 190 230 229 230 189 230 189 231 229 231 230 231 189 231 230 231 224 231 224 232 230 232 231 232 224 233 231 233 223 233 223 234 231 234 232 234 223 235 232 235 222 235 222 236 232 236 233 236 222 237 233 237 221 237 221 238 233 238 234 238 221 239 234 239 220 239 220 240 234 240 235 240 220 241 235 241 219 241 219 242 235 242 236 242 219 243 236 243 218 243 218 244 236 244 237 244 218 244 237 244 217 244 217 245 237 245 238 245 217 246 238 246 216 246 216 247 238 247 239 247 216 248 239 248 215 248 215 249 239 249 240 249 215 250 240 250 214 250 214 251 240 251 241 251 214 252 241 252 213 252 213 253 241 253 242 253 213 254 242 254 212 254 212 255 242 255 243 255 212 256 243 256 211 256 211 257 243 257 244 257 211 258 244 258 210 258 210 259 244 259 245 259 210 260 245 260 209 260 209 261 245 261 246 261 209 262 246 262 208 262 208 263 246 263 247 263 208 264 247 264 207 264 207 265 247 265 248 265 207 265 248 265 206 265 206 266 248 266 249 266 206 267 249 267 205 267 205 268 249 268 250 268 205 269 250 269 204 269 204 270 250 270 251 270 204 271 251 271 203 271 203 272 251 272 252 272 203 273 252 273 202 273 202 274 252 274 253 274 202 275 253 275 201 275 201 276 253 276 254 276 201 277 254 277 200 277 200 278 254 278 255 278 200 278 255 278 199 278 199 279 255 279 256 279 199 280 256 280 198 280 198 281 256 281 257 281 198 282 257 282 197 282 197 283 257 283 258 283 197 284 258 284 196 284 196 285 258 285 259 285 196 286 259 286 195 286 195 287 259 287 260 287 195 288 260 288 194 288 194 289 260 289 225 289 261 290 231 290 262 290 262 195 231 195 230 195 262 291 230 291 263 291 263 195 230 195 229 195 263 292 229 292 264 292 264 195 229 195 228 195 264 293 228 293 265 293 265 195 228 195 227 195 265 195 227 195 266 195 266 294 227 294 226 294 266 195 226 195 267 195 267 295 226 295 225 295 267 296 225 296 268 296 268 297 225 297 260 297 268 195 260 195 269 195 269 298 260 298 259 298 269 299 259 299 270 299 270 300 259 300 258 300 270 195 258 195 271 195 271 301 258 301 257 301 271 195 257 195 272 195 272 302 257 302 256 302 272 195 256 195 273 195 273 195 256 195 255 195 273 303 255 303 274 303 274 304 255 304 254 304 274 195 254 195 275 195 275 304 254 304 253 304 275 195 253 195 276 195 276 304 253 304 252 304 276 195 252 195 277 195 277 195 252 195 251 195 277 195 251 195 278 195 278 195 251 195 250 195 278 305 250 305 279 305 279 195 250 195 249 195 279 306 249 306 280 306 280 195 249 195 248 195 280 307 248 307 281 307 281 195 248 195 247 195 281 305 247 305 282 305 282 195 247 195 246 195 282 308 246 308 283 308 283 195 246 195 245 195 283 195 245 195 284 195 284 309 245 309 244 309 284 195 244 195 285 195 285 310 244 310 243 310 285 195 243 195 286 195 286 311 243 311 242 311 286 195 242 195 287 195 287 312 242 312 241 312 287 303 241 303 288 303 288 313 241 313 240 313 288 195 240 195 289 195 289 314 240 314 239 314 289 195 239 195 290 195 290 315 239 315 238 315 290 195 238 195 291 195 291 195 238 195 237 195 291 195 237 195 292 195 292 195 237 195 236 195 292 195 236 195 293 195 293 316 236 316 235 316 293 195 235 195 294 195 294 317 235 317 234 317 294 195 234 195 295 195 295 195 234 195 233 195 295 195 233 195 296 195 296 195 233 195 232 195 296 292 232 292 261 292 261 195 232 195 231 195 297 195 298 195 299 195 299 318 298 318 300 318 299 319 300 319 301 319 302 195 303 195 299 195 299 320 303 320 304 320 299 195 304 195 297 195 305 195 306 195 299 195 299 321 306 321 307 321 299 322 307 322 302 322 308 323 309 323 299 323 299 195 309 195 310 195 299 195 310 195 305 195 311 195 312 195 299 195 299 324 312 324 313 324 299 325 313 325 308 325 314 195 315 195 299 195 299 195 315 195 316 195 299 320 316 320 311 320 317 195 318 195 299 195 299 319 318 319 319 319 299 318 319 318 314 318 320 195 321 195 299 195 299 322 321 322 322 322 299 195 322 195 317 195 323 195 324 195 299 195 299 326 324 326 325 326 299 320 325 320 320 320 326 327 327 327 299 327 299 195 327 195 328 195 299 195 328 195 323 195 329 195 330 195 299 195 299 328 330 328 331 328 299 329 331 329 326 329 301 195 332 195 299 195 299 195 332 195 333 195 299 322 333 322 329 322 268 330 334 330 267 330 267 331 334 331 335 331 267 332 335 332 266 332 266 333 335 333 336 333 266 334 336 334 265 334 265 335 336 335 337 335 265 336 337 336 264 336 264 337 337 337 338 337 264 338 338 338 263 338 263 339 338 339 339 339 263 340 339 340 262 340 262 341 339 341 340 341 262 342 340 342 261 342 261 343 340 343 341 343 261 344 341 344 296 344 296 345 341 345 342 345 296 346 342 346 295 346 295 347 342 347 343 347 295 348 343 348 294 348 294 43 343 43 344 43 294 349 344 349 293 349 293 350 344 350 345 350 293 351 345 351 292 351 292 352 345 352 346 352 292 353 346 353 291 353 291 354 346 354 347 354 291 355 347 355 290 355 290 356 347 356 348 356 290 357 348 357 289 357 289 358 348 358 349 358 289 359 349 359 288 359 288 102 349 102 350 102 288 102 350 102 287 102 287 360 350 360 351 360 287 361 351 361 286 361 286 362 351 362 352 362 286 363 352 363 285 363 285 364 352 364 353 364 285 364 353 364 284 364 284 365 353 365 354 365 284 366 354 366 283 366 283 367 354 367 355 367 283 368 355 368 282 368 282 369 355 369 356 369 282 370 356 370 281 370 281 371 356 371 357 371 281 372 357 372 280 372 280 373 357 373 358 373 280 374 358 374 279 374 279 375 358 375 359 375 279 376 359 376 278 376 278 377 359 377 360 377 278 378 360 378 277 378 277 379 360 379 361 379 277 380 361 380 276 380 276 381 361 381 362 381 276 382 362 382 275 382 275 383 362 383 363 383 275 384 363 384 274 384 274 385 363 385 364 385 274 386 364 386 273 386 273 387 364 387 365 387 273 388 365 388 272 388 272 389 365 389 366 389 272 390 366 390 271 390 271 391 366 391 367 391 271 392 367 392 270 392 270 393 367 393 368 393 270 394 368 394 269 394 269 395 368 395 369 395 269 396 369 396 268 396 268 397 369 397 334 397 44 398 65 398 115 398 115 399 65 399 64 399 115 400 64 400 81 400 71 401 77 401 73 401 73 169 77 169 75 169 81 169 79 169 115 169 115 169 79 169 77 169 115 169 77 169 69 169 69 169 77 169 71 169 61 195 63 195 46 195 46 402 63 402 67 402 46 403 67 403 43 403 49 404 51 404 57 404 57 195 51 195 53 195 57 195 53 195 55 195 49 195 57 195 46 195 46 405 57 405 59 405 46 406 59 406 61 406 43 407 67 407 44 407 44 407 67 407 65 407 300 408 370 408 301 408 301 409 370 409 371 409 301 410 371 410 332 410 332 411 371 411 372 411 332 412 372 412 333 412 333 413 372 413 373 413 333 414 373 414 329 414 329 415 373 415 374 415 329 416 374 416 330 416 330 417 374 417 375 417 330 418 375 418 331 418 331 419 375 419 376 419 331 420 376 420 326 420 326 421 376 421 377 421 326 422 377 422 327 422 327 423 377 423 378 423 327 424 378 424 328 424 328 425 378 425 379 425 328 426 379 426 323 426 323 427 379 427 380 427 323 428 380 428 324 428 324 429 380 429 381 429 324 430 381 430 325 430 325 431 381 431 382 431 325 432 382 432 320 432 320 433 382 433 383 433 320 434 383 434 321 434 321 435 383 435 384 435 321 436 384 436 322 436 322 437 384 437 385 437 322 438 385 438 317 438 317 439 385 439 386 439 317 440 386 440 318 440 318 441 386 441 387 441 318 442 387 442 319 442 319 443 387 443 388 443 319 444 388 444 314 444 314 445 388 445 389 445 314 446 389 446 315 446 315 447 389 447 390 447 315 448 390 448 316 448 316 449 390 449 391 449 316 450 391 450 311 450 311 451 391 451 392 451 311 452 392 452 312 452 312 453 392 453 393 453 312 454 393 454 313 454 313 455 393 455 394 455 313 456 394 456 308 456 308 457 394 457 395 457 308 458 395 458 309 458 309 459 395 459 396 459 309 460 396 460 310 460 310 461 396 461 397 461 310 462 397 462 305 462 305 463 397 463 398 463 305 464 398 464 306 464 306 465 398 465 399 465 306 466 399 466 307 466 307 467 399 467 400 467 307 468 400 468 302 468 302 469 400 469 401 469 302 470 401 470 303 470 303 471 401 471 402 471 303 472 402 472 304 472 304 473 402 473 403 473 304 474 403 474 297 474 297 475 403 475 404 475 297 476 404 476 298 476 298 477 404 477 405 477 298 478 405 478 300 478 300 479 405 479 370 479 405 480 406 480 370 480 370 481 406 481 407 481 370 482 407 482 371 482 371 483 407 483 408 483 371 484 408 484 372 484 372 485 408 485 409 485 372 486 409 486 373 486 373 487 409 487 410 487 373 488 410 488 374 488 374 489 410 489 411 489 374 490 411 490 375 490 375 491 411 491 412 491 375 492 412 492 376 492 376 493 412 493 413 493 376 494 413 494 377 494 377 495 413 495 414 495 377 496 414 496 378 496 378 497 414 497 415 497 378 498 415 498 379 498 379 499 415 499 416 499 379 500 416 500 380 500 380 501 416 501 417 501 380 502 417 502 381 502 381 503 417 503 418 503 381 504 418 504 382 504 382 505 418 505 419 505 382 506 419 506 383 506 383 507 419 507 420 507 383 508 420 508 384 508 384 509 420 509 421 509 384 510 421 510 385 510 385 511 421 511 422 511 385 512 422 512 386 512 386 513 422 513 423 513 386 514 423 514 387 514 387 515 423 515 424 515 387 516 424 516 388 516 388 517 424 517 425 517 388 518 425 518 389 518 389 519 425 519 426 519 389 520 426 520 390 520 390 521 426 521 427 521 390 522 427 522 391 522 391 523 427 523 428 523 391 524 428 524 392 524 392 525 428 525 429 525 392 526 429 526 393 526 393 527 429 527 430 527 393 528 430 528 394 528 394 529 430 529 431 529 394 530 431 530 395 530 395 531 431 531 432 531 395 532 432 532 396 532 396 533 432 533 433 533 396 534 433 534 397 534 397 535 433 535 434 535 397 536 434 536 398 536 398 537 434 537 435 537 398 538 435 538 399 538 399 539 435 539 436 539 399 540 436 540 400 540 400 541 436 541 437 541 400 542 437 542 401 542 401 543 437 543 438 543 401 544 438 544 402 544 402 545 438 545 439 545 402 546 439 546 403 546 403 547 439 547 440 547 403 548 440 548 404 548 404 549 440 549 441 549 404 550 441 550 405 550 405 551 441 551 406 551 441 552 442 552 406 552 406 553 442 553 443 553 406 554 443 554 407 554 407 555 443 555 444 555 407 556 444 556 408 556 408 557 444 557 445 557 408 558 445 558 409 558 409 559 445 559 446 559 409 560 446 560 410 560 410 561 446 561 447 561 410 562 447 562 411 562 411 563 447 563 448 563 411 564 448 564 412 564 412 565 448 565 449 565 412 566 449 566 413 566 413 567 449 567 450 567 413 568 450 568 414 568 414 569 450 569 451 569 414 570 451 570 415 570 415 571 451 571 452 571 415 572 452 572 416 572 416 573 452 573 453 573 416 574 453 574 417 574 417 575 453 575 454 575 417 576 454 576 418 576 418 577 454 577 455 577 418 578 455 578 419 578 419 579 455 579 456 579 419 580 456 580 420 580 420 581 456 581 457 581 420 582 457 582 421 582 421 583 457 583 458 583 421 584 458 584 422 584 422 585 458 585 459 585 422 586 459 586 423 586 423 587 459 587 460 587 423 588 460 588 424 588 424 589 460 589 461 589 424 590 461 590 425 590 425 591 461 591 462 591 425 592 462 592 426 592 426 593 462 593 463 593 426 594 463 594 427 594 427 595 463 595 464 595 427 596 464 596 428 596 428 597 464 597 465 597 428 598 465 598 429 598 429 599 465 599 466 599 429 600 466 600 430 600 430 601 466 601 467 601 430 602 467 602 431 602 431 603 467 603 468 603 431 604 468 604 432 604 432 605 468 605 469 605 432 606 469 606 433 606 433 607 469 607 470 607 433 608 470 608 434 608 434 609 470 609 471 609 434 610 471 610 435 610 435 611 471 611 472 611 435 612 472 612 436 612 436 613 472 613 473 613 436 614 473 614 437 614 437 615 473 615 474 615 437 616 474 616 438 616 438 617 474 617 475 617 438 618 475 618 439 618 439 619 475 619 476 619 439 620 476 620 440 620 440 621 476 621 477 621 440 622 477 622 441 622 441 623 477 623 442 623 477 624 478 624 442 624 442 625 478 625 479 625 442 626 479 626 443 626 443 627 479 627 480 627 443 628 480 628 444 628 444 629 480 629 481 629 444 630 481 630 445 630 445 631 481 631 482 631 445 632 482 632 446 632 446 633 482 633 483 633 446 634 483 634 447 634 447 635 483 635 484 635 447 636 484 636 448 636 448 637 484 637 485 637 448 638 485 638 449 638 449 639 485 639 486 639 449 640 486 640 450 640 450 641 486 641 487 641 450 642 487 642 451 642 451 643 487 643 488 643 451 644 488 644 452 644 452 645 488 645 489 645 452 646 489 646 453 646 453 647 489 647 490 647 453 648 490 648 454 648 454 649 490 649 491 649 454 650 491 650 455 650 455 651 491 651 492 651 455 652 492 652 456 652 456 653 492 653 493 653 456 654 493 654 457 654 457 655 493 655 494 655 457 656 494 656 458 656 458 657 494 657 495 657 458 658 495 658 459 658 459 659 495 659 496 659 459 660 496 660 460 660 460 661 496 661 497 661 460 662 497 662 461 662 461 663 497 663 498 663 461 664 498 664 462 664 462 665 498 665 499 665 462 666 499 666 463 666 463 667 499 667 500 667 463 668 500 668 464 668 464 669 500 669 501 669 464 670 501 670 465 670 465 671 501 671 502 671 465 672 502 672 466 672 466 673 502 673 503 673 466 674 503 674 467 674 467 675 503 675 504 675 467 676 504 676 468 676 468 677 504 677 505 677 468 678 505 678 469 678 469 679 505 679 506 679 469 680 506 680 470 680 470 681 506 681 507 681 470 682 507 682 471 682 471 683 507 683 508 683 471 684 508 684 472 684 472 685 508 685 509 685 472 686 509 686 473 686 473 687 509 687 510 687 473 688 510 688 474 688 474 689 510 689 511 689 474 690 511 690 475 690 475 691 511 691 512 691 475 692 512 692 476 692 476 693 512 693 513 693 476 694 513 694 477 694 477 695 513 695 478 695 513 696 514 696 478 696 478 697 514 697 515 697 478 698 515 698 479 698 479 699 515 699 516 699 479 700 516 700 480 700 480 701 516 701 517 701 480 702 517 702 481 702 481 703 517 703 518 703 481 704 518 704 482 704 482 705 518 705 519 705 482 706 519 706 483 706 483 707 519 707 520 707 483 708 520 708 484 708 484 709 520 709 521 709 484 710 521 710 485 710 485 711 521 711 522 711 485 712 522 712 486 712 486 713 522 713 523 713 486 714 523 714 487 714 487 715 523 715 524 715 487 716 524 716 488 716 488 717 524 717 525 717 488 718 525 718 489 718 489 719 525 719 526 719 489 720 526 720 490 720 490 721 526 721 527 721 490 722 527 722 491 722 491 723 527 723 528 723 491 724 528 724 492 724 492 725 528 725 529 725 492 726 529 726 493 726 493 727 529 727 530 727 493 728 530 728 494 728 494 729 530 729 531 729 494 730 531 730 495 730 495 731 531 731 532 731 495 732 532 732 496 732 496 733 532 733 533 733 496 734 533 734 497 734 497 735 533 735 534 735 497 736 534 736 498 736 498 737 534 737 535 737 498 738 535 738 499 738 499 739 535 739 536 739 499 740 536 740 500 740 500 741 536 741 537 741 500 742 537 742 501 742 501 743 537 743 538 743 501 744 538 744 502 744 502 745 538 745 539 745 502 746 539 746 503 746 503 747 539 747 540 747 503 748 540 748 504 748 504 749 540 749 541 749 504 750 541 750 505 750 505 751 541 751 542 751 505 752 542 752 506 752 506 753 542 753 543 753 506 754 543 754 507 754 507 755 543 755 544 755 507 756 544 756 508 756 508 757 544 757 545 757 508 758 545 758 509 758 509 759 545 759 546 759 509 760 546 760 510 760 510 761 546 761 547 761 510 762 547 762 511 762 511 763 547 763 548 763 511 764 548 764 512 764 512 765 548 765 549 765 512 766 549 766 513 766 513 767 549 767 514 767 549 768 550 768 514 768 514 769 550 769 551 769 514 770 551 770 515 770 515 771 551 771 552 771 515 772 552 772 516 772 516 773 552 773 553 773 516 774 553 774 517 774 517 775 553 775 554 775 517 776 554 776 518 776 518 777 554 777 555 777 518 778 555 778 519 778 519 779 555 779 556 779 519 780 556 780 520 780 520 781 556 781 557 781 520 782 557 782 521 782 521 783 557 783 558 783 521 784 558 784 522 784 522 785 558 785 559 785 522 786 559 786 523 786 523 787 559 787 560 787 523 788 560 788 524 788 524 789 560 789 561 789 524 790 561 790 525 790 525 791 561 791 562 791 525 792 562 792 526 792 526 793 562 793 563 793 526 794 563 794 527 794 527 795 563 795 564 795 527 796 564 796 528 796 528 797 564 797 565 797 528 798 565 798 529 798 529 799 565 799 566 799 529 800 566 800 530 800 530 801 566 801 567 801 530 802 567 802 531 802 531 803 567 803 568 803 531 804 568 804 532 804 532 805 568 805 569 805 532 806 569 806 533 806 533 807 569 807 570 807 533 808 570 808 534 808 534 809 570 809 571 809 534 810 571 810 535 810 535 811 571 811 572 811 535 812 572 812 536 812 536 813 572 813 573 813 536 814 573 814 537 814 537 815 573 815 574 815 537 816 574 816 538 816 538 817 574 817 575 817 538 818 575 818 539 818 539 819 575 819 576 819 539 820 576 820 540 820 540 821 576 821 577 821 540 822 577 822 541 822 541 823 577 823 578 823 541 824 578 824 542 824 542 825 578 825 579 825 542 826 579 826 543 826 543 827 579 827 580 827 543 828 580 828 544 828 544 829 580 829 581 829 544 830 581 830 545 830 545 831 581 831 582 831 545 832 582 832 546 832 546 833 582 833 583 833 546 834 583 834 547 834 547 835 583 835 584 835 547 836 584 836 548 836 548 837 584 837 585 837 548 838 585 838 549 838 549 839 585 839 550 839 585 840 586 840 550 840 550 841 586 841 587 841 550 842 587 842 551 842 551 843 587 843 588 843 551 844 588 844 552 844 552 845 588 845 589 845 552 846 589 846 553 846 553 847 589 847 590 847 553 848 590 848 554 848 554 849 590 849 591 849 554 850 591 850 555 850 555 851 591 851 592 851 555 852 592 852 556 852 556 853 592 853 593 853 556 854 593 854 557 854 557 855 593 855 594 855 557 856 594 856 558 856 558 857 594 857 595 857 558 858 595 858 559 858 559 859 595 859 596 859 559 860 596 860 560 860 560 861 596 861 597 861 560 862 597 862 561 862 561 863 597 863 598 863 561 864 598 864 562 864 562 865 598 865 599 865 562 866 599 866 563 866 563 867 599 867 600 867 563 868 600 868 564 868 564 869 600 869 601 869 564 870 601 870 565 870 565 871 601 871 602 871 565 872 602 872 566 872 566 873 602 873 603 873 566 874 603 874 567 874 567 875 603 875 604 875 567 876 604 876 568 876 568 877 604 877 605 877 568 878 605 878 569 878 569 879 605 879 606 879 569 880 606 880 570 880 570 881 606 881 607 881 570 882 607 882 571 882 571 883 607 883 608 883 571 884 608 884 572 884 572 885 608 885 609 885 572 886 609 886 573 886 573 887 609 887 610 887 573 888 610 888 574 888 574 889 610 889 611 889 574 890 611 890 575 890 575 891 611 891 612 891 575 892 612 892 576 892 576 893 612 893 613 893 576 894 613 894 577 894 577 895 613 895 614 895 577 896 614 896 578 896 578 897 614 897 615 897 578 898 615 898 579 898 579 899 615 899 616 899 579 900 616 900 580 900 580 901 616 901 617 901 580 902 617 902 581 902 581 903 617 903 618 903 581 904 618 904 582 904 582 905 618 905 619 905 582 906 619 906 583 906 583 907 619 907 620 907 583 908 620 908 584 908 584 909 620 909 621 909 584 910 621 910 585 910 585 911 621 911 586 911 621 912 622 912 586 912 586 913 622 913 623 913 586 914 623 914 587 914 587 915 623 915 624 915 587 916 624 916 588 916 588 917 624 917 625 917 588 918 625 918 589 918 589 919 625 919 626 919 589 920 626 920 590 920 590 921 626 921 627 921 590 922 627 922 591 922 591 923 627 923 628 923 591 924 628 924 592 924 592 925 628 925 629 925 592 926 629 926 593 926 593 927 629 927 630 927 593 928 630 928 594 928 594 929 630 929 631 929 594 930 631 930 595 930 595 931 631 931 632 931 595 932 632 932 596 932 596 933 632 933 633 933 596 934 633 934 597 934 597 935 633 935 634 935 597 936 634 936 598 936 598 937 634 937 635 937 598 938 635 938 599 938 599 939 635 939 636 939 599 940 636 940 600 940 600 941 636 941 637 941 600 942 637 942 601 942 601 943 637 943 638 943 601 944 638 944 602 944 602 945 638 945 639 945 602 946 639 946 603 946 603 947 639 947 640 947 603 948 640 948 604 948 604 949 640 949 641 949 604 950 641 950 605 950 605 951 641 951 642 951 605 952 642 952 606 952 606 953 642 953 643 953 606 954 643 954 607 954 607 955 643 955 644 955 607 956 644 956 608 956 608 957 644 957 645 957 608 958 645 958 609 958 609 959 645 959 646 959 609 960 646 960 610 960 610 961 646 961 647 961 610 962 647 962 611 962 611 963 647 963 648 963 611 964 648 964 612 964 612 965 648 965 649 965 612 966 649 966 613 966 613 967 649 967 650 967 613 968 650 968 614 968 614 969 650 969 651 969 614 970 651 970 615 970 615 971 651 971 652 971 615 972 652 972 616 972 616 973 652 973 653 973 616 974 653 974 617 974 617 975 653 975 654 975 617 976 654 976 618 976 618 977 654 977 655 977 618 978 655 978 619 978 619 979 655 979 656 979 619 980 656 980 620 980 620 981 656 981 657 981 620 982 657 982 621 982 621 983 657 983 622 983 657 984 350 984 622 984 622 985 350 985 349 985 622 986 349 986 623 986 623 987 349 987 348 987 623 988 348 988 624 988 624 989 348 989 347 989 624 990 347 990 625 990 625 991 347 991 346 991 625 992 346 992 626 992 626 993 346 993 345 993 626 994 345 994 627 994 627 995 345 995 344 995 627 996 344 996 628 996 628 997 344 997 343 997 628 998 343 998 629 998 629 999 343 999 342 999 629 1000 342 1000 630 1000 630 1001 342 1001 341 1001 630 1002 341 1002 631 1002 631 1003 341 1003 340 1003 631 1004 340 1004 632 1004 632 1005 340 1005 339 1005 632 1006 339 1006 633 1006 633 1007 339 1007 338 1007 633 1008 338 1008 634 1008 634 1009 338 1009 337 1009 634 1010 337 1010 635 1010 635 1011 337 1011 336 1011 635 1012 336 1012 636 1012 636 1013 336 1013 335 1013 636 1014 335 1014 637 1014 637 1015 335 1015 334 1015 637 1016 334 1016 638 1016 638 1017 334 1017 369 1017 638 1018 369 1018 639 1018 639 1019 369 1019 368 1019 639 1020 368 1020 640 1020 640 1021 368 1021 367 1021 640 1022 367 1022 641 1022 641 1023 367 1023 366 1023 641 1024 366 1024 642 1024 642 1025 366 1025 365 1025 642 1026 365 1026 643 1026 643 1027 365 1027 364 1027 643 1028 364 1028 644 1028 644 1029 364 1029 363 1029 644 1030 363 1030 645 1030 645 1031 363 1031 362 1031 645 1032 362 1032 646 1032 646 1033 362 1033 361 1033 646 1034 361 1034 647 1034 647 1035 361 1035 360 1035 647 1036 360 1036 648 1036 648 1037 360 1037 359 1037 648 1038 359 1038 649 1038 649 1039 359 1039 358 1039 649 1040 358 1040 650 1040 650 1041 358 1041 357 1041 650 1042 357 1042 651 1042 651 1043 357 1043 356 1043 651 1044 356 1044 652 1044 652 1045 356 1045 355 1045 652 1046 355 1046 653 1046 653 1047 355 1047 354 1047 653 1048 354 1048 654 1048 654 1049 354 1049 353 1049 654 1050 353 1050 655 1050 655 1051 353 1051 352 1051 655 1052 352 1052 656 1052 656 1053 352 1053 351 1053 656 1054 351 1054 657 1054 657 1055 351 1055 350 1055 40 169 32 169 23 169 23 169 32 169 30 169 3 1056 24 1056 27 1056 27 1057 24 1057 23 1057 27 169 23 169 28 169 28 169 23 169 30 169 40 169 38 169 32 169 32 1058 38 1058 36 1058 32 169 36 169 34 169 8 195 22 195 0 195 0 1059 22 1059 26 1059 0 1060 26 1060 1 1060 8 1061 10 1061 22 1061 22 1062 10 1062 12 1062 22 1063 12 1063 14 1063 14 1064 16 1064 22 1064 22 195 16 195 18 195 22 195 18 195 20 195 1 1065 26 1065 3 1065 3 1065 26 1065 24 1065</p>
        </triangles>
      </mesh>
    </geometry>
  </library_geometries>
  <library_visual_scenes>
    <visual_scene id="Scene" name="Scene">
      <node id="gripper_object3" name="gripper_object3" type="NODE">
        <matrix sid="transform">0.001 0 0 0 0 0.001 0 -0.003 0 0 0.001 -0.003 0 0 0 1</matrix>
        <instance_geometry url="#gripper_object3-mesh" name="gripper_object3"/>
      </node>
      <node id="Camera" name="Camera" type="NODE">
        <matrix sid="transform">0.6859207 -0.3240135 0.6515582 7.358891 0.7276763 0.3054208 -0.6141704 -6.925791 0 0.8953956 0.4452714 4.958309 0 0 0 1</matrix>
        <instance_camera url="#Camera-camera"/>
      </node>
      <node id="Light" name="Light" type="NODE">
        <matrix sid="transform">-0.2908646 -0.7711008 0.5663932 4.076245 0.9551712 -0.1998834 0.2183912 1.005454 -0.05518906 0.6045247 0.7946723 5.903862 0 0 0 1</matrix>
        <instance_light url="#Light-light"/>
      </node>
    </visual_scene>
  </library_visual_scenes>
  <scene>
    <instance_visual_scene url="#Scene"/>
  </scene>
</COLLADA>