<?xml version="1.0" encoding="utf-8"?>
<COLLADA xmlns="http://www.collada.org/2005/11/COLLADASchema" version="1.4.1" xmlns:xsi="http://www.w3.org/2001/XMLSchema-instance">
  <asset>
    <contributor>
      <author>Blender User</author>
      <authoring_tool>Blender 3.0.1</authoring_tool>
    </contributor>
    <created>2026-01-04T09:57:09</created>
    <modified>2026-01-04T09:57:09</modified>
    <unit name="meter" meter="1"/>
    <up_axis>Z_UP</up_axis>
  </asset>
  <library_cameras>
    <camera id="Camera-camera" name="Camera">
      <optics>
        <technique_common>
          <perspective>
            <xfov sid="xfov">39.59775</xfov>
            <aspect_ratio>1.777778</aspect_ratio>
            <znear sid="znear">0.1</znear>
            <zfar sid="zfar">100</zfar>
          </perspective>
        </technique_common>
      </optics>
      <extra>
        <technique profile="blender">
          <shiftx sid="shiftx" type="float">0</shiftx>
          <shifty sid="shifty" type="float">0</shifty>
          <dof_distance sid="dof_distance" type="float">10</dof_distance>
        </technique>
      </extra>
    </camera>
  </library_cameras>
  <library_lights>
    <light id="Light-light" name="Light">
      <technique_common>
        <point>
          <color sid="color">1000 1000 1000</color>
          <constant_attenuation>1</constant_attenuation>
          <linear_attenuation>0</linear_attenuation>
          <quadratic_attenuation>0.00111109</quadratic_attenuation>
        </point>
      </technique_common>
      <extra>
        <technique profile="blender">
          <type sid="type" type="int">0</type>
          <flag sid="flag" type="int">0</flag>
          <mode sid="mode" type="int">1</mode>
          <gamma sid="blender_gamma" type="float">1</gamma>
          <red sid="red" type="float">1</red>
          <green sid="green" type="float">1</green>
          <blue sid="blue" type="float">1</blue>
          <shadow_r sid="blender_shadow_r" type="float">0</shadow_r>
          <shadow_g sid="blender_shadow_g" type="float">0</shadow_g>
          <shadow_b sid="blender_shadow_b" type="float">0</shadow_b>
          <energy sid="blender_energy" type="float">1000</energy>
          <dist sid="blender_dist" type="float">29.99998</dist>
          <spotsize sid="spotsize" type="float">75</spotsize>
          <spotblend sid="spotblend" type="float">0.15</spotblend>
          <att1 sid="att1" type="float">0</att1>
          <att2 sid="att2" type="float">1</att2>
          <falloff_type sid="falloff_type" type="int">2</falloff_type>
          <clipsta sid="clipsta" type="float">0.04999995</clipsta>
          <clipend sid="clipend" type="float">30.002</clipend>
          <bias sid="bias" type="float">1</bias>
          <soft sid="soft" type="float">3</soft>
          <bufsize sid="bufsize" type="int">2880</bufsize>
          <samp sid="samp" type="int">3</samp>
          <buffers sid="buffers" type="int">1</buffers>
          <area_shape sid="area_shape" type="int">1</area_shape>
          <area_size sid="area_size" type="float">0.1</area_size>
          <area_sizey sid="area_sizey" type="float">0.1</area_sizey>
          <area_sizez sid="area_sizez" type="float">1</area_sizez>
        </technique>
      </extra>
    </light>
  </library_lights>
  <library_images/>
  <library_geometries>
    <geometry id="beam_holder3-mesh" name="beam_holder3">
      <mesh>
        <source id="beam_holder3-mesh-positions">
          <float_array id="beam_holder3-mesh-positions-array" count="540">1.461076 5 8.802929 1.718911 5 8.25 0 5 3.5 4.142231 5 13.44683 3.552929 5 13.28892 0 5 20 3 5 13.03109 2.500243 5 12.68115 2.068845 5 12.24976 1.718911 5 11.75 1.461076 5 11.19707 1.303173 5 10.60777 1.25 5 10 1.303173 5 9.392231 26.5 5 6.968911 26.99976 5 7.318844 29.5 5 3.5 27.43116 5 7.750243 27.78109 5 8.25 28.03893 5 8.802929 1.250244 5 0.8188449 0.8188449 5 1.250243 3.552929 5 6.711075 0.4689116 5 1.75 3 5 6.968911 28.68116 5 1.250243 28.24976 5 0.8188449 25.94707 5 6.711075 27.75 5 0.4689098 25.35777 5 6.553172 29.44683 5 2.892231 29.28893 5 2.30293 29.03109 5 1.75 2.068845 5 7.750243 2.500243 5 7.318844 0.05317288 5 2.892231 0.2110759 5 2.30293 1.75 5 0.4689098 4.142231 5 6.553172 2.30293 5 0.2110749 27.19707 5 0.2110749 26.60777 5 0.05317288 24.75 5 6.499999 26 5 0 4.75 5 6.499999 3.5 5 0 2.892231 5 0.05317288 28.19683 5 10.60777 29.5 5 20 28.25 5 10 28.19683 5 9.392231 28.03893 5 11.19707 27.78109 5 11.75 27.43116 5 12.24976 26.99976 5 12.68115 26.5 5 13.03109 25.94707 5 13.28892 25.35777 5 13.44683 24.75 5 13.5 4.75 5 13.5 24.5 41.5 20 29.5 55 20 24.5 10 20 5 10 20 5 41.5 20 0 55 20 29.5 55 38 0 55 38 29.5 54 38 0 54 38 0 53 37 0 53 25 29.5 53 37 29.5 53 25 29.5 48.5 25 0 48.5 25 29.5 48.5 37 0 48.5 37 0 47.5 38 0 46.5 38 29.5 47.5 38 29.5 46.5 38 29.5 46.5 25 0 46.5 25 24.5 10 25 29.5 0 25 24.5 41.5 25 5 41.5 25 5 10 25 0 0 25 1.461076 0 11.19707 1.718911 0 11.75 2.068845 0 12.24976 1.461076 0 8.802929 1.303173 0 9.392231 0 0 3.5 1.25 0 10 1.303173 0 10.60777 4.142231 0 6.553172 2.892231 0 0.05317288 4.75 0 6.499999 3.5 0 0 24.75 0 6.499999 26 0 0 25.35777 0 6.553172 26.60777 0 0.05317288 0.8188449 0 1.250243 1.250244 0 0.8188449 3.552929 0 6.711075 1.75 0 0.4689098 2.30293 0 0.2110749 2.500243 0 12.68115 3 0 13.03109 3.552929 0 13.28892 3 0 6.968911 2.500243 0 7.318844 2.068845 0 7.750243 1.718911 0 8.25 25.35777 0 13.44683 25.94707 0 13.28892 26.5 0 13.03109 26.99976 0 12.68115 29.5 0 3.5 26.99976 0 7.318844 29.44683 0 2.892231 26.5 0 6.968911 29.28893 0 2.30293 0.05317288 0 2.892231 0.2110759 0 2.30293 0.4689116 0 1.75 27.43116 0 12.24976 27.78109 0 11.75 28.03893 0 11.19707 28.19683 0 10.60777 28.25 0 10 28.19683 0 9.392231 28.03893 0 8.802929 29.03109 0 1.75 25.94707 0 6.711075 28.68116 0 1.250243 4.142231 0 13.44683 4.75 0 13.5 24.75 0 13.5 27.78109 0 8.25 27.43116 0 7.750243 27.19707 0 0.2110749 27.75 0 0.4689098 28.24976 0 0.8188449 29.5 53.23395 37.64279 29.5 53.13397 37.5 29.5 53.65798 37.93969 29.5 53.5 37.86602 29.5 53.35721 37.76604 29.5 53.06031 37.34202 29.5 53.01519 37.17365 29.5 53.82635 37.9848 29.5 48.4848 37.17365 29.5 48.43969 37.34202 29.5 48.36603 37.5 29.5 48.26604 37.64279 29.5 47.67365 37.9848 29.5 47.84202 37.93969 29.5 48.14279 37.76604 29.5 48 37.86602 0 53.01519 37.17365 0 53.06031 37.34202 0 53.13397 37.5 0 53.35721 37.76604 0 53.5 37.86602 0 53.65798 37.93969 0 48.4848 37.17365 0 53.23395 37.64279 0 53.82635 37.9848 0 48.26604 37.64279 0 48.36603 37.5 0 48.43969 37.34202 0 47.67365 37.9848 0 47.84202 37.93969 0 48.14279 37.76604 0 48 37.86602</float_array>
          <technique_common>
            <accessor source="#beam_holder3-mesh-positions-array" count="180" stride="3">
              <param name="X" type="float"/>
              <param name="Y" type="float"/>
              <param name="Z" type="float"/>
            </accessor>
          </technique_common>
        </source>
        <source id="beam_holder3-mesh-normals">
          <float_array id="beam_holder3-mesh-normals-array" count="399">0 1 0 0 1 0 0 1 0 0 1 -1.54939e-7 0 1 5.53844e-7 0 1 -6.47094e-7 0 1 2.80763e-7 0 1 8.7298e-7 0 1 -3.49838e-7 0 1 1.10723e-6 0 1 -1.55395e-7 0 1 -6.94809e-7 0 1 0 0 1 -2.36771e-7 0 0 -1 0 0 1 0 -1 0 1 0 0 -1 0 0 0.08715474 0 0.9961948 0.08715724 0 0.9961947 0.2588206 0 0.9659254 0.2588183 0 0.9659261 0.4226188 0 0.9063075 0.5735756 0 0.8191527 0.5735772 0 0.8191515 0.7071074 0 0.7071063 0.7071061 0 0.7071075 0.8191526 0 0.5735758 0.8191517 0 0.5735769 0.9063077 0 0.4226186 0.9063072 0 0.4226197 0.9659259 0 0.258819 0.9961948 0 0.08715593 0.9961948 0 0.08715569 0.9961948 0 -0.08715569 0.9961947 0 -0.08715611 0.9659259 0 -0.258819 0.9063077 0 -0.4226186 0.8191517 0 -0.5735769 0.7071074 0 -0.7071063 0.5735756 0 -0.8191527 0.4226168 0 -0.9063086 0.4226209 0 -0.9063067 0.2588206 0 -0.9659254 0.258816 0 -0.9659267 0.08715724 0 -0.9961947 0.0871523 0 -0.996195 -0.0871523 0 -0.996195 -0.08715724 0 -0.9961947 -0.258816 0 -0.9659267 -0.2588206 0 -0.9659254 -0.4226209 0 -0.9063067 -0.4226168 0 -0.9063086 -0.5735765 0 -0.819152 -0.7071062 0 -0.7071074 -0.8191515 0 -0.5735774 -0.9063078 0 -0.4226183 -0.9659264 0 -0.2588171 -0.9961947 0 -0.08715635 -0.9961948 0 -0.08715587 -0.9961948 0 0.08715587 -0.9961947 0 0.08715611 -0.9659264 0 0.2588171 -0.9063073 0 0.4226193 -0.9063078 0 0.4226183 -0.8191515 0 0.5735774 -0.8191522 0 0.5735762 -0.7071049 0 0.7071087 -0.7071062 0 0.7071074 -0.5735782 0 0.8191509 -0.5735765 0 0.819152 -0.4226188 0 0.9063075 -0.2588183 0 0.9659261 -0.2588206 0 0.9659254 -0.08715724 0 0.9961947 -0.08715474 0 0.9961948 -0.08715593 0 -0.9961947 -0.2588177 0 -0.9659262 -0.2588177 0 -0.9659262 -0.4226173 0 -0.9063084 -0.4226173 0 -0.9063082 -0.573579 0 -0.8191504 -0.7071061 0 -0.7071075 -0.7071059 0 -0.7071076 -0.8191524 0 -0.5735762 -0.9063077 0 -0.4226185 -0.9659258 0 -0.2588191 -0.9659258 0 -0.2588192 -0.9961948 0 -0.08715587 0.08715575 0 -0.9961947 0.2588176 0 -0.9659262 0.2588175 0 -0.9659262 0.422618 0 -0.906308 0.422618 0 -0.906308 0.573579 0 -0.8191503 0.7071049 0 -0.7071087 0.7071048 0 -0.7071088 0.8191536 0 -0.5735744 0.9063067 0 -0.4226207 0.9659264 0 -0.2588173 0.9659264 0 -0.2588174 0.9961947 0 -0.08715611 0 0.9961935 0.08716905 0 0.965929 0.2588073 0 0.9063164 0.4225999 0 0.8191505 0.5735788 0 0.8191281 0.5736107 0 0.7071152 0.7070985 0 0.5735774 0.8191514 0 0.5735551 0.8191671 0 0.4226291 0.9063028 0 0.4226109 0.9063113 0 0.258826 0.965924 0 0.2588022 0.9659304 0 0.08716231 0.9961941 0 0.08716642 0.9961938 0 -0.08716642 0.9961938 0 -0.08716231 0.9961941 0 -0.2588022 0.9659304 0 -0.2588141 0.9659273 0 -0.4226109 0.9063113 0 -0.4226473 0.9062943 0 -0.5735551 0.8191671 0 -0.5735774 0.8191514 0 -0.7071152 0.7070985 0 -0.8191281 0.5736107 0 -0.8191505 0.5735788 0 -0.9063346 0.4225609 0 -0.9063164 0.4225999 0 -0.9659171 0.2588516 0 -0.965929 0.2588073 0 -0.9961935 0.08716905</float_array>
          <technique_common>
            <accessor source="#beam_holder3-mesh-normals-array" count="133" stride="3">
              <param name="X" type="float"/>
              <param name="Y" type="float"/>
              <param name="Z" type="float"/>
            </accessor>
          </technique_common>
        </source>
        <vertices id="beam_holder3-mesh-vertices">
          <input semantic="POSITION" source="#beam_holder3-mesh-positions"/>
        </vertices>
        <triangles count="364">
          <input semantic="VERTEX" source="#beam_holder3-mesh-vertices" offset="0"/>
          <input semantic="NORMAL" source="#beam_holder3-mesh-normals" offset="1"/>
          <p>0 0 1 0 2 0 3 0 4 0 5 0 5 0 4 0 6 0 5 1 6 1 7 1 7 0 8 0 5 0 5 2 8 2 9 2 5 3 9 3 10 3 10 0 11 0 5 0 5 4 11 4 12 4 5 0 12 0 2 0 2 5 12 5 13 5 2 6 13 6 0 6 14 0 15 0 16 0 15 0 17 0 16 0 16 0 17 0 18 0 16 0 18 0 19 0 20 0 21 0 22 0 22 7 21 7 23 7 22 0 23 0 24 0 25 0 26 0 27 0 27 0 26 0 28 0 27 0 28 0 29 0 16 0 30 0 14 0 14 0 30 0 31 0 14 0 31 0 27 0 27 0 31 0 32 0 27 0 32 0 25 0 1 0 33 0 2 0 2 8 33 8 34 8 2 9 34 9 35 9 35 10 34 10 24 10 35 0 24 0 36 0 36 11 24 11 23 11 20 0 22 0 37 0 37 0 22 0 38 0 37 0 38 0 39 0 28 0 40 0 29 0 29 0 40 0 41 0 29 0 41 0 42 0 42 0 41 0 43 0 42 0 43 0 44 0 44 12 43 12 45 12 44 0 45 0 38 0 38 0 45 0 46 0 38 13 46 13 39 13 47 0 48 0 49 0 49 0 48 0 16 0 49 0 16 0 50 0 50 0 16 0 19 0 47 0 51 0 48 0 48 0 51 0 52 0 48 0 52 0 53 0 53 0 54 0 48 0 48 0 54 0 55 0 48 0 55 0 56 0 56 0 57 0 48 0 48 0 57 0 58 0 48 0 58 0 5 0 5 0 58 0 59 0 5 0 59 0 3 0 60 14 61 14 62 14 62 14 61 14 48 14 62 14 48 14 63 14 63 14 48 14 5 14 63 14 5 14 64 14 64 14 5 14 65 14 64 14 65 14 60 14 60 14 65 14 61 14 66 0 61 0 67 0 67 0 61 0 65 0 68 15 66 15 69 15 69 15 66 15 67 15 70 16 71 16 72 16 72 16 71 16 73 16 74 15 73 15 75 15 75 15 73 15 71 15 76 0 74 0 77 0 77 0 74 0 75 0 78 15 79 15 80 15 80 15 79 15 81 15 82 16 81 16 83 16 83 16 81 16 79 16 84 15 85 15 86 15 86 15 85 15 82 15 86 15 82 15 87 15 87 15 82 15 83 15 87 15 83 15 88 15 88 15 83 15 89 15 88 15 89 15 84 15 84 15 89 15 85 15 90 16 91 16 89 16 89 16 91 16 92 16 93 16 94 16 95 16 95 16 94 16 96 16 95 16 96 16 89 16 89 16 96 16 97 16 89 16 97 16 90 16 98 16 99 16 100 16 100 16 99 16 101 16 100 16 101 16 102 16 102 16 101 16 103 16 102 16 103 16 104 16 104 16 103 16 105 16 106 16 107 16 108 16 108 16 107 16 109 16 108 16 109 16 98 16 98 16 109 16 110 16 98 16 110 16 99 16 92 16 111 16 89 16 89 16 111 16 112 16 89 16 112 16 113 16 114 16 115 16 95 16 115 16 116 16 95 16 95 16 116 16 117 16 95 16 117 16 93 16 118 16 119 16 85 16 85 16 119 16 120 16 85 16 120 16 121 16 122 16 123 16 124 16 124 16 123 16 125 16 124 16 125 16 126 16 95 16 127 16 114 16 114 16 127 16 128 16 114 16 128 16 108 16 108 16 128 16 129 16 108 16 129 16 106 16 121 16 130 16 85 16 85 16 130 16 131 16 85 16 131 16 132 16 132 16 133 16 85 16 85 16 133 16 134 16 85 16 134 16 122 16 122 16 134 16 135 16 122 16 135 16 136 16 126 16 125 16 137 16 137 16 125 16 138 16 137 16 138 16 139 16 113 16 140 16 89 16 89 16 140 16 141 16 89 16 141 16 85 16 85 16 141 16 142 16 85 16 142 16 118 16 136 16 143 16 122 16 122 16 143 16 144 16 122 16 144 16 123 16 105 16 145 16 104 16 104 16 145 16 146 16 104 16 146 16 138 16 138 16 146 16 147 16 138 16 147 16 139 16 45 14 43 14 101 14 101 14 43 14 103 14 61 17 82 17 48 17 48 17 82 17 85 17 48 17 85 17 16 17 16 17 85 17 122 17 148 17 149 17 68 17 66 17 68 17 61 17 61 17 68 17 72 17 72 17 73 17 61 17 61 17 73 17 74 17 61 17 74 17 82 17 82 17 74 17 80 17 82 17 80 17 81 17 150 17 151 17 152 17 149 17 153 17 68 17 68 17 153 17 154 17 68 17 154 17 72 17 148 17 68 17 152 17 152 17 68 17 155 17 152 17 155 17 150 17 74 17 76 17 80 17 80 17 76 17 156 17 80 17 156 17 157 17 157 17 158 17 80 17 80 17 158 17 159 17 80 17 159 17 160 17 160 17 159 17 161 17 161 17 159 17 162 17 161 17 162 17 163 17 69 18 67 18 65 18 2 18 95 18 5 18 5 18 95 18 89 18 5 18 89 18 65 18 65 18 89 18 83 18 83 18 79 18 78 18 70 18 164 18 69 18 69 18 164 18 165 18 69 18 165 18 166 18 167 18 168 18 169 18 70 18 69 18 71 18 71 18 69 18 65 18 71 18 65 18 75 18 75 18 65 18 83 18 75 18 83 18 77 18 77 18 83 18 78 18 77 18 78 18 170 18 166 18 171 18 69 18 69 18 171 18 167 18 69 18 167 18 172 18 172 18 167 18 169 18 173 18 174 18 78 18 78 18 174 18 175 18 78 18 175 18 170 18 78 18 176 18 173 18 173 18 176 18 177 18 173 18 177 18 178 18 178 18 177 18 179 18 100 19 44 19 98 19 98 20 44 20 38 20 98 21 38 21 108 21 108 22 38 22 22 22 108 23 22 23 114 23 114 23 22 23 24 23 114 24 24 24 115 24 115 25 24 25 34 25 115 26 34 26 116 26 116 27 34 27 33 27 116 28 33 28 117 28 117 29 33 29 1 29 117 30 1 30 93 30 93 31 1 31 0 31 93 32 0 32 94 32 94 32 0 32 13 32 94 33 13 33 96 33 96 34 13 34 12 34 96 35 12 35 97 35 97 36 12 36 11 36 97 37 11 37 90 37 90 37 11 37 10 37 90 38 10 38 91 38 91 38 10 38 9 38 91 39 9 39 92 39 92 39 9 39 8 39 92 40 8 40 111 40 111 40 8 40 7 40 111 41 7 41 112 41 112 41 7 41 6 41 112 42 6 42 113 42 113 43 6 43 4 43 113 44 4 44 140 44 140 45 4 45 3 45 140 46 3 46 141 46 141 47 3 47 59 47 42 15 44 15 102 15 102 15 44 15 100 15 142 48 58 48 118 48 118 49 58 49 57 49 118 50 57 50 119 50 119 51 57 51 56 51 119 52 56 52 120 52 120 53 56 53 55 53 120 54 55 54 121 54 121 54 55 54 54 54 121 55 54 55 130 55 130 55 54 55 53 55 130 56 53 56 131 56 131 56 53 56 52 56 131 57 52 57 132 57 132 57 52 57 51 57 132 58 51 58 133 58 133 58 51 58 47 58 133 59 47 59 134 59 134 60 47 60 49 60 134 61 49 61 135 61 135 62 49 62 50 62 135 63 50 63 136 63 136 63 50 63 19 63 136 64 19 64 143 64 143 65 19 65 18 65 143 66 18 66 144 66 144 67 18 67 17 67 144 68 17 68 123 68 123 69 17 69 15 69 123 70 15 70 125 70 125 71 15 71 14 71 125 72 14 72 138 72 138 72 14 72 27 72 138 73 27 73 104 73 104 74 27 74 29 74 104 75 29 75 102 75 102 76 29 76 42 76 59 14 58 14 141 14 141 14 58 14 142 14 63 17 64 17 88 17 88 17 64 17 87 17 62 0 63 0 84 0 84 0 63 0 88 0 60 18 62 18 86 18 86 18 62 18 84 18 64 16 60 16 87 16 87 16 60 16 86 16 45 77 101 77 99 77 45 77 99 77 46 77 46 78 99 78 110 78 46 79 110 79 39 79 39 80 110 80 109 80 39 81 109 81 37 81 37 82 109 82 107 82 37 82 107 82 20 82 20 83 107 83 106 83 20 84 106 84 21 84 21 85 106 85 129 85 21 85 129 85 23 85 23 86 129 86 128 86 23 86 128 86 36 86 36 87 128 87 127 87 36 88 127 88 35 88 35 89 127 89 95 89 35 89 95 89 2 89 103 90 43 90 41 90 103 90 41 90 105 90 105 91 41 91 40 91 105 92 40 92 145 92 145 93 40 93 28 93 145 94 28 94 146 94 146 95 28 95 26 95 146 95 26 95 147 95 147 96 26 96 25 96 147 97 25 97 139 97 139 98 25 98 32 98 139 98 32 98 137 98 137 99 32 99 31 99 137 99 31 99 126 99 126 100 31 100 30 100 126 101 30 101 124 101 124 102 30 102 16 102 124 102 16 102 122 102 76 103 77 103 170 103 76 103 170 103 156 103 156 104 170 104 175 104 156 104 175 104 157 104 157 105 175 105 174 105 157 105 174 105 158 105 158 106 174 106 173 106 158 107 173 107 159 107 159 108 173 108 178 108 159 108 178 108 162 108 162 109 178 109 179 109 162 110 179 110 163 110 163 111 179 111 177 111 163 112 177 112 161 112 161 113 177 113 176 113 161 114 176 114 160 114 160 115 176 115 78 115 160 116 78 116 80 116 68 117 69 117 172 117 68 118 172 118 155 118 155 119 172 119 169 119 155 120 169 120 150 120 150 121 169 121 168 121 150 122 168 122 151 122 151 123 168 123 167 123 151 124 167 124 152 124 152 125 167 125 171 125 152 125 171 125 148 125 148 126 171 126 166 126 148 127 166 127 149 127 149 128 166 128 165 128 149 129 165 129 153 129 153 130 165 130 164 130 153 131 164 131 154 131 154 132 164 132 70 132 154 132 70 132 72 132</p>
        </triangles>
      </mesh>
    </geometry>
  </library_geometries>
  <library_visual_scenes>
    <visual_scene id="Scene" name="Scene">
      <node id="beam_holder3" name="beam_holder3" type="NODE">
        <matrix sid="transform">0.001 0 0 0 0 -4.37114e-11 -0.001 0.025 0 0.001 -4.37114e-11 0 0 0 0 1</matrix>
        <instance_geometry url="#beam_holder3-mesh" name="beam_holder3"/>
      </node>
      <node id="Camera" name="Camera" type="NODE">
        <matrix sid="transform">0.6859207 -0.3240135 0.6515582 7.358891 0.7276763 0.3054208 -0.6141704 -6.925791 0 0.8953956 0.4452714 4.958309 0 0 0 1</matrix>
        <instance_camera url="#Camera-camera"/>
      </node>
      <node id="Light" name="Light" type="NODE">
        <matrix sid="transform">-0.2908646 -0.7711008 0.5663932 4.076245 0.9551712 -0.1998834 0.2183912 1.005454 -0.05518906 0.6045247 0.7946723 5.903862 0 0 0 1</matrix>
        <instance_light url="#Light-light"/>
      </node>
    </visual_scene>
  </library_visual_scenes>
  <scene>
    <instance_visual_scene url="#Scene"/>
  </scene>
</COLLADA>